SplineFontDB: 3.2
FontName: ChessCuernavaca
FullName: ChessCuernavaca
FamilyName: ChessCuernavaca
Weight: Regular
Copyright: Donated to the public domain 2022 by Sam Trenholme
UComments: "2022-4-14: Created with FontForge (http://fontforge.org)"
Version: 001.000
ItalicAngle: 0
UnderlinePosition: 0
UnderlineWidth: 0
Ascent: 500
Descent: 500
InvalidEm: 0
LayerCount: 2
Layer: 0 0 "Back" 1
Layer: 1 0 "Fore" 0
XUID: [1021 900 -2068765213 18787]
FSType: 0
OS2Version: 0
OS2_WeightWidthSlopeOnly: 0
OS2_UseTypoMetrics: 1
CreationTime: 1650005861
ModificationTime: 1650045112
PfmFamily: 17
TTFWeight: 400
TTFWidth: 5
LineGap: 0
VLineGap: 0
Panose: 0 0 0 0 0 0 0 0 0 0
OS2TypoAscent: 500
OS2TypoAOffset: 0
OS2TypoDescent: -500
OS2TypoDOffset: 0
OS2TypoLinegap: 500
OS2WinAscent: 500
OS2WinAOffset: 0
OS2WinDescent: 500
OS2WinDOffset: 0
HheadAscent: 500
HheadAOffset: 0
HheadDescent: -500
HheadDOffset: 0
OS2SubXSize: 648
OS2SubYSize: 699
OS2SubXOff: 0
OS2SubYOff: 139
OS2SupXSize: 648
OS2SupYSize: 699
OS2SupXOff: 0
OS2SupYOff: 479
OS2StrikeYSize: 49
OS2StrikeYPos: 258
OS2CapHeight: 340
OS2XHeight: 256
OS2Vendor: 'PfEd'
MarkAttachClasses: 1
DEI: 91125
LangName: 1033
Encoding: ISO8859-1
UnicodeInterp: none
NameList: AGL For New Fonts
DisplaySize: -48
AntiAlias: 1
FitToEm: 0
WinInfo: 0 38 12
BeginPrivate: 0
EndPrivate
TeXData: 1 0 0 1048576 524288 349525 682885 1048576 349525 783286 444596 497025 792723 393216 433062 380633 303038 157286 324010 404750 52429 2506097 1059062 262144
BeginChars: 256 46

StartChar: space
Encoding: 32 32 0
Width: 1000
Flags: HW
LayerCount: 2
Fore
SplineSet
0 0 m 1024
EndSplineSet
EndChar

StartChar: exclam
Encoding: 33 33 1
Width: 1000
Flags: HW
LayerCount: 2
Fore
SplineSet
950 -450 m 1
 1000 -450 l 1
 1000 -500 l 1
 950 -500 l 1
 950 -450 l 1
EndSplineSet
EndChar

StartChar: quotedbl
Encoding: 34 34 2
Width: 1000
Flags: HW
LayerCount: 2
Fore
SplineSet
0 -450 m 1
 1000 -450 l 1
 1000 -500 l 1
 0 -500 l 5
 0 -450 l 1
EndSplineSet
EndChar

StartChar: numbersign
Encoding: 35 35 3
Width: 1000
Flags: HW
LayerCount: 2
Fore
SplineSet
0 -450 m 1
 50 -450 l 1
 50 -500 l 1
 0 -500 l 5
 0 -450 l 1
EndSplineSet
EndChar

StartChar: dollar
Encoding: 36 36 4
Width: 1000
Flags: HW
LayerCount: 2
Fore
SplineSet
950 500 m 5
 1000 500 l 5
 1000 -500 l 5
 950 -500 l 5
 950 500 l 5
0 0 m 1024
EndSplineSet
EndChar

StartChar: percent
Encoding: 37 37 5
Width: 1000
Flags: HW
LayerCount: 2
Fore
SplineSet
0 500 m 5
 50 500 l 5
 50 -500 l 5
 0 -500 l 5
 0 500 l 5
0 0 m 1024
EndSplineSet
EndChar

StartChar: parenleft
Encoding: 40 40 6
Width: 1000
Flags: HW
LayerCount: 2
Fore
SplineSet
0 450 m 1
 0 500 l 5
 1000 500 l 1
 1000 450 l 1
 0 450 l 1
EndSplineSet
EndChar

StartChar: parenright
Encoding: 41 41 7
Width: 1000
Flags: HW
LayerCount: 2
Fore
SplineSet
0 450 m 1
 0 500 l 5
 50 500 l 1
 50 450 l 1
 0 450 l 1
EndSplineSet
EndChar

StartChar: B
Encoding: 66 66 8
Width: 1000
Flags: H
LayerCount: 2
Fore
SplineSet
74.0498046875 424.150390625 m 1
 148.099609375 500 l 1
 158.150390625 500 l 1
 168.150390625 500 l 1
 159.200195312 490.849609375 l 2
 154.299804688 485.849609375 119.099609375 449.849609375 81.0498046875 410.849609375 c 2
 11.900390625 340 l 1
 5.9501953125 340 l 1
 0 340 l 1
 0 344.150390625 l 1
 0 348.299804688 l 1
 74.0498046875 424.150390625 l 1
308.75 499.200195312 m 2
 313.450195312 499.549804688 317.799804688 499.900390625 318.5 499.950195312 c 0
 319.650390625 500 319.5 499.799804688 317.25 497.549804688 c 0
 315.849609375 496.25 246.400390625 428.75 162.900390625 347.549804688 c 2
 11 200 l 1
 5.5 200 l 1
 0 200 l 1
 0 205.5 l 1
 0 210.950195312 l 1
 77.400390625 285.599609375 l 2
 119.950195312 326.650390625 186.25 390.150390625 224.75 426.700195312 c 0
 263.25 463.25 296 494.349609375 297.5 495.799804688 c 2
 300.299804688 498.5 l 1
 308.75 499.200195312 l 2
214.75 284.799804688 m 1
 429.25 500 l 1
 439.25 500 l 1
 449.25 500 l 1
 427.700195312 478.400390625 l 2
 415.799804688 466.5 317.200195312 367.549804688 208.549804688 258.5 c 2
 10.9501953125 60.25 l 1
 5.4501953125 60.099609375 l 1
 -0.0498046875 59.9501953125 l 1
 0.099609375 64.75 l 1
 0.25 69.5498046875 l 1
 214.75 284.799804688 l 1
284.650390625 214.75 m 1
 569.25 499.900390625 l 1
 579.200195312 499.950195312 l 1
 589.200195312 500 l 1
 584.450195312 495.099609375 l 2
 581.900390625 492.400390625 553.400390625 463.799804688 521.150390625 431.5 c 0
 488.900390625 399.200195312 462.599609375 372.75 462.650390625 372.700195312 c 0
 462.700195312 372.650390625 464.549804688 373.049804688 466.75 373.599609375 c 0
 472.450195312 375.049804688 487.849609375 375.200195312 493.75 373.799804688 c 0
 507.099609375 370.700195312 516.650390625 365.450195312 526.049804688 356.049804688 c 0
 532.099609375 350 535.549804688 345.099609375 539.200195312 337.400390625 c 2
 541.799804688 332.049804688 l 1
 625.75 416 l 1
 709.75 500 l 1
 719.75 500 l 1
 729.75 500 l 1
 637.700195312 407.900390625 l 1
 545.599609375 315.75 l 1
 545.349609375 308.5 l 2
 545.200195312 304.5 544.700195312 299.450195312 544.25 297.25 c 0
 541.650390625 284.549804688 535.799804688 273.450195312 527.099609375 264.400390625 c 0
 524.75 261.950195312 522.950195312 259.900390625 523.049804688 259.799804688 c 0
 523.150390625 259.700195312 525.5 258.549804688 528.25 257.25 c 0
 539.900390625 251.700195312 557.150390625 241.700195312 569.700195312 233.25 c 2
 577.650390625 227.900390625 l 1
 713.700195312 363.950195312 l 1
 849.75 500 l 1
 859.75 500 l 1
 869.75 500 l 1
 729.400390625 359.650390625 l 1
 589.099609375 219.25 l 1
 593.150390625 216 l 2
 610.599609375 202.049804688 628.450195312 183.599609375 641.849609375 165.650390625 c 2
 647.650390625 157.900390625 l 1
 818.700195312 328.950195312 l 1
 989.75 500 l 1
 994.900390625 500 l 1
 1000 500 l 1
 1000 495.150390625 l 1
 1000 490.25 l 1
 827.700195312 317.950195312 l 1
 655.450195312 145.700195312 l 1
 658.5 140.200195312 l 2
 672.799804688 114.700195312 681.200195312 88.2998046875 683.549804688 61.599609375 c 2
 684.150390625 54.400390625 l 1
 836.950195312 207.200195312 l 1
 989.75 360 l 1
 994.900390625 360 l 1
 1000 360 l 1
 1000 355.150390625 l 1
 1000 350.25 l 1
 841.5 191.75 l 2
 696.950195312 47.2001953125 683 33.099609375 683 31.650390625 c 0
 683 29.2001953125 680.700195312 17.2998046875 679.25 12.25 c 0
 670.799804688 -17.2001953125 653.049804688 -39.9501953125 628.150390625 -53.150390625 c 0
 625.599609375 -54.5 623.5 -55.7001953125 623.5 -55.900390625 c 0
 623.5 -56.099609375 639.700195312 -95 649.349609375 -117.950195312 c 1
 650.099609375 -119.650390625 l 1
 819.900390625 50.150390625 l 1
 989.75 220 l 1
 994.900390625 220 l 1
 1000 220 l 1
 1000 215.150390625 l 1
 1000 210.25 l 1
 827.950195312 38.2001953125 l 2
 733.299804688 -56.4501953125 656 -134.099609375 656.150390625 -134.299804688 c 0
 656.700195312 -135.25 663 -150.650390625 663 -151.099609375 c 0
 663 -152.049804688 653.099609375 -164.299804688 649.700195312 -167.5 c 0
 636.950195312 -179.650390625 619.099609375 -189.700195312 596.650390625 -197.299804688 c 2
 591.099609375 -199.150390625 l 1
 573.450195312 -216.799804688 l 1
 555.849609375 -234.400390625 l 1
 558.549804688 -235.200195312 l 2
 577 -240.75 600.700195312 -240.049804688 629.25 -233.200195312 c 0
 645.099609375 -229.400390625 644.849609375 -229.450195312 654.599609375 -229.150390625 c 0
 660.599609375 -228.950195312 666.25 -229.099609375 670.599609375 -229.549804688 c 0
 674.25 -229.900390625 677.799804688 -230.200195312 678.5 -230.200195312 c 0
 679.5 -230.25 708.75 -201.200195312 834.5 -75.25 c 2
 989.25 79.75 l 1
 994.650390625 79.900390625 l 1
 1000 80.0498046875 l 1
 1000 75.150390625 l 1
 1000 70.25 l 1
 860.099609375 -69.75 l 2
 746.849609375 -183.099609375 700 -230.099609375 697.049804688 -233.25 c 0
 696.900390625 -233.450195312 697.400390625 -233.599609375 708.5 -236.25 c 0
 726.450195312 -240.549804688 747.75 -247.150390625 773.5 -256.400390625 c 2
 788.25 -261.700195312 l 1
 888.75 -160.849609375 l 1
 989.299804688 -60 l 1
 994.650390625 -60 l 1
 1000 -60 l 1
 1000 -64.650390625 l 1
 1000 -69.349609375 l 1
 901.25 -168.400390625 l 1
 802.5 -267.400390625 l 1
 804.849609375 -268.299804688 l 2
 821.549804688 -274.5 887.200195312 -303.549804688 886.849609375 -304.549804688 c 0
 886.700195312 -305.049804688 806.799804688 -379.049804688 806.150390625 -379.349609375 c 0
 805.799804688 -379.5 801.5 -376.650390625 796.650390625 -373 c 0
 791.75 -369.349609375 785.299804688 -364.849609375 782.25 -362.900390625 c 0
 775.099609375 -358.450195312 760.450195312 -351.200195312 752.5 -348.25 c 0
 745.349609375 -345.599609375 731.549804688 -341.5 729.75 -341.5 c 0
 728.849609375 -341.5 710.25 -359.900390625 649.650390625 -420.75 c 2
 570.75 -500 l 1
 560.900390625 -499.900390625 l 1
 551 -499.75 l 1
 631.5 -418.950195312 l 2
 700.299804688 -349.849609375 711.799804688 -338.049804688 710.849609375 -337.849609375 c 0
 709.25 -337.450195312 697.200195312 -336.099609375 690 -335.450195312 c 0
 680.549804688 -334.700195312 648.25 -334.400390625 620.099609375 -334.849609375 c 2
 594.950195312 -335.25 l 1
 512.650390625 -417.650390625 l 1
 430.349609375 -500 l 1
 420.549804688 -499.900390625 l 1
 410.75 -499.75 l 1
 492.950195312 -417.400390625 l 1
 575.099609375 -335.099609375 l 1
 572.950195312 -334.799804688 l 2
 571.75 -334.650390625 568.400390625 -334.400390625 565.5 -334.25 c 0
 548.549804688 -333.299804688 528.349609375 -329.700195312 514.25 -325.099609375 c 0
 504.150390625 -321.75 492.25 -316.400390625 484.200195312 -311.5 c 2
 480.799804688 -309.450195312 l 1
 385.549804688 -404.700195312 l 1
 290.25 -500 l 1
 280.25 -500 l 1
 270.25 -500 l 1
 357.75 -412.5 l 2
 405.849609375 -364.349609375 445.150390625 -325 445 -325 c 0
 444.849609375 -325 442.099609375 -325.75 438.900390625 -326.700195312 c 0
 427.450195312 -330.099609375 412.900390625 -332.799804688 398.75 -334.25 c 0
 384.700195312 -335.650390625 373.400390625 -336 343.799804688 -336 c 2
 314.25 -336 l 1
 232.25 -418 l 1
 150.25 -500 l 1
 140.25 -500 l 1
 130.25 -500 l 1
 211.75 -418.450195312 l 1
 293.25 -336.900390625 l 1
 287.75 -337.200195312 l 2
 266.349609375 -338.450195312 244.349609375 -343.099609375 228 -349.849609375 c 0
 215.700195312 -354.900390625 204.849609375 -361.25 192.099609375 -370.950195312 c 0
 187.700195312 -374.299804688 183.900390625 -377 183.599609375 -377 c 0
 183.349609375 -377 178.349609375 -371.900390625 172.5 -365.599609375 c 0
 166.650390625 -359.349609375 161.200195312 -353.599609375 160.400390625 -352.75 c 2
 159 -351.25 l 1
 84.599609375 -425.650390625 l 1
 10.25 -500 l 1
 5.099609375 -500 l 1
 0 -500 l 1
 0 -495.150390625 l 1
 0 -490.25 l 1
 74.599609375 -415.650390625 l 1
 149.150390625 -341.099609375 l 1
 147.950195312 -339.650390625 l 2
 147.299804688 -338.849609375 140.5 -331.599609375 132.900390625 -323.5 c 0
 125.299804688 -315.400390625 119.049804688 -308.5 119.049804688 -308.25 c 0
 119.049804688 -307.25 133.900390625 -293.75 140.200195312 -289 c 0
 148.450195312 -282.900390625 162.299804688 -273.650390625 173 -267.150390625 c 0
 202.599609375 -249.25 233.450195312 -235.150390625 257.549804688 -228.5 c 2
 263.349609375 -226.900390625 l 1
 290.75 -199.5 l 1
 318.150390625 -172.099609375 l 1
 313.650390625 -167.700195312 l 2
 309.450195312 -163.549804688 300.5 -152.150390625 300.5 -150.950195312 c 0
 300.5 -150.650390625 308.950195312 -129.349609375 319.299804688 -103.599609375 c 0
 329.650390625 -77.849609375 338.200195312 -56.5 338.299804688 -56.25 c 0
 338.400390625 -55.9501953125 336.599609375 -54.7998046875 334.299804688 -53.599609375 c 0
 332 -52.4501953125 328.599609375 -50.4501953125 326.700195312 -49.25 c 2
 323.25 -47.0498046875 l 1
 166.75 -203.5 l 1
 10.25 -360 l 1
 5.099609375 -360 l 1
 0 -360 l 1
 0 -355.150390625 l 1
 0 -350.25 l 1
 156.099609375 -194.150390625 l 1
 312.200195312 -38.0498046875 l 1
 308.400390625 -34.150390625 l 2
 290.150390625 -15.5 279.400390625 10.849609375 277.700195312 40.900390625 c 2
 277.349609375 47.099609375 l 1
 143.799804688 -86.4501953125 l 1
 10.25 -220 l 1
 5.099609375 -220 l 1
 0 -220 l 1
 0 -215.150390625 l 1
 0 -210.25 l 1
 139.25 -71 l 1
 278.5 68.25 l 1
 279.700195312 75.5498046875 l 2
 284.299804688 102.599609375 295.150390625 129.400390625 311.849609375 154.650390625 c 0
 336.200195312 191.5 372.349609375 223.799804688 417.349609375 248.900390625 c 0
 422.650390625 251.849609375 436.900390625 259.25 438 259.599609375 c 0
 438.549804688 259.799804688 437.5 261.150390625 434.450195312 264.299804688 c 0
 425.650390625 273.5 420.099609375 284 417.450195312 296.650390625 c 0
 415.5 305.799804688 416.099609375 320.950195312 418.75 328.25 c 0
 418.950195312 328.799804688 392.049804688 302.150390625 358.950195312 269 c 0
 325.849609375 235.849609375 233.849609375 143.799804688 154.549804688 64.400390625 c 2
 10.2998046875 -80 l 1
 5.150390625 -80 l 1
 0 -80 l 1
 0 -75.2001953125 l 1
 0 -70.400390625 l 1
 284.650390625 214.75 l 1
489.25 342.150390625 m 0
 485.349609375 343.150390625 479.950195312 343.5 476.5 343 c 0
 465 341.400390625 454.900390625 333.799804688 450.25 323.349609375 c 0
 446.049804688 313.849609375 446.799804688 301.650390625 452.099609375 292.599609375 c 0
 454.400390625 288.650390625 460.599609375 282.599609375 464.349609375 280.599609375 c 0
 470.099609375 277.549804688 472.700195312 276.900390625 479.5 276.700195312 c 0
 486.799804688 276.5 490.950195312 277.400390625 496.75 280.400390625 c 0
 501.450195312 282.849609375 507.599609375 289 510.150390625 293.849609375 c 0
 515.299804688 303.650390625 515.299804688 315.849609375 510.150390625 325.650390625 c 0
 506.200195312 333.150390625 497.349609375 340.150390625 489.25 342.150390625 c 0
491.5 239.099609375 m 0
 488.900390625 240.200195312 485.400390625 241.599609375 483.700195312 242.25 c 2
 480.650390625 243.400390625 l 1
 472.950195312 240.25 l 2
 438.75 226.400390625 409.599609375 209.25 383.75 187.799804688 c 0
 375.799804688 181.200195312 357.450195312 162.75 351.299804688 155.200195312 c 0
 325.549804688 123.5 311 89.349609375 309.049804688 56.150390625 c 0
 306.650390625 15.7001953125 324.150390625 -16.150390625 355.549804688 -28.5498046875 c 2
 358.099609375 -29.5498046875 l 1
 363.200195312 -27.5498046875 l 2
 384.150390625 -19.4501953125 407.25 -14.599609375 439.75 -11.4501953125 c 0
 448.650390625 -10.599609375 483.5 -10.2998046875 495.549804688 -10.9501953125 c 0
 531.75 -12.9501953125 565.950195312 -18.849609375 594.650390625 -28.099609375 c 2
 601.099609375 -30.150390625 l 1
 603.75 -29.2998046875 l 2
 608.099609375 -27.9501953125 616.950195312 -23.2998046875 621.599609375 -20 c 0
 632.150390625 -12.4501953125 641.299804688 -0.4501953125 646.25 12.400390625 c 0
 663.049804688 56 646.950195312 113.700195312 604.5 161.75 c 0
 576.849609375 193 536.900390625 220.400390625 491.5 239.099609375 c 0
488.5 -42.5 m 0
 445.75 -40.650390625 403.5 -46.0498046875 375 -57.0498046875 c 2
 371.25 -58.5 l 1
 358.650390625 -89.849609375 l 2
 351.700195312 -107.099609375 346.099609375 -121.25 346.200195312 -121.349609375 c 0
 346.25 -121.450195312 349.099609375 -120.25 352.5 -118.700195312 c 0
 372.700195312 -109.549804688 395.849609375 -101.700195312 416.25 -97.0498046875 c 0
 481.299804688 -82.349609375 546.650390625 -89.4501953125 609.700195312 -118.099609375 c 0
 613.25 -119.700195312 616.25 -120.950195312 616.299804688 -120.849609375 c 0
 616.400390625 -120.75 610.849609375 -107.150390625 603.900390625 -90.650390625 c 0
 593.900390625 -66.75 591.099609375 -60.5 590.200195312 -60.0498046875 c 0
 588.049804688 -59.099609375 572.25 -54.5 565 -52.7998046875 c 0
 541.099609375 -47.0498046875 516.299804688 -43.7001953125 488.5 -42.5 c 0
500.25 -122 m 0
 492.150390625 -121.450195312 470.700195312 -121.450195312 463 -122.049804688 c 0
 447.900390625 -123.25 428.150390625 -126.549804688 414.150390625 -130.25 c 0
 404.049804688 -132.950195312 388.200195312 -138.25 378.25 -142.25 c 0
 367.549804688 -146.549804688 350.25 -154.599609375 350.25 -155.299804688 c 0
 350.25 -156.549804688 365.200195312 -163.200195312 376.25 -166.900390625 c 0
 433.450195312 -185.900390625 521.200195312 -186.900390625 580 -169.200195312 c 0
 590.049804688 -166.200195312 598 -163.099609375 606.450195312 -158.950195312 c 0
 613.299804688 -155.599609375 613.599609375 -155.400390625 612.549804688 -154.700195312 c 0
 610.700195312 -153.400390625 593.099609375 -145.299804688 585.200195312 -142.099609375 c 0
 557.349609375 -130.849609375 528.849609375 -124.099609375 500.25 -122 c 0
334.299804688 -183.099609375 m 0
 331.849609375 -181.650390625 329.849609375 -180.5 329.799804688 -180.5 c 0
 329.75 -180.5 320.25 -190 308.650390625 -201.599609375 c 2
 287.5 -222.75 l 1
 298.400390625 -222.75 l 2
 309.799804688 -222.75 313.200195312 -223.150390625 321.5 -225.299804688 c 0
 327.75 -226.950195312 333.299804688 -229.349609375 341.25 -233.799804688 c 0
 356.25 -242.200195312 369.75 -245.599609375 382.75 -244.299804688 c 2
 386.25 -243.900390625 l 1
 403.349609375 -226.849609375 l 2
 412.75 -217.5 420.400390625 -209.75 420.299804688 -209.650390625 c 0
 420.200195312 -209.549804688 416.200195312 -208.799804688 411.400390625 -208 c 0
 380.25 -202.75 353.150390625 -194 334.299804688 -183.099609375 c 0
553 -217.25 m 2
 559.200195312 -211.049804688 563.900390625 -206.049804688 563.5 -206.049804688 c 0
 563.099609375 -206.099609375 560.049804688 -206.650390625 556.75 -207.299804688 c 0
 548.650390625 -208.849609375 537.5 -210.400390625 527.400390625 -211.400390625 c 0
 522.849609375 -211.900390625 518.950195312 -212.400390625 518.75 -212.549804688 c 0
 518.200195312 -213.150390625 532.400390625 -223.150390625 539 -226.900390625 c 2
 541.799804688 -228.450195312 l 1
 553 -217.25 l 2
442.25 -212 m 2
 441.450195312 -212 440.299804688 -211.849609375 439.75 -211.700195312 c 0
 438.950195312 -211.5 437 -213.200195312 430.75 -219.549804688 c 0
 424.5 -225.900390625 423.349609375 -227.25 425.5 -225.75 c 0
 428.150390625 -223.900390625 440.450195312 -214.700195312 442.700195312 -212.900390625 c 2
 443.75 -212 l 1
 442.25 -212 l 2
493.400390625 -233.25 m 0
 488.950195312 -229.650390625 484.25 -225.900390625 483 -224.900390625 c 2
 480.700195312 -223.099609375 l 1
 470 -231.599609375 l 2
 455.25 -243.299804688 445.450195312 -250.599609375 437.5 -255.799804688 c 0
 398.799804688 -281.099609375 364.400390625 -283 326.700195312 -261.900390625 c 0
 315.75 -255.799804688 310.049804688 -254.349609375 297.75 -254.349609375 c 0
 288.75 -254.349609375 281.299804688 -255.349609375 270.400390625 -258.049804688 c 0
 242.099609375 -265.150390625 206.549804688 -282.25 171.650390625 -305.549804688 c 0
 168.049804688 -308 164.950195312 -310.200195312 164.75 -310.5 c 0
 164.450195312 -310.950195312 170.049804688 -317.150390625 183.25 -331.049804688 c 2
 187.349609375 -335.299804688 l 1
 192.299804688 -332.349609375 l 2
 215.099609375 -318.799804688 240 -310.599609375 269.700195312 -307 c 0
 284.849609375 -305.150390625 291.299804688 -304.900390625 334.5 -304.5 c 0
 358.299804688 -304.25 380.900390625 -303.849609375 384.75 -303.549804688 c 0
 411.900390625 -301.450195312 430.849609375 -297.299804688 449.150390625 -289.349609375 c 0
 457.5 -285.75 463.349609375 -282.5 473.25 -275.950195312 c 2
 481.25 -270.700195312 l 1
 488.400390625 -276 l 2
 503.299804688 -287.150390625 516.099609375 -293.25 533.549804688 -297.5 c 0
 555.599609375 -302.900390625 574.599609375 -304 627.75 -303 c 0
 671.450195312 -302.200195312 690.150390625 -302.849609375 713.25 -306.049804688 c 0
 744.849609375 -310.349609375 774.349609375 -320.549804688 797.700195312 -335.25 c 0
 800.549804688 -337.049804688 803.150390625 -338.5 803.450195312 -338.5 c 0
 804.049804688 -338.5 830.5 -314.099609375 830.5 -313.549804688 c 0
 830.5 -313.150390625 812 -305.349609375 794.5 -298.349609375 c 0
 751.650390625 -281.299804688 714.349609375 -269.400390625 687 -264.049804688 c 0
 674.849609375 -261.700195312 667.5 -260.849609375 658.5 -260.849609375 c 2
 650.25 -260.799804688 l 1
 639.75 -263.349609375 l 2
 604.75 -271.900390625 578.049804688 -272.950195312 553.700195312 -266.75 c 0
 533.599609375 -261.599609375 518.25 -253.099609375 493.400390625 -233.25 c 0
477.200195312 168.299804688 m 0
 480.299804688 169.099609375 483.950195312 168.75 487 167.450195312 c 0
 490 166.150390625 493.700195312 162.450195312 495.099609375 159.299804688 c 0
 496.200195312 156.799804688 496.25 156.349609375 496.400390625 138.150390625 c 2
 496.549804688 119.549804688 l 1
 514.900390625 119.400390625 l 2
 532.650390625 119.25 533.349609375 119.200195312 535.650390625 118.150390625 c 0
 539.400390625 116.400390625 541.700195312 114.299804688 543.549804688 110.900390625 c 0
 545.099609375 108 545.25 107.400390625 545.25 103.5 c 0
 545.25 100.25 545 98.7001953125 544.200195312 96.9501953125 c 0
 542.650390625 93.650390625 539.849609375 90.75 536.599609375 89.150390625 c 2
 533.75 87.75 l 1
 515.150390625 87.599609375 l 1
 496.549804688 87.4501953125 l 1
 496.400390625 68.849609375 l 1
 496.25 50.25 l 1
 494.599609375 46.849609375 l 2
 488.700195312 34.900390625 472.299804688 35.2001953125 466.549804688 47.4501953125 c 2
 465.25 50.25 l 1
 465.099609375 68.849609375 l 1
 464.950195312 87.4501953125 l 1
 446.349609375 87.599609375 l 1
 427.75 87.75 l 1
 424.900390625 89.150390625 l 2
 421.700195312 90.7001953125 419.150390625 93.400390625 417.450195312 96.9501953125 c 0
 415.75 100.450195312 415.799804688 106.299804688 417.549804688 110 c 0
 419.200195312 113.5 422 116.299804688 425.5 117.950195312 c 2
 428.25 119.25 l 1
 446.599609375 119.400390625 l 1
 464.950195312 119.549804688 l 1
 465.099609375 138.150390625 l 2
 465.25 155.900390625 465.299804688 156.849609375 466.299804688 159.049804688 c 0
 468.450195312 163.650390625 472.549804688 167.150390625 477.200195312 168.299804688 c 0
933 -264.349609375 m 0
 969.700195312 -229 999.799804688 -200.049804688 999.900390625 -200.049804688 c 0
 999.950195312 -200 1000 -204 1000 -208.900390625 c 2
 1000 -217.799804688 l 1
 855.5 -358.900390625 l 1
 711 -500 l 1
 705.5 -500 l 1
 700 -500 l 1
 700 -494.5 l 1
 700 -489 l 1
 783.150390625 -408.849609375 l 2
 828.849609375 -364.75 896.299804688 -299.75 933 -264.349609375 c 0
918.700195312 -411.099609375 m 2
 988.099609375 -340 l 1
 994.049804688 -340 l 1
 1000 -340 l 1
 1000 -344.150390625 l 1
 1000 -348.299804688 l 1
 925.950195312 -424.150390625 l 1
 851.900390625 -500 l 1
 841.849609375 -500 l 1
 831.849609375 -500 l 1
 840.549804688 -491.099609375 l 2
 845.349609375 -486.25 880.5 -450.25 918.700195312 -411.099609375 c 2
EndSplineSet
EndChar

StartChar: b
Encoding: 98 98 9
Width: 1000
Flags: H
LayerCount: 2
Fore
SplineSet
472.75 374.700195312 m 0
 473.599609375 374.799804688 477.950195312 374.849609375 482.5 374.75 c 0
 488.650390625 374.599609375 491.799804688 374.299804688 494.799804688 373.549804688 c 0
 507.799804688 370.299804688 516.849609375 365.25 526.049804688 356.049804688 c 0
 533.700195312 348.400390625 538.75 340.400390625 542 330.599609375 c 0
 544.549804688 322.950195312 545.25 318.549804688 545.25 309.75 c 0
 545.25 304 545 300.549804688 544.349609375 297.5 c 0
 541.599609375 284.450195312 535.849609375 273.5 527.099609375 264.400390625 c 0
 524.75 261.950195312 522.950195312 259.900390625 523.049804688 259.799804688 c 0
 523.150390625 259.700195312 525.5 258.549804688 528.25 257.25 c 0
 544.950195312 249.25 567.75 235.349609375 583.450195312 223.549804688 c 0
 637.349609375 183.150390625 672.400390625 130.549804688 681.75 76.150390625 c 0
 685.5 54.099609375 684.400390625 29.25 678.849609375 10.75 c 0
 670.099609375 -18.150390625 652.650390625 -40.150390625 628.099609375 -53.150390625 c 0
 624.599609375 -55 623.5 -55.849609375 623.650390625 -56.4501953125 c 0
 623.799804688 -56.900390625 632.700195312 -78.25 643.450195312 -103.900390625 c 0
 654.200195312 -129.599609375 663 -150.799804688 663 -151.099609375 c 0
 663 -152.049804688 653.150390625 -164.25 649.700195312 -167.5 c 0
 627.099609375 -189.049804688 588.75 -203.700195312 537.75 -210.25 c 0
 532.549804688 -210.900390625 526.150390625 -211.599609375 523.599609375 -211.799804688 c 0
 521.049804688 -212 518.849609375 -212.299804688 518.75 -212.5 c 0
 518.099609375 -213.549804688 534.650390625 -224.700195312 543.25 -229 c 0
 566.450195312 -240.75 592.549804688 -242 629.25 -233.200195312 c 0
 645.200195312 -229.400390625 644.799804688 -229.450195312 654.75 -229.150390625 c 0
 667.549804688 -228.799804688 678.099609375 -229.799804688 694.25 -233.049804688 c 0
 738.400390625 -241.849609375 803.900390625 -265.599609375 874.099609375 -298.25 c 0
 881.200195312 -301.549804688 886.900390625 -304.400390625 886.849609375 -304.549804688 c 0
 886.700195312 -305.049804688 806.799804688 -379.049804688 806.150390625 -379.349609375 c 0
 805.799804688 -379.5 801.5 -376.650390625 796.650390625 -373 c 0
 785 -364.349609375 778.700195312 -360.400390625 767.75 -355 c 0
 747.099609375 -344.799804688 726.099609375 -339.150390625 698.5 -336.299804688 c 0
 682.599609375 -334.650390625 670.799804688 -334.400390625 633.5 -334.799804688 c 0
 593.650390625 -335.25 580.900390625 -335.200195312 568.5 -334.450195312 c 0
 533.700195312 -332.400390625 506.099609375 -324.849609375 483.950195312 -311.349609375 c 2
 480.25 -309.099609375 l 1
 476.75 -311.099609375 l 2
 455.400390625 -323.200195312 427.849609375 -331.400390625 398.75 -334.200195312 c 0
 394.349609375 -334.599609375 389.650390625 -335.099609375 388.25 -335.25 c 0
 386.900390625 -335.349609375 366.049804688 -335.700195312 342 -335.950195312 c 0
 283.849609375 -336.599609375 271.75 -337.5 250 -342.799804688 c 0
 228 -348.200195312 211.599609375 -356.150390625 192.099609375 -370.950195312 c 0
 187.700195312 -374.299804688 183.849609375 -377 183.599609375 -377 c 0
 182.950195312 -377 119.099609375 -308.950195312 119.099609375 -308.25 c 0
 119.049804688 -307.25 133.900390625 -293.75 140.200195312 -289 c 0
 169.599609375 -267.049804688 210.5 -244.700195312 241.400390625 -233.700195312 c 0
 264.450195312 -225.5 282.400390625 -222.150390625 300.75 -222.650390625 c 0
 317.549804688 -223.099609375 326.599609375 -225.599609375 341.25 -233.799804688 c 0
 348.799804688 -238.049804688 356 -241.049804688 362.900390625 -242.799804688 c 0
 368.900390625 -244.349609375 378.400390625 -244.900390625 384.549804688 -244.049804688 c 0
 399.200195312 -242 414.099609375 -234.549804688 434.25 -219.299804688 c 0
 444.349609375 -211.700195312 443.950195312 -212 442.75 -212 c 0
 442.200195312 -212 437.700195312 -211.549804688 432.75 -211 c 0
 381.650390625 -205.200195312 341.599609375 -191.5 318.150390625 -171.849609375 c 0
 315.650390625 -169.700195312 312.5 -166.799804688 311.200195312 -165.349609375 c 0
 308.25 -162.049804688 300.5 -151.650390625 300.5 -150.950195312 c 0
 300.5 -150.650390625 308.950195312 -129.349609375 319.299804688 -103.599609375 c 0
 329.650390625 -77.849609375 338.200195312 -56.5 338.299804688 -56.25 c 0
 338.400390625 -55.9501953125 336.549804688 -54.75 334.200195312 -53.5498046875 c 0
 316.599609375 -44.5498046875 301.299804688 -29.2998046875 291.549804688 -11 c 0
 282.799804688 5.5 278.25 23.7001953125 277.650390625 44.7998046875 c 0
 276.849609375 72.349609375 283.400390625 100.900390625 297 128.75 c 0
 320.349609375 176.549804688 361.900390625 218 417.349609375 248.900390625 c 0
 422.650390625 251.849609375 436.900390625 259.25 438 259.599609375 c 0
 438.549804688 259.799804688 437.5 261.150390625 434.450195312 264.299804688 c 0
 425.650390625 273.5 420.099609375 284.049804688 417.450195312 296.650390625 c 0
 416 303.349609375 415.900390625 315.150390625 417.150390625 321.650390625 c 0
 419.900390625 335.349609375 425.650390625 346.25 435.450195312 356.049804688 c 0
 442.599609375 363.200195312 448.75 367.25 458.099609375 370.950195312 c 0
 461.349609375 372.25 468.75 374.150390625 472.75 374.700195312 c 0
489.25 342.150390625 m 0
 485.349609375 343.150390625 479.950195312 343.5 476.5 343 c 0
 465 341.400390625 454.900390625 333.799804688 450.25 323.349609375 c 0
 446.049804688 313.849609375 446.799804688 301.650390625 452.099609375 292.599609375 c 0
 454.400390625 288.650390625 460.599609375 282.599609375 464.349609375 280.599609375 c 0
 470.099609375 277.549804688 472.700195312 276.900390625 479.5 276.700195312 c 0
 486.799804688 276.5 490.950195312 277.400390625 496.75 280.400390625 c 0
 501.450195312 282.849609375 507.599609375 289 510.150390625 293.849609375 c 0
 515.299804688 303.650390625 515.299804688 315.849609375 510.150390625 325.650390625 c 0
 506.200195312 333.150390625 497.349609375 340.150390625 489.25 342.150390625 c 0
491.5 239.099609375 m 0
 488.900390625 240.200195312 485.400390625 241.599609375 483.700195312 242.25 c 2
 480.650390625 243.400390625 l 1
 472.950195312 240.25 l 2
 438.75 226.400390625 409.599609375 209.25 383.75 187.799804688 c 0
 375.799804688 181.200195312 357.450195312 162.75 351.299804688 155.200195312 c 0
 325.549804688 123.5 311 89.349609375 309.049804688 56.150390625 c 0
 306.650390625 15.7001953125 324.150390625 -16.150390625 355.549804688 -28.5498046875 c 2
 358.099609375 -29.5498046875 l 1
 363.200195312 -27.5498046875 l 2
 384.150390625 -19.4501953125 407.25 -14.599609375 439.75 -11.4501953125 c 0
 448.650390625 -10.599609375 483.5 -10.2998046875 495.549804688 -10.9501953125 c 0
 531.75 -12.9501953125 565.950195312 -18.849609375 594.650390625 -28.099609375 c 2
 601.099609375 -30.150390625 l 1
 603.75 -29.2998046875 l 2
 608.099609375 -27.9501953125 616.950195312 -23.2998046875 621.599609375 -20 c 0
 632.150390625 -12.4501953125 641.299804688 -0.4501953125 646.25 12.400390625 c 0
 663.049804688 56 646.950195312 113.700195312 604.5 161.75 c 0
 576.849609375 193 536.900390625 220.400390625 491.5 239.099609375 c 0
488.5 -42.5 m 0
 445.75 -40.650390625 403.5 -46.0498046875 375 -57.0498046875 c 2
 371.25 -58.5 l 1
 358.650390625 -89.849609375 l 2
 351.700195312 -107.099609375 346.099609375 -121.25 346.200195312 -121.349609375 c 0
 346.25 -121.450195312 349.099609375 -120.25 352.5 -118.700195312 c 0
 372.700195312 -109.549804688 395.849609375 -101.700195312 416.25 -97.0498046875 c 0
 481.299804688 -82.349609375 546.650390625 -89.4501953125 609.700195312 -118.099609375 c 0
 613.25 -119.700195312 616.25 -120.950195312 616.299804688 -120.849609375 c 0
 616.400390625 -120.75 610.849609375 -107.150390625 603.900390625 -90.650390625 c 0
 593.900390625 -66.75 591.099609375 -60.5 590.200195312 -60.0498046875 c 0
 588.049804688 -59.099609375 572.25 -54.5 565 -52.7998046875 c 0
 541.099609375 -47.0498046875 516.299804688 -43.7001953125 488.5 -42.5 c 0
500.25 -122 m 0
 492.150390625 -121.450195312 470.700195312 -121.450195312 463 -122.049804688 c 0
 447.900390625 -123.25 428.150390625 -126.549804688 414.150390625 -130.25 c 0
 404.049804688 -132.950195312 388.200195312 -138.25 378.25 -142.25 c 0
 367.549804688 -146.549804688 350.25 -154.599609375 350.25 -155.299804688 c 0
 350.25 -156.549804688 365.200195312 -163.200195312 376.25 -166.900390625 c 0
 433.450195312 -185.900390625 521.200195312 -186.900390625 580 -169.200195312 c 0
 590.049804688 -166.200195312 598 -163.099609375 606.450195312 -158.950195312 c 0
 613.299804688 -155.599609375 613.599609375 -155.400390625 612.549804688 -154.700195312 c 0
 610.700195312 -153.400390625 593.099609375 -145.299804688 585.200195312 -142.099609375 c 0
 557.349609375 -130.849609375 528.849609375 -124.099609375 500.25 -122 c 0
493.400390625 -233.25 m 0
 488.950195312 -229.650390625 484.25 -225.900390625 483 -224.900390625 c 2
 480.700195312 -223.099609375 l 1
 470 -231.599609375 l 2
 455.25 -243.299804688 445.450195312 -250.599609375 437.5 -255.799804688 c 0
 398.799804688 -281.099609375 364.400390625 -283 326.700195312 -261.900390625 c 0
 315.75 -255.799804688 310.049804688 -254.349609375 297.75 -254.349609375 c 0
 288.75 -254.349609375 281.299804688 -255.349609375 270.400390625 -258.049804688 c 0
 242.099609375 -265.150390625 206.549804688 -282.25 171.650390625 -305.549804688 c 0
 168.049804688 -308 164.950195312 -310.200195312 164.75 -310.5 c 0
 164.450195312 -310.950195312 170.049804688 -317.150390625 183.25 -331.049804688 c 2
 187.349609375 -335.299804688 l 1
 192.299804688 -332.349609375 l 2
 215.099609375 -318.799804688 240 -310.599609375 269.700195312 -307 c 0
 284.849609375 -305.150390625 291.299804688 -304.900390625 334.5 -304.5 c 0
 358.299804688 -304.25 380.900390625 -303.849609375 384.75 -303.549804688 c 0
 411.900390625 -301.450195312 430.849609375 -297.299804688 449.150390625 -289.349609375 c 0
 457.5 -285.75 463.349609375 -282.5 473.25 -275.950195312 c 2
 481.25 -270.700195312 l 1
 488.400390625 -276 l 2
 503.299804688 -287.150390625 516.099609375 -293.25 533.549804688 -297.5 c 0
 555.599609375 -302.900390625 574.599609375 -304 627.75 -303 c 0
 671.450195312 -302.200195312 690.150390625 -302.849609375 713.25 -306.049804688 c 0
 744.849609375 -310.349609375 774.349609375 -320.549804688 797.700195312 -335.25 c 0
 800.549804688 -337.049804688 803.150390625 -338.5 803.450195312 -338.5 c 0
 804.049804688 -338.5 830.5 -314.099609375 830.5 -313.549804688 c 0
 830.5 -313.150390625 812 -305.349609375 794.5 -298.349609375 c 0
 751.650390625 -281.299804688 714.349609375 -269.400390625 687 -264.049804688 c 0
 674.849609375 -261.700195312 667.5 -260.849609375 658.5 -260.849609375 c 2
 650.25 -260.799804688 l 1
 639.75 -263.349609375 l 2
 604.75 -271.900390625 578.049804688 -272.950195312 553.700195312 -266.75 c 0
 533.599609375 -261.599609375 518.25 -253.099609375 493.400390625 -233.25 c 0
477.200195312 168.299804688 m 0
 480.299804688 169.099609375 483.950195312 168.75 487 167.450195312 c 0
 490 166.150390625 493.700195312 162.450195312 495.099609375 159.299804688 c 0
 496.200195312 156.799804688 496.25 156.349609375 496.400390625 138.150390625 c 2
 496.549804688 119.549804688 l 1
 514.900390625 119.400390625 l 2
 532.650390625 119.25 533.349609375 119.200195312 535.650390625 118.150390625 c 0
 539.400390625 116.400390625 541.700195312 114.299804688 543.549804688 110.900390625 c 0
 545.099609375 108 545.25 107.400390625 545.25 103.5 c 0
 545.25 100.25 545 98.7001953125 544.200195312 96.9501953125 c 0
 542.650390625 93.650390625 539.849609375 90.75 536.599609375 89.150390625 c 2
 533.75 87.75 l 1
 515.150390625 87.599609375 l 1
 496.549804688 87.4501953125 l 1
 496.400390625 68.849609375 l 1
 496.25 50.25 l 1
 494.599609375 46.849609375 l 2
 488.700195312 34.900390625 472.299804688 35.2001953125 466.549804688 47.4501953125 c 2
 465.25 50.25 l 1
 465.099609375 68.849609375 l 1
 464.950195312 87.4501953125 l 1
 446.349609375 87.599609375 l 1
 427.75 87.75 l 1
 424.900390625 89.150390625 l 2
 421.700195312 90.7001953125 419.150390625 93.400390625 417.450195312 96.9501953125 c 0
 415.75 100.450195312 415.799804688 106.299804688 417.549804688 110 c 0
 419.200195312 113.5 422 116.299804688 425.5 117.950195312 c 2
 428.25 119.25 l 1
 446.599609375 119.400390625 l 1
 464.950195312 119.549804688 l 1
 465.099609375 138.150390625 l 2
 465.25 155.900390625 465.299804688 156.849609375 466.299804688 159.049804688 c 0
 468.450195312 163.650390625 472.549804688 167.150390625 477.200195312 168.299804688 c 0
EndSplineSet
EndChar

StartChar: f
Encoding: 102 102 10
Width: 1000
Flags: H
LayerCount: 2
Fore
SplineSet
178.5 322.25 m 1
 178.5 359 l 1
 500 359 l 1
 821.5 359 l 1
 821.5 322.25 l 1
 821.5 285.5 l 1
 796.75 285.5 l 1
 772 285.5 l 1
 772 243.349609375 l 1
 772 201.150390625 l 1
 730.25 156.700195312 l 1
 688.5 112.25 l 1
 688.549804688 -35.75 l 1
 688.549804688 -183.75 l 1
 732.599609375 -217 l 2
 756.849609375 -235.299804688 778.650390625 -251.799804688 781.099609375 -253.650390625 c 2
 785.5 -257.049804688 l 1
 785.5 -324 l 1
 785.5 -391 l 1
 729 -391 l 1
 672.5 -391 l 1
 672.5 -361.25 l 1
 672.5 -331.5 l 1
 621 -331.5 l 1
 569.5 -331.5 l 1
 569.5 -361.25 l 1
 569.5 -391 l 1
 500 -391 l 1
 430.5 -391 l 1
 430.5 -361.25 l 1
 430.5 -331.5 l 1
 379 -331.5 l 1
 327.5 -331.5 l 1
 327.5 -361.25 l 1
 327.5 -391 l 1
 271 -391 l 1
 214.5 -391 l 1
 214.599609375 -323.900390625 l 1
 214.75 -256.75 l 1
 263 -220.25 l 1
 311.25 -183.75 l 1
 311.400390625 -35.400390625 l 1
 311.5 112.900390625 l 1
 270.099609375 156.950195312 l 1
 228.650390625 201 l 1
 228.349609375 222.349609375 l 2
 228.150390625 234.150390625 228 253.150390625 228 264.650390625 c 2
 228 285.5 l 1
 203.25 285.5 l 1
 178.5 285.5 l 1
 178.5 322.25 l 1
727.75 298.549804688 m 0
 706.700195312 299.200195312 310.599609375 299.549804688 280.25 299 c 0
 258.599609375 298.599609375 250.900390625 298 248 296.599609375 c 0
 245.799804688 295.549804688 242.75 291.5 241.700195312 288.299804688 c 0
 240.150390625 283.650390625 241.650390625 278.450195312 245.75 274.299804688 c 0
 248.5 271.599609375 247.799804688 271.650390625 272.75 270.900390625 c 0
 300.799804688 270 724.200195312 270 737.549804688 270.849609375 c 0
 750.450195312 271.700195312 751.700195312 272 754.599609375 275.099609375 c 0
 760.400390625 281.200195312 760.400390625 288.599609375 754.549804688 294.549804688 c 0
 751.849609375 297.299804688 751.650390625 297.400390625 748.5 297.700195312 c 0
 746.700195312 297.900390625 737.400390625 298.299804688 727.75 298.549804688 c 0
734.5 215.099609375 m 0
 719.5 215.700195312 290.5 216.099609375 270.5 215.5 c 0
 251.200195312 214.950195312 248.549804688 214.5 245.549804688 211.25 c 0
 242.349609375 207.799804688 241.299804688 205.299804688 241.25 201.25 c 0
 241.25 197.049804688 242.5 194.200195312 245.75 191 c 0
 247.75 189 248.099609375 188.900390625 251.849609375 188.450195312 c 0
 262.049804688 187.299804688 311.799804688 186.950195312 483.25 186.650390625 c 0
 663.299804688 186.400390625 731.75 186.75 744.5 188 c 0
 751.099609375 188.650390625 753.200195312 189.650390625 755.849609375 193.25 c 0
 760.400390625 199.400390625 759.849609375 206.200195312 754.299804688 211.75 c 0
 751.650390625 214.349609375 751.650390625 214.349609375 734.5 215.099609375 c 0
668.349609375 123.400390625 m 0
 666.400390625 125.349609375 664.5 127 664.099609375 127 c 0
 663.75 127 664.900390625 125.349609375 666.75 123.400390625 c 0
 671.799804688 117.950195312 673.150390625 115.75 673.400390625 112.700195312 c 0
 673.700195312 109.25 672.5 106.849609375 668.200195312 102.150390625 c 2
 664.900390625 98.5 l 1
 500 98.5 l 1
 335.049804688 98.5 l 1
 331.900390625 102 l 2
 324.799804688 109.900390625 324.75 113.099609375 331.549804688 122.200195312 c 2
 334.650390625 126.25 l 1
 331.599609375 123.299804688 l 2
 327.450195312 119.25 325.75 116.099609375 325.799804688 112.25 c 0
 325.799804688 108.099609375 327.150390625 105.400390625 331.5 100.799804688 c 2
 335.150390625 97 l 1
 500 97 l 1
 664.849609375 97 l 1
 668.5 100.799804688 l 2
 672.849609375 105.400390625 674.200195312 108.099609375 674.200195312 112.25 c 0
 674.200195312 116.200195312 672.900390625 118.700195312 668.349609375 123.400390625 c 0
668.349609375 -172.099609375 m 2
 664.849609375 -168.5 l 1
 500 -168.5 l 1
 335.150390625 -168.5 l 1
 331.650390625 -172.099609375 l 2
 327.049804688 -176.900390625 325.799804688 -179.299804688 325.799804688 -183.5 c 0
 325.799804688 -187.700195312 327.049804688 -190.099609375 331.650390625 -194.849609375 c 2
 335.150390625 -198.5 l 1
 500 -198.5 l 1
 664.849609375 -198.5 l 1
 668.349609375 -194.849609375 l 2
 672.950195312 -190.099609375 674.200195312 -187.700195312 674.200195312 -183.5 c 0
 674.200195312 -179.299804688 672.950195312 -176.900390625 668.349609375 -172.099609375 c 2
767.75 -247.599609375 m 2
 764.400390625 -244 l 1
 500 -244 l 1
 235.599609375 -244 l 1
 232.25 -247.599609375 l 2
 227.75 -252.5 226.299804688 -255.599609375 226.599609375 -259.700195312 c 0
 226.950195312 -263.75 227.900390625 -265.5 232.400390625 -270.099609375 c 2
 236.150390625 -274 l 1
 500 -274 l 1
 763.849609375 -274 l 1
 767.599609375 -270.099609375 l 2
 772.099609375 -265.5 773.049804688 -263.75 773.400390625 -259.700195312 c 0
 773.700195312 -255.599609375 772.25 -252.5 767.75 -247.599609375 c 2
277 214.450195312 m 0
 299.25 215.049804688 695.5 215.049804688 720.25 214.5 c 0
 742.900390625 213.950195312 750.150390625 213.450195312 752.5 212.25 c 0
 754.150390625 211.400390625 756.549804688 208.099609375 757.400390625 205.549804688 c 0
 759.400390625 199.799804688 755.75 192.200195312 749.849609375 189.75 c 0
 746.900390625 188.5 711.700195312 188.099609375 564 187.5 c 0
 390.150390625 186.75 269.5 187.549804688 253.599609375 189.5 c 0
 246 190.450195312 244.450195312 191.599609375 242.549804688 197.700195312 c 0
 241.549804688 200.950195312 241.549804688 201.349609375 242.25 203.700195312 c 0
 242.650390625 205.099609375 243.599609375 207.400390625 244.400390625 208.75 c 0
 245.549804688 210.900390625 246.099609375 211.349609375 248.25 212.099609375 c 0
 251.950195312 213.299804688 261 214.049804688 277 214.450195312 c 0
332.5 -172.349609375 m 2
 335.599609375 -169 l 1
 500 -169 l 1
 664.400390625 -169 l 1
 667.5 -172.349609375 l 2
 671.200195312 -176.5 673.5 -180.849609375 673.5 -183.75 c 0
 673.5 -186.450195312 671.650390625 -189.900390625 667.799804688 -194.5 c 2
 664.849609375 -198 l 1
 500 -198 l 1
 335.150390625 -198 l 1
 332.200195312 -194.5 l 2
 328.349609375 -189.900390625 326.5 -186.450195312 326.5 -183.75 c 0
 326.5 -180.849609375 328.799804688 -176.5 332.5 -172.349609375 c 2
EndSplineSet
EndChar

StartChar: d
Encoding: 100 100 11
Width: 1000
Flags: H
LayerCount: 2
Fore
SplineSet
166.150390625 376.299804688 m 0
 167.849609375 376.799804688 228 376.900390625 499.75 376.849609375 c 2
 831.25 376.75 l 1
 833.900390625 375.549804688 l 2
 837.150390625 374.099609375 841.049804688 369.950195312 842.299804688 366.650390625 c 0
 843.150390625 364.400390625 843.25 361.599609375 843.400390625 324.75 c 0
 843.549804688 283.700195312 843.400390625 280.25 841.450195312 276.450195312 c 0
 840.099609375 273.75 837.150390625 270.900390625 834.200195312 269.450195312 c 0
 831.75 268.25 831.650390625 268.25 813.650390625 268.099609375 c 2
 795.549804688 267.950195312 l 1
 795.400390625 234.849609375 l 1
 795.25 201.75 l 1
 793.900390625 199.25 l 2
 792.950195312 197.450195312 779.849609375 183.75 747.549804688 150.75 c 2
 702.5 104.75 l 1
 702.5 -36.25 l 1
 702.5 -177.25 l 1
 746.900390625 -215.049804688 l 2
 792.25 -253.599609375 793.799804688 -255.049804688 795 -259.5 c 0
 795.349609375 -260.75 795.450195312 -285.950195312 795.400390625 -335.349609375 c 2
 795.25 -409.25 l 1
 794.049804688 -411.5 l 2
 792.450195312 -414.549804688 789.75 -417.299804688 786.75 -418.900390625 c 2
 784.25 -420.25 l 1
 725.25 -420.25 l 1
 666.25 -420.25 l 1
 663.799804688 -419.049804688 l 2
 660.650390625 -417.5 657.700195312 -414.549804688 656.299804688 -411.549804688 c 0
 655.299804688 -409.299804688 655.25 -408.5 655 -383.25 c 2
 654.75 -357.25 l 1
 624.150390625 -357.099609375 l 1
 593.549804688 -357 l 1
 593.400390625 -382.349609375 l 2
 593.25 -404.400390625 593.150390625 -408.049804688 592.400390625 -409.900390625 c 0
 591.200195312 -413.049804688 589.099609375 -415.900390625 586.650390625 -417.599609375 c 0
 582.099609375 -420.700195312 588 -420.5 498.25 -420.400390625 c 2
 416.25 -420.25 l 1
 413.799804688 -419.049804688 l 2
 410.650390625 -417.5 407.700195312 -414.549804688 406.299804688 -411.549804688 c 0
 405.299804688 -409.299804688 405.25 -408.5 405 -383.25 c 2
 404.75 -357.25 l 1
 374.150390625 -357.099609375 l 1
 343.549804688 -357 l 1
 343.400390625 -382.349609375 l 2
 343.25 -404.400390625 343.150390625 -408.049804688 342.400390625 -409.900390625 c 0
 341.200195312 -413.049804688 339.099609375 -415.900390625 336.650390625 -417.599609375 c 0
 332.099609375 -420.700195312 335.75 -420.549804688 272 -420.400390625 c 2
 213.75 -420.25 l 1
 211.25 -418.900390625 l 2
 208.25 -417.299804688 205.549804688 -414.549804688 203.950195312 -411.5 c 2
 202.75 -409.25 l 1
 202.599609375 -335.349609375 l 2
 202.549804688 -287.75 202.650390625 -260.75 203 -259.549804688 c 0
 204.200195312 -255.099609375 205.349609375 -254.049804688 250.950195312 -215.25 c 2
 295.5 -177.299804688 l 1
 295.5 -36.2998046875 l 1
 295.5 104.75 l 1
 250.549804688 150.700195312 l 2
 218.950195312 182.950195312 205.200195312 197.349609375 204.200195312 199.200195312 c 2
 202.75 201.75 l 1
 202.599609375 234.849609375 l 1
 202.450195312 267.950195312 l 1
 184.349609375 268.099609375 l 2
 166.299804688 268.25 166.25 268.25 163.75 269.5 c 0
 160.349609375 271.150390625 157.299804688 274.450195312 156.049804688 277.799804688 c 0
 155 280.5 155 281.349609375 155 322.450195312 c 0
 155 369.25 154.849609375 366.950195312 158.549804688 371.200195312 c 0
 160.799804688 373.75 163.200195312 375.349609375 166.150390625 376.299804688 c 0
811.5 322.25 m 1
 811.5 345 l 1
 499 345 l 1
 186.5 345 l 1
 186.5 322.25 l 1
 186.5 299.5 l 1
 499 299.5 l 1
 811.5 299.5 l 1
 811.5 322.25 l 1
764 240.400390625 m 1
 764 268 l 1
 499 268 l 1
 234 268 l 1
 234 240.400390625 l 1
 234.049804688 212.75 l 1
 257.900390625 188.450195312 l 2
 323.700195312 121.5 324.450195312 120.700195312 325.900390625 117.650390625 c 2
 327.25 114.75 l 1
 327.25 -36.75 l 1
 327.25 -188.25 l 1
 326.099609375 -190.799804688 l 2
 325.450195312 -192.25 323.700195312 -194.549804688 322.099609375 -196.099609375 c 0
 320.549804688 -197.650390625 306.25 -209.950195312 290.349609375 -223.450195312 c 2
 261.450195312 -248 l 1
 499 -248 l 1
 736.5 -248 l 1
 734.650390625 -246.349609375 l 2
 733.599609375 -245.400390625 720.599609375 -234.349609375 705.75 -221.75 c 0
 690.900390625 -209.150390625 677.549804688 -197.700195312 676.099609375 -196.299804688 c 0
 674.650390625 -194.900390625 672.849609375 -192.5 672.099609375 -191 c 2
 670.75 -188.25 l 1
 670.75 -36.75 l 1
 670.75 114.75 l 1
 672.099609375 117.650390625 l 2
 673.549804688 120.700195312 673.400390625 120.549804688 740.150390625 188.5 c 2
 763.950195312 212.75 l 1
 764 240.400390625 l 1
764 -334.5 m 1
 764 -280 l 1
 499 -280 l 1
 234 -280 l 1
 234 -334.5 l 1
 234 -389 l 1
 272.75 -389 l 1
 311.450195312 -389 l 1
 311.599609375 -363.099609375 l 1
 311.75 -337.25 l 1
 313.150390625 -334.400390625 l 2
 314.849609375 -330.900390625 318.200195312 -327.849609375 321.799804688 -326.5 c 0
 324.5 -325.5 325.5 -325.5 374 -325.5 c 0
 422.5 -325.5 423.5 -325.5 426.200195312 -326.5 c 0
 429.799804688 -327.849609375 433.150390625 -330.900390625 434.849609375 -334.400390625 c 2
 436.25 -337.25 l 1
 436.400390625 -363.099609375 l 1
 436.549804688 -389 l 1
 499 -389 l 1
 561.450195312 -389 l 1
 561.599609375 -363.099609375 l 1
 561.75 -337.25 l 1
 563.150390625 -334.400390625 l 2
 564.849609375 -330.900390625 568.200195312 -327.849609375 571.799804688 -326.5 c 0
 574.5 -325.5 575.5 -325.5 624 -325.5 c 0
 672.5 -325.5 673.5 -325.5 676.200195312 -326.5 c 0
 679.799804688 -327.849609375 683.150390625 -330.900390625 684.849609375 -334.400390625 c 2
 686.25 -337.25 l 1
 686.400390625 -363.099609375 l 1
 686.549804688 -389 l 1
 725.25 -389 l 1
 764 -389 l 1
 764 -334.5 l 1
EndSplineSet
EndChar

StartChar: k
Encoding: 107 107 12
Width: 1000
Flags: H
LayerCount: 2
Fore
SplineSet
488.25 448.900390625 m 0
 488.450195312 449.400390625 491.450195312 449.5 502.099609375 449.400390625 c 2
 515.75 449.25 l 1
 516.700195312 428.650390625 l 1
 517.700195312 408 l 1
 519.200195312 407.799804688 l 2
 520.549804688 407.599609375 574 405.950195312 577.650390625 406 c 2
 579 406 l 1
 579 392 l 1
 579 378 l 1
 577.900390625 378 l 2
 574.5 378.049804688 523.25 376.400390625 520.599609375 376.200195312 c 2
 517.5 375.900390625 l 1
 517.599609375 342.599609375 l 1
 517.75 309.25 l 1
 528.299804688 304 l 2
 543.099609375 296.599609375 549 292.849609375 557.650390625 285.299804688 c 0
 562.099609375 281.400390625 568.700195312 273.450195312 573.349609375 266.450195312 c 0
 584.900390625 248.950195312 591.599609375 230.299804688 594.299804688 207.950195312 c 0
 595.450195312 198.799804688 595.400390625 179.950195312 594.299804688 169.25 c 0
 593.400390625 161.099609375 591.150390625 146.900390625 589.799804688 141 c 0
 588.5 135.400390625 586.5 123.349609375 586.5 121.099609375 c 2
 586.5 118.950195312 l 1
 588.049804688 119.849609375 l 2
 590.599609375 121.349609375 598.200195312 127.25 608.75 135.900390625 c 0
 650.700195312 170.299804688 690.75 193.549804688 731.5 207.049804688 c 0
 769.650390625 219.650390625 801.950195312 221.950195312 834 214.200195312 c 0
 863.400390625 207.150390625 883.299804688 196.150390625 903.75 175.75 c 0
 923.299804688 156.299804688 936.450195312 131.799804688 942.150390625 104.200195312 c 0
 944.450195312 93.2001953125 944.75 89.900390625 944.75 76 c 0
 944.700195312 64.650390625 944.549804688 61.7998046875 943.599609375 56.25 c 0
 939.900390625 34.7998046875 932.950195312 16.650390625 920.450195312 -4.099609375 c 0
 912.25 -17.75 903.900390625 -29.7001953125 886.549804688 -52.5 c 0
 856.200195312 -92.400390625 842.150390625 -113.400390625 819.849609375 -152.25 c 2
 813.549804688 -163.25 l 1
 810.549804688 -197.5 l 2
 805.900390625 -250.599609375 805.799804688 -251.549804688 805.799804688 -266.5 c 2
 805.799804688 -280.25 l 1
 809.200195312 -309 l 2
 813.099609375 -341.849609375 813.5 -349.5 811.650390625 -353.549804688 c 0
 809.200195312 -358.900390625 805.849609375 -361.349609375 789.599609375 -369.450195312 c 0
 740.549804688 -393.950195312 685.549804688 -408.549804688 617.75 -415 c 0
 587.950195312 -417.799804688 565.400390625 -418.5 500.5 -418.5 c 0
 436.75 -418.5 414.349609375 -417.900390625 387.349609375 -415.5 c 0
 327.549804688 -410.150390625 273.849609375 -397.099609375 227.5 -376.700195312 c 0
 217.599609375 -372.349609375 201.450195312 -364.150390625 197.599609375 -361.549804688 c 0
 193.650390625 -358.900390625 190.799804688 -355.549804688 189.950195312 -352.650390625 c 0
 188.849609375 -348.799804688 189.200195312 -338.75 190.950195312 -323.75 c 0
 195.650390625 -283.650390625 196.799804688 -269.849609375 196.25 -258 c 0
 195.900390625 -249.849609375 194.650390625 -234.400390625 190.75 -190 c 2
 188.349609375 -163.25 l 1
 179.849609375 -148.5 l 2
 168.299804688 -128.450195312 163.450195312 -120.599609375 152.75 -104.5 c 0
 141.200195312 -87.099609375 134.900390625 -78.2998046875 119.849609375 -58.400390625 c 0
 103.950195312 -37.5 95.0498046875 -25.349609375 89.25 -16.650390625 c 0
 70.349609375 11.4501953125 59.650390625 38.150390625 57.9501953125 61.25 c 0
 57.25 71.150390625 57.7001953125 95 58.7001953125 100.75 c 0
 61.650390625 117.450195312 70.650390625 139.599609375 80.599609375 154.5 c 0
 86.099609375 162.799804688 90.2998046875 167.849609375 98.25 175.75 c 0
 120.049804688 197.549804688 141.549804688 208.799804688 174.599609375 215.75 c 0
 218.200195312 224.950195312 273.650390625 212.299804688 329.25 180.5 c 0
 351.200195312 167.950195312 369.099609375 155.450195312 392.75 136.200195312 c 0
 405.650390625 125.700195312 411.099609375 121.5 413.700195312 119.950195312 c 2
 415.5 118.900390625 l 1
 415.5 120.849609375 l 2
 415.5 123.200195312 414.549804688 128.799804688 412 141.5 c 0
 407.950195312 161.849609375 406.75 172.849609375 406.799804688 189.75 c 0
 406.849609375 208.25 408.700195312 220.5 413.75 235.900390625 c 0
 420.799804688 257.200195312 433.950195312 277.400390625 448.049804688 288.599609375 c 0
 454.599609375 293.75 461.849609375 298.049804688 474.799804688 304.299804688 c 2
 487 310.200195312 l 1
 487 320.700195312 l 2
 486.950195312 338.25 486.150390625 375.549804688 485.799804688 375.900390625 c 0
 485.5 376.150390625 437.200195312 377.900390625 427.400390625 377.950195312 c 2
 423 378 l 1
 423 392 l 1
 423 406 l 1
 425.150390625 406 l 2
 431.950195312 405.950195312 485.099609375 407.75 485.599609375 408.049804688 c 0
 486 408.299804688 486.450195312 414.650390625 487.099609375 428.349609375 c 0
 487.599609375 439.299804688 488.150390625 448.549804688 488.25 448.900390625 c 0
507.799804688 273.450195312 m 0
 501.75 274.549804688 493.349609375 273.849609375 487.200195312 271.75 c 0
 476.049804688 268 465.349609375 259.150390625 457.049804688 246.849609375 c 0
 445.150390625 229.150390625 440.599609375 207.799804688 442.450195312 178.25 c 0
 444.349609375 148.400390625 447.900390625 134.5 471 66.75 c 0
 494.75 -2.7001953125 498.900390625 -14 500.700195312 -14 c 0
 502.450195312 -14 503.900390625 -10.9501953125 508.5 2 c 0
 521.450195312 38.7998046875 544.200195312 105.450195312 547.549804688 116.450195312 c 0
 567.549804688 182.400390625 563.400390625 230.099609375 535.25 258.25 c 0
 532.25 261.299804688 528.400390625 264.700195312 526.75 265.75 c 0
 520.849609375 269.599609375 514.099609375 272.349609375 507.799804688 273.450195312 c 0
217.849609375 182.450195312 m 0
 211.950195312 182.950195312 195 183.049804688 190.25 182.650390625 c 0
 180.900390625 181.849609375 170.25 179.599609375 162 176.75 c 0
 137 168.049804688 113.650390625 146.849609375 102.049804688 122.400390625 c 0
 95.400390625 108.400390625 92.5 94.9501953125 92.5 78.0498046875 c 0
 92.5 58.099609375 95.75 43.400390625 103.700195312 27.150390625 c 0
 110.700195312 12.849609375 119.75 -0.7001953125 140.5 -28 c 0
 168.200195312 -64.5498046875 184.549804688 -88.4501953125 203.400390625 -120 c 0
 212.25 -134.799804688 214 -137.349609375 215.849609375 -138.049804688 c 0
 216.799804688 -138.400390625 222.900390625 -137.200195312 241.400390625 -133.049804688 c 0
 269.75 -126.650390625 285.599609375 -123.5 307.75 -119.75 c 0
 360.5 -110.849609375 409.700195312 -105.75 468.950195312 -103.099609375 c 0
 479.150390625 -102.650390625 479 -102.700195312 479 -97.400390625 c 0
 479 -91.2998046875 475.450195312 -72.150390625 469.450195312 -45.75 c 0
 463.799804688 -20.900390625 460.5 -10.099609375 454.450195312 3.150390625 c 0
 441.549804688 31.2998046875 419.900390625 61 391.75 89.25 c 0
 361 120.150390625 328.5 143.5 291.349609375 161.5 c 0
 266 173.799804688 242.700195312 180.450195312 217.849609375 182.450195312 c 0
813 182.450195312 m 0
 806.400390625 183.099609375 790.599609375 183.049804688 783.25 182.450195312 c 0
 758.150390625 180.299804688 733.349609375 172.950195312 707.349609375 159.950195312 c 0
 670.849609375 141.650390625 640.700195312 119.75 610.450195312 89.5498046875 c 0
 584.349609375 63.400390625 564.400390625 36.849609375 551 10.5 c 0
 542.400390625 -6.5 538.450195312 -18.650390625 531.799804688 -48.5 c 0
 524.349609375 -81.900390625 521 -102.5 523.049804688 -102.5 c 0
 528.299804688 -102.549804688 571 -105.150390625 584 -106.299804688 c 0
 651.200195312 -111.950195312 718.450195312 -122.200195312 764 -133.700195312 c 0
 780.950195312 -137.950195312 783.349609375 -138.349609375 785.200195312 -137.400390625 c 0
 788.099609375 -135.900390625 793.299804688 -128.549804688 804.650390625 -109.900390625 c 0
 822.549804688 -80.5498046875 833.5 -64.849609375 862.549804688 -26.5 c 0
 901 24.2001953125 909.5 43.0498046875 909.5 77.75 c 0
 909.5 100.799804688 903 121.400390625 890.349609375 138.400390625 c 0
 871.049804688 164.400390625 844.450195312 179.549804688 813 182.450195312 c 0
545.75 -139.5 m 0
 529.700195312 -138.799804688 485.349609375 -138.5 469.75 -139 c 0
 393.950195312 -141.450195312 320.849609375 -150.849609375 249 -167.349609375 c 0
 241.150390625 -169.150390625 232.849609375 -171.200195312 230.5 -171.950195312 c 2
 226.25 -173.299804688 l 1
 226.349609375 -182.099609375 l 2
 226.5 -195.25 229.549804688 -232.450195312 231.049804688 -239.5 c 0
 231.349609375 -240.849609375 231.900390625 -242.200195312 232.25 -242.5 c 0
 233.200195312 -243.299804688 235.400390625 -242.799804688 256.450195312 -236.950195312 c 0
 329.450195312 -216.599609375 386.900390625 -207 460 -202.900390625 c 0
 474.650390625 -202.099609375 528.200195312 -202.099609375 542.25 -202.900390625 c 0
 613.349609375 -207.049804688 670.400390625 -216.299804688 736 -234.299804688 c 0
 751.700195312 -238.650390625 762.849609375 -241.299804688 767 -241.799804688 c 2
 769.900390625 -242.099609375 l 1
 770.450195312 -239.450195312 l 2
 772.5 -228.849609375 775.549804688 -194.849609375 775.700195312 -181.25 c 2
 775.75 -173.25 l 1
 770.5 -171.700195312 l 2
 767.599609375 -170.799804688 759.200195312 -168.700195312 751.799804688 -167.049804688 c 0
 684.400390625 -151.700195312 616.950195312 -142.700195312 545.75 -139.5 c 0
534 -238 m 0
 520.549804688 -237.400390625 480.700195312 -237.450195312 467 -238.049804688 c 0
 431 -239.650390625 388 -244.349609375 353.099609375 -250.549804688 c 0
 303.099609375 -259.349609375 247.299804688 -273.549804688 235.150390625 -280.5 c 0
 232.799804688 -281.849609375 232.450195312 -282.299804688 231.75 -284.650390625 c 0
 229.950195312 -291.049804688 227.799804688 -315.799804688 228.950195312 -317.5 c 0
 229.349609375 -318.099609375 232.700195312 -317.150390625 250.349609375 -311.349609375 c 0
 261.849609375 -307.599609375 274.650390625 -303.5 278.75 -302.299804688 c 0
 323.5 -288.950195312 372.950195312 -278.599609375 416.5 -273.549804688 c 0
 440.5 -270.75 452.700195312 -270.299804688 501 -270.299804688 c 0
 560.549804688 -270.299804688 576.549804688 -271.400390625 618.5 -278.299804688 c 0
 662.349609375 -285.5 703 -295.450195312 746.25 -309.5 c 0
 760.349609375 -314.099609375 771.650390625 -317.5 772.849609375 -317.5 c 0
 775.200195312 -317.5 771.299804688 -284.900390625 768.599609375 -281.799804688 c 0
 764 -276.650390625 720.25 -264.549804688 669 -254.299804688 c 0
 624.650390625 -245.450195312 579.349609375 -240 534 -238 c 0
535 -306 m 0
 501.75 -305.049804688 457.5 -305.75 433.5 -307.549804688 c 0
 393.25 -310.549804688 336.900390625 -321.299804688 289 -335.099609375 c 0
 268.650390625 -340.950195312 254.599609375 -346.200195312 253.799804688 -348.299804688 c 0
 253.349609375 -349.450195312 255.049804688 -350.650390625 260.900390625 -353.25 c 0
 290.099609375 -366.150390625 353.900390625 -378.349609375 408.25 -381.5 c 0
 444.049804688 -383.549804688 557.650390625 -383.549804688 591 -381.5 c 0
 627.200195312 -379.25 662.450195312 -374.599609375 691.099609375 -368.200195312 c 0
 715.549804688 -362.799804688 747.150390625 -352.299804688 748.349609375 -349.200195312 c 0
 748.799804688 -348.049804688 747.150390625 -346.900390625 742 -344.700195312 c 0
 724.349609375 -337.25 678.5 -325.099609375 639.25 -317.549804688 c 0
 599.349609375 -309.849609375 574.799804688 -307.099609375 535 -306 c 0
EndSplineSet
EndChar

StartChar: n
Encoding: 110 110 13
Width: 1000
Flags: H
LayerCount: 2
Fore
SplineSet
445.5 439.349609375 m 0
 450.549804688 440.799804688 457.099609375 438.950195312 460.849609375 435.099609375 c 0
 462.450195312 433.400390625 467.049804688 424.150390625 486.049804688 383.950195312 c 0
 498.799804688 356.950195312 509.5 334.799804688 509.799804688 334.650390625 c 0
 510.099609375 334.549804688 513.700195312 334.900390625 517.799804688 335.5 c 0
 542.849609375 338.950195312 570.700195312 339.400390625 594.049804688 336.75 c 0
 727.849609375 321.5 824.700195312 211.650390625 882.400390625 9.75 c 0
 906.099609375 -73.2001953125 923.049804688 -169.25 934.950195312 -288.75 c 0
 939.400390625 -333.299804688 946.150390625 -413.150390625 946.200195312 -421.75 c 0
 946.25 -427.599609375 946.150390625 -428.450195312 945.099609375 -430.349609375 c 0
 943.599609375 -433.200195312 941 -435.700195312 937.849609375 -437.400390625 c 2
 935.25 -438.75 l 1
 819.75 -439.049804688 l 2
 756.25 -439.200195312 614.950195312 -439.450195312 505.75 -439.549804688 c 2
 307.25 -439.75 l 1
 304.950195312 -438.700195312 l 2
 301.799804688 -437.25 298.650390625 -434.299804688 297.200195312 -431.450195312 c 0
 296.549804688 -430.150390625 295.450195312 -426.299804688 294.799804688 -422.900390625 c 0
 286.700195312 -382.799804688 296.650390625 -344.5 326.75 -299.549804688 c 0
 337.650390625 -283.25 348.400390625 -269.400390625 376.25 -235.75 c 0
 400.75 -206.150390625 411.900390625 -192.099609375 422.099609375 -178 c 0
 455.450195312 -131.799804688 473.049804688 -91.5498046875 478.700195312 -48.25 c 0
 479.599609375 -41.5 480.849609375 -22.650390625 480.400390625 -22.25 c 0
 480.25 -22.099609375 477 -23.9501953125 473.200195312 -26.400390625 c 0
 450.700195312 -40.75 425.5 -52.5 394.049804688 -63.2001953125 c 0
 384.450195312 -66.5 379.950195312 -68.2998046875 375.799804688 -70.599609375 c 0
 358.849609375 -79.9501953125 346.599609375 -89.2998046875 331.25 -104.700195312 c 0
 313.5 -122.5 301.799804688 -137.650390625 275.849609375 -176.5 c 0
 268.400390625 -187.650390625 259.849609375 -200.25 256.799804688 -204.450195312 c 0
 237.599609375 -231.5 222.25 -245 205.349609375 -249.75 c 0
 196.349609375 -252.25 191.700195312 -251.950195312 186.650390625 -248.349609375 c 0
 185.049804688 -247.25 182.400390625 -245.799804688 180.75 -245.099609375 c 0
 174.799804688 -242.700195312 168.049804688 -238.900390625 164.700195312 -236.099609375 c 0
 160.349609375 -232.450195312 156.450195312 -226.700195312 154.650390625 -221.299804688 c 0
 153.450195312 -217.700195312 153.299804688 -216.450195312 153.299804688 -210.5 c 2
 153.299804688 -203.700195312 l 1
 149 -204.400390625 l 2
 142.950195312 -205.400390625 128.900390625 -204.900390625 122.400390625 -203.549804688 c 0
 89.099609375 -196.400390625 62.4501953125 -168.900390625 54.9501953125 -134 c 0
 53.9501953125 -129.450195312 53.7998046875 -127.25 53.75 -117.5 c 0
 53.75 -108.900390625 53.9501953125 -105.150390625 54.599609375 -101.5 c 0
 55.099609375 -98.900390625 55.9501953125 -93.7998046875 56.5 -90.2001953125 c 0
 59.849609375 -68.75 68.349609375 -46.349609375 82.849609375 -20.849609375 c 0
 91.5 -5.5498046875 101.200195312 9.0498046875 122.75 39.5 c 0
 144.75 70.4501953125 152.900390625 83.150390625 160 97 c 0
 164.200195312 105.349609375 167.150390625 112.599609375 168.75 118.849609375 c 2
 170 123.650390625 l 1
 168.549804688 128.75 l 2
 165.650390625 138.950195312 164.75 145.549804688 164.75 158 c 0
 164.75 170.549804688 165.349609375 175.400390625 168.25 186.75 c 0
 174.150390625 209.849609375 187.349609375 233.150390625 207.650390625 256.25 c 0
 214.75 264.349609375 226.900390625 276.200195312 234.900390625 282.75 c 2
 240.950195312 287.75 l 1
 241 295.75 l 2
 241 305.799804688 242.400390625 406.700195312 242.650390625 414.5 c 0
 242.799804688 418.950195312 243.049804688 420.75 243.849609375 422.549804688 c 0
 245.25 425.700195312 248.150390625 428.799804688 251.200195312 430.400390625 c 0
 253.400390625 431.549804688 254.349609375 431.75 258.25 431.75 c 0
 262.150390625 431.75 263.099609375 431.549804688 265.299804688 430.400390625 c 0
 266.700195312 429.650390625 292.849609375 415 323.5 397.75 c 0
 354.099609375 380.549804688 379.400390625 366.549804688 379.75 366.700195312 c 0
 380.099609375 366.799804688 393.650390625 382.549804688 409.900390625 401.650390625 c 0
 428 422.900390625 440.150390625 436.799804688 441.299804688 437.549804688 c 0
 442.349609375 438.200195312 444.200195312 439 445.5 439.349609375 c 0
466.75 351.650390625 m 0
 455.549804688 375.349609375 446.25 394.900390625 446.049804688 395.150390625 c 0
 445.849609375 395.349609375 433.950195312 381.75 419.650390625 364.900390625 c 0
 397.900390625 339.299804688 393.150390625 334 390.900390625 332.650390625 c 0
 389.450195312 331.799804688 369.700195312 321.349609375 347 309.5 c 0
 324.299804688 297.599609375 297.849609375 283.75 288.25 278.700195312 c 0
 278.599609375 273.650390625 269.950195312 269.25 269 268.950195312 c 0
 267 268.299804688 259.650390625 262.950195312 254.049804688 258.049804688 c 0
 232.450195312 239.400390625 216.349609375 219.700195312 206.549804688 200 c 0
 194.799804688 176.299804688 192.700195312 155.450195312 199.849609375 133.25 c 0
 201.5 128.150390625 201.599609375 127.450195312 201.299804688 123.5 c 0
 200.75 115.700195312 197 102.700195312 192.200195312 91.849609375 c 0
 185.049804688 75.650390625 174.549804688 58.599609375 153.25 28.5 c 0
 147.5 20.400390625 139.900390625 9.599609375 136.299804688 4.5 c 0
 104.950195312 -40.099609375 90.599609375 -70 86.7001953125 -99 c 0
 86.2998046875 -101.900390625 85.650390625 -106.25 85.25 -108.75 c 0
 80.599609375 -136.849609375 100.450195312 -166.5 128.25 -172.799804688 c 0
 133.950195312 -174.099609375 143.349609375 -174 149.049804688 -172.599609375 c 0
 155.150390625 -171.099609375 161.599609375 -168.200195312 167.599609375 -164.25 c 0
 171.599609375 -161.599609375 174.650390625 -158.900390625 181.25 -152.25 c 0
 188.849609375 -144.549804688 190.099609375 -143.549804688 192.75 -142.549804688 c 0
 198.349609375 -140.400390625 204.799804688 -141.799804688 209.049804688 -146.049804688 c 0
 212.049804688 -149.049804688 213.150390625 -151.650390625 213.400390625 -156.299804688 c 0
 213.700195312 -161.799804688 212.75 -163.700195312 205.299804688 -173.200195312 c 0
 192.849609375 -189 184.5 -203.799804688 184.5 -210.049804688 c 0
 184.5 -212.450195312 185.299804688 -213.049804688 193.200195312 -216.400390625 c 2
 199.099609375 -218.950195312 l 1
 201.200195312 -217.900390625 l 2
 209.349609375 -213.799804688 220.400390625 -202.049804688 233.099609375 -184 c 0
 234.349609375 -182.200195312 241.75 -171.200195312 249.599609375 -159.5 c 0
 257.400390625 -147.799804688 265.799804688 -135.450195312 268.25 -132 c 0
 294.599609375 -94.7998046875 319.450195312 -69.349609375 346.5 -51.75 c 0
 358.900390625 -43.7001953125 369.150390625 -38.4501953125 377.700195312 -35.75 c 0
 397.450195312 -29.650390625 421.650390625 -19.5498046875 438.75 -10.349609375 c 0
 492.549804688 18.5 523.799804688 57.150390625 529.25 101.5 c 0
 529.700195312 105.299804688 530 111.900390625 530 118.549804688 c 2
 530 129.349609375 l 1
 531.549804688 132.400390625 l 2
 537.25 143.799804688 553.549804688 143.799804688 559.299804688 132.400390625 c 0
 562.5 126.099609375 561.950195312 103.150390625 558.200195312 85.349609375 c 0
 552.299804688 57.400390625 537.599609375 30.5498046875 515.950195312 8.25 c 2
 510.599609375 2.75 l 1
 511.099609375 -3 l 2
 511.849609375 -12.2998046875 511.25 -39.75 510.049804688 -49.5 c 0
 504.25 -96.650390625 486.799804688 -139.549804688 454.349609375 -186.5 c 0
 441.900390625 -204.5 428.549804688 -221.599609375 400.450195312 -255.5 c 0
 372.049804688 -289.799804688 363.349609375 -301.049804688 352.700195312 -317 c 0
 339.650390625 -336.650390625 332.200195312 -351.650390625 327.599609375 -367.849609375 c 0
 324.349609375 -379.200195312 323.75 -383.650390625 323.75 -396.599609375 c 0
 323.75 -402.799804688 323.900390625 -408.049804688 324.099609375 -408.25 c 0
 324.549804688 -408.700195312 913.299804688 -407.849609375 913.700195312 -407.450195312 c 0
 914.25 -406.950195312 907.349609375 -326.400390625 903.700195312 -290.25 c 0
 891.349609375 -167.299804688 873.75 -70.0498046875 848.799804688 13.400390625 c 0
 825.599609375 90.75 796.5 153.049804688 761.400390625 200.25 c 0
 715.700195312 261.700195312 659.75 296.849609375 594.25 305.200195312 c 0
 568.400390625 308.5 538.700195312 307.650390625 510.349609375 302.75 c 0
 500.349609375 301.049804688 497.5 301.099609375 493.599609375 303.049804688 c 0
 491.900390625 303.900390625 489.75 305.450195312 488.799804688 306.549804688 c 0
 487.700195312 307.849609375 480.049804688 323.5 466.75 351.650390625 c 0
314 367.25 m 0
 294.049804688 378.450195312 276.849609375 388.150390625 275.700195312 388.799804688 c 2
 273.650390625 390 l 1
 273.349609375 374.400390625 l 2
 272.700195312 343.849609375 272.349609375 306 272.700195312 306 c 0
 273.150390625 306 350.549804688 346.599609375 350.400390625 346.75 c 0
 350.299804688 346.799804688 333.950195312 356.049804688 314 367.25 c 0
265.25 204.400390625 m 0
 267.75 205.299804688 272.049804688 205.099609375 273.799804688 204.049804688 c 0
 277.599609375 201.75 279.5 197.200195312 279.900390625 189.650390625 c 0
 280.950195312 167.700195312 264.25 137.349609375 249.25 133.950195312 c 0
 245.650390625 133.150390625 243.150390625 133.950195312 240.599609375 136.700195312 c 0
 237.549804688 140 236.75 143.150390625 236.799804688 151.75 c 0
 236.799804688 159.650390625 238 165.650390625 241.150390625 173.849609375 c 0
 246.900390625 188.700195312 256.900390625 201.349609375 265.25 204.400390625 c 0
141.549804688 -88.2998046875 m 0
 145.75 -87.150390625 148.75 -88.0498046875 151.400390625 -91.2998046875 c 0
 156.099609375 -97 156.150390625 -110.549804688 151.5 -124.549804688 c 0
 145.650390625 -142.25 134.400390625 -156.5 124.349609375 -159.049804688 c 0
 120.900390625 -159.900390625 118.099609375 -159 115.549804688 -156.25 c 0
 113 -153.450195312 111.950195312 -150.099609375 111.650390625 -143.5 c 0
 110.599609375 -122 126.700195312 -92.2998046875 141.549804688 -88.2998046875 c 0
EndSplineSet
EndChar

StartChar: l
Encoding: 108 108 14
Width: 1000
Flags: H
LayerCount: 2
Fore
SplineSet
483.299804688 477.400390625 m 0
 483.450195312 477.849609375 486.950195312 478 498.75 478 c 0
 510.549804688 478 514.099609375 477.849609375 514.25 477.400390625 c 0
 514.349609375 477.049804688 514.950195312 466.5 515.549804688 454 c 0
 516.099609375 441.5 516.650390625 431.200195312 516.700195312 431.200195312 c 0
 516.75 431.099609375 582.650390625 429 584.400390625 429 c 2
 585.5 429 l 1
 585.5 413.5 l 1
 585.5 398 l 1
 584.400390625 397.799804688 l 2
 583.75 397.650390625 570.900390625 397.200195312 555.75 396.799804688 c 0
 540.650390625 396.349609375 525.650390625 395.849609375 522.450195312 395.700195312 c 2
 516.650390625 395.400390625 l 1
 516.299804688 373.299804688 l 2
 516.150390625 361.200195312 515.849609375 341.599609375 515.700195312 329.75 c 2
 515.349609375 308.25 l 1
 522.150390625 305.099609375 l 2
 535.549804688 298.799804688 542.549804688 293.950195312 552.5 284 c 0
 560.049804688 276.5 564.75 270.650390625 570.299804688 261.900390625 c 0
 578.75 248.549804688 586.099609375 230.650390625 588.299804688 218 c 0
 589.400390625 211.799804688 589.900390625 173.700195312 589.049804688 162.299804688 c 0
 587.450195312 141.549804688 584.099609375 126.400390625 573.150390625 91.5 c 0
 567.75 74.2001953125 563.400390625 59.150390625 562.799804688 55.900390625 c 0
 562.599609375 54.7001953125 562.650390625 54 562.950195312 54 c 0
 564 54 570.799804688 60.900390625 578.299804688 69.5498046875 c 0
 597.200195312 91.349609375 613.099609375 106.900390625 633.549804688 123.549804688 c 0
 690.25 169.900390625 757.5 201.150390625 812.5 206.75 c 0
 822.400390625 207.799804688 841.849609375 207.549804688 851 206.299804688 c 0
 869.599609375 203.75 885.25 198.950195312 901.5 190.900390625 c 0
 930.700195312 176.450195312 952.900390625 154.349609375 967.400390625 125.25 c 0
 985.5 89.0498046875 988.900390625 54.150390625 977.950195312 18.25 c 0
 973 2.099609375 962.25 -19.75 950.849609375 -36.75 c 0
 945.5 -44.75 935.650390625 -58.349609375 922 -76.5 c 0
 886.799804688 -123.400390625 871.049804688 -146.950195312 847.75 -187.5 c 0
 840.950195312 -199.349609375 836.75 -206.150390625 833.849609375 -209.950195312 c 0
 832.75 -211.450195312 831.400390625 -214 830.900390625 -215.700195312 c 0
 828.950195312 -221.950195312 827.049804688 -237.299804688 823.799804688 -273 c 0
 820.700195312 -306.650390625 820.349609375 -312.700195312 820.650390625 -329.25 c 0
 820.900390625 -345.099609375 821 -346.099609375 825 -379.25 c 0
 828.549804688 -408.950195312 828.599609375 -409.599609375 828.400390625 -414 c 0
 828.299804688 -417.150390625 828.049804688 -418.200195312 827.25 -418.950195312 c 0
 825.950195312 -420.200195312 803.75 -431.299804688 792.75 -436.150390625 c 0
 732.150390625 -462.950195312 672.349609375 -473.700195312 561.75 -477.599609375 c 0
 538.700195312 -478.400390625 452.599609375 -478.400390625 431 -477.599609375 c 0
 311 -473.049804688 251.650390625 -460.900390625 182.599609375 -426.650390625 c 0
 173.099609375 -421.950195312 168.700195312 -419.5 168.150390625 -418.650390625 c 0
 166.25 -415.799804688 166.450195312 -412.950195312 170.75 -377 c 0
 174.799804688 -343.349609375 175.150390625 -337.950195312 174.849609375 -320.5 c 0
 174.549804688 -305.75 173.799804688 -295.200195312 170.5 -260.5 c 0
 167.950195312 -234.049804688 166.049804688 -220.049804688 164.400390625 -215.25 c 0
 164 -214.150390625 161.549804688 -210 158.900390625 -206 c 0
 156.25 -202 150.75 -192.900390625 146.650390625 -185.75 c 0
 123.900390625 -146.25 109.700195312 -125.049804688 74.5 -78 c 0
 51.2998046875 -46.9501953125 42 -33.599609375 34.900390625 -21 c 0
 6.25 29.650390625 3.650390625 73.7001953125 26.4501953125 122.150390625 c 0
 48.150390625 168.400390625 90.7998046875 198.849609375 144.299804688 206.299804688 c 0
 153.349609375 207.549804688 173.349609375 207.799804688 183 206.799804688 c 0
 229.400390625 201.950195312 286 178.450195312 336.25 143.049804688 c 0
 365.549804688 122.450195312 390.700195312 99.75 415.049804688 72 c 0
 425.299804688 60.2998046875 431.400390625 54 432.450195312 54 c 0
 432.799804688 54 432.900390625 54.5 432.700195312 55.400390625 c 0
 430.75 63.900390625 428.650390625 71.099609375 419.5 100.5 c 0
 413.049804688 121.299804688 409.349609375 136.849609375 407.5 151.049804688 c 0
 405.549804688 166.450195312 405.049804688 197 406.549804688 213 c 0
 407.400390625 222.349609375 410.150390625 231.700195312 415.599609375 244 c 0
 423.799804688 262.5 435.650390625 278.650390625 449.75 290.400390625 c 0
 456.099609375 295.75 461.799804688 299.349609375 472.099609375 304.549804688 c 2
 481 309.099609375 l 1
 481 352.25 l 1
 481 395.349609375 l 1
 475.650390625 395.700195312 l 2
 472.650390625 395.849609375 457.200195312 396.349609375 441.25 396.799804688 c 0
 425.299804688 397.200195312 411.75 397.650390625 411.150390625 397.799804688 c 2
 410 398 l 1
 410 413.5 l 1
 410 429 l 1
 412.150390625 429 l 2
 416.099609375 429 480.75 431.099609375 480.900390625 431.25 c 0
 481 431.299804688 481.5 441.599609375 482.099609375 454.049804688 c 0
 482.650390625 466.549804688 483.200195312 477.049804688 483.299804688 477.400390625 c 0
511.599609375 292.200195312 m 0
 502.5 293.700195312 487.700195312 293.349609375 480.25 291.5 c 0
 475.150390625 290.25 471.049804688 288.5 466.900390625 285.799804688 c 0
 459.900390625 281.349609375 448.549804688 270.5 442.950195312 263 c 0
 432.25 248.650390625 425.150390625 230.5 421.950195312 209.25 c 0
 420.650390625 200.400390625 420.099609375 178.650390625 420.950195312 168.25 c 0
 422.150390625 153.5 425.299804688 135.400390625 428.799804688 123.400390625 c 0
 439.049804688 87.849609375 489.799804688 -65.150390625 496.5 -80.75 c 2
 497.599609375 -83.25 l 1
 498.25 -82 l 2
 500.200195312 -78.25 516.599609375 -30.7001953125 536.799804688 29.75 c 0
 563.849609375 110.950195312 569.900390625 132.099609375 573 156.25 c 0
 579.5 207.349609375 570.299804688 245.349609375 545 271.650390625 c 0
 532.799804688 284.400390625 523.150390625 290.349609375 511.599609375 292.200195312 c 0
182.700195312 190.5 m 0
 163.5 191.349609375 140.900390625 190.799804688 132.75 189.299804688 c 0
 121.049804688 187.099609375 105.150390625 181.25 93.7998046875 174.900390625 c 0
 59.349609375 155.650390625 35.349609375 121.650390625 28.75 82.75 c 0
 23.7001953125 53.0498046875 27.900390625 24.7998046875 41.4501953125 -3.25 c 0
 49.25 -19.400390625 57.900390625 -32.2001953125 88.5 -73 c 0
 120.25 -115.349609375 135.049804688 -137.549804688 160.599609375 -181.5 c 0
 173.349609375 -203.450195312 178.700195312 -211.299804688 184.950195312 -217.450195312 c 0
 189.099609375 -221.549804688 192.299804688 -223.25 195.75 -223.099609375 c 0
 198.75 -223.049804688 207.400390625 -220.950195312 229.25 -214.950195312 c 0
 277.150390625 -201.799804688 322.849609375 -192.849609375 377 -186.049804688 c 0
 410.25 -181.849609375 432 -180.650390625 483.75 -180.150390625 c 0
 541.299804688 -179.650390625 580.599609375 -181.299804688 616.299804688 -185.75 c 0
 671.400390625 -192.599609375 720.700195312 -202.25 768.25 -215.5 c 0
 785.049804688 -220.200195312 797 -223.099609375 799.75 -223.150390625 c 0
 805.900390625 -223.299804688 812.950195312 -216.599609375 823.150390625 -200.950195312 c 0
 825.200195312 -197.799804688 830.650390625 -188.700195312 835.25 -180.75 c 0
 852.299804688 -151.349609375 864.849609375 -131.5 880.400390625 -109.25 c 0
 887.900390625 -98.5 888.75 -97.400390625 909.5 -69.5 c 0
 938.849609375 -30.2001953125 945.799804688 -19.849609375 953.5 -4.25 c 0
 960.349609375 9.7001953125 964.700195312 22.900390625 967 37.2001953125 c 0
 976.400390625 94.5498046875 948.400390625 151.049804688 897.849609375 176.799804688 c 0
 886.700195312 182.450195312 874.450195312 186.900390625 864 189.049804688 c 0
 856.349609375 190.599609375 835.049804688 191.299804688 816.700195312 190.599609375 c 0
 797.150390625 189.849609375 790.5 188.799804688 772.099609375 183.5 c 0
 726.200195312 170.25 680.25 144.5 638.25 108.5 c 0
 596.200195312 72.400390625 563.700195312 32.349609375 543 -8.9501953125 c 0
 532.349609375 -30.25 527.299804688 -47.0498046875 517.75 -92.75 c 0
 515.849609375 -101.799804688 515.349609375 -105.75 514 -121 c 0
 513.150390625 -130.75 512.349609375 -139.049804688 512.25 -139.400390625 c 0
 512.049804688 -139.900390625 509.049804688 -140 498.400390625 -139.900390625 c 2
 484.75 -139.75 l 1
 482.400390625 -122 l 2
 478.150390625 -90.349609375 468.900390625 -49.5498046875 461.400390625 -29.5498046875 c 0
 446.799804688 9.5498046875 415.099609375 54.4501953125 376 91.4501953125 c 0
 323.75 140.849609375 268.799804688 172.700195312 211.5 186.700195312 c 0
 202.5 188.900390625 194.150390625 190 182.700195312 190.5 c 0
550.5 -258.950195312 m 0
 542.349609375 -258.450195312 474 -257.950195312 466.25 -258.299804688 c 0
 464.349609375 -258.400390625 457.450195312 -258.700195312 451 -259 c 0
 381.099609375 -262.200195312 320.049804688 -273.599609375 246 -297.349609375 c 0
 207.75 -309.599609375 194.25 -316.549804688 191.700195312 -325.400390625 c 0
 190.200195312 -330.450195312 191.650390625 -334.549804688 196.849609375 -340.049804688 c 0
 200.849609375 -344.25 203.650390625 -345.75 206.849609375 -345.299804688 c 0
 209 -345 219.849609375 -341.450195312 246.25 -332.25 c 0
 290.900390625 -316.799804688 341 -304.75 392.75 -297 c 0
 411.799804688 -294.200195312 426.5 -292.900390625 450.75 -292.049804688 c 0
 505.099609375 -290.049804688 562.049804688 -291.549804688 594 -295.799804688 c 0
 646.049804688 -302.75 703.150390625 -316.200195312 750 -332.5 c 0
 774.5 -341.049804688 780.5 -343 784.75 -343.75 c 0
 793.900390625 -345.450195312 798.200195312 -343.450195312 802.25 -335.5 c 0
 804.200195312 -331.799804688 804.299804688 -326.549804688 802.549804688 -322.650390625 c 0
 801.200195312 -319.549804688 797.200195312 -315.650390625 793.650390625 -313.849609375 c 0
 784.25 -309.049804688 755.299804688 -299.099609375 723 -289.549804688 c 0
 692.799804688 -280.599609375 659.349609375 -272.849609375 628 -267.549804688 c 0
 601.900390625 -263.099609375 581.599609375 -260.849609375 550.5 -258.950195312 c 0
548.25 -342.950195312 m 0
 539.150390625 -342.450195312 479.099609375 -341.950195312 469.75 -342.299804688 c 0
 445.700195312 -343.200195312 427.950195312 -344.299804688 410.75 -346 c 0
 354.150390625 -351.700195312 303.549804688 -362.75 241.5 -383.099609375 c 0
 216.950195312 -391.099609375 203.349609375 -396.849609375 197.25 -401.849609375 c 0
 191.450195312 -406.549804688 189.75 -412.799804688 192.700195312 -418.450195312 c 0
 194.400390625 -421.75 198.950195312 -426.650390625 201.900390625 -428.349609375 c 0
 205.599609375 -430.549804688 205.799804688 -430.5 247.5 -416 c 0
 291.5 -400.75 345.549804688 -387.950195312 397.25 -380.549804688 c 0
 422.950195312 -376.900390625 450.349609375 -375.5 497.75 -375.5 c 0
 555.450195312 -375.5 579.349609375 -377.150390625 619 -383.75 c 0
 669.349609375 -392.150390625 714.299804688 -403.799804688 762.75 -421.099609375 c 0
 786.549804688 -429.549804688 792.900390625 -430.349609375 798.25 -425.450195312 c 0
 803.099609375 -421 805.099609375 -414.150390625 803.200195312 -408.25 c 0
 802.099609375 -404.599609375 798.200195312 -400.299804688 794.150390625 -398.099609375 c 0
 780.849609375 -391.049804688 719.849609375 -371.650390625 684.599609375 -363.25 c 0
 633.200195312 -351.049804688 596.799804688 -345.650390625 548.25 -342.950195312 c 0
485.099609375 265.75 m 0
 488.950195312 266.549804688 502.849609375 266.700195312 508.349609375 265.950195312 c 0
 515 265.099609375 522.450195312 260.900390625 529.700195312 254.049804688 c 0
 557 228.049804688 559.650390625 172.150390625 537.450195312 91 c 0
 525.75 48.400390625 501.599609375 -23.0498046875 498.099609375 -25.2001953125 c 0
 497.299804688 -25.7001953125 496.299804688 -23.900390625 493.200195312 -16.4501953125 c 0
 487.849609375 -3.5 477.150390625 27.4501953125 469 53.5 c 0
 454.150390625 101 446.349609375 135.599609375 443.5 166.25 c 0
 442.849609375 173.400390625 442.849609375 194.650390625 443.5 200.900390625 c 0
 444.25 207.950195312 446.299804688 217.900390625 448.299804688 223.950195312 c 0
 450.450195312 230.549804688 456.200195312 242.200195312 459.450195312 246.5 c 0
 466.849609375 256.349609375 477.099609375 264 485.099609375 265.75 c 0
819 173.5 m 0
 827.150390625 174.049804688 843.099609375 173.700195312 850.299804688 172.75 c 0
 869.349609375 170.25 889.299804688 161.799804688 904 149.950195312 c 0
 909.950195312 145.150390625 919.349609375 135.450195312 923.099609375 130.200195312 c 0
 940.5 105.799804688 947.75 69.75 941.950195312 36.5 c 0
 936.349609375 4.400390625 924.299804688 -17.150390625 874 -85 c 0
 853.799804688 -112.200195312 839.900390625 -132.349609375 824.299804688 -156.950195312 c 0
 814.049804688 -173.099609375 809.450195312 -179.349609375 806.349609375 -181.400390625 c 0
 803.599609375 -183.25 799.200195312 -183.200195312 794.299804688 -181.299804688 c 0
 790.5 -179.799804688 773.900390625 -175.049804688 758.700195312 -171.049804688 c 0
 695.700195312 -154.549804688 639.299804688 -145.75 574.25 -142.25 c 0
 567.700195312 -141.900390625 531.099609375 -140.5 528.299804688 -140.5 c 2
 526.349609375 -140.5 l 1
 526.650390625 -130.099609375 l 2
 527.150390625 -114.5 529.400390625 -100.900390625 534.700195312 -81.9501953125 c 0
 546.150390625 -41.150390625 561.450195312 -9.7998046875 585.450195312 22.150390625 c 0
 622.099609375 70.900390625 680.549804688 119.5 736.75 148 c 0
 765.849609375 162.75 794.900390625 171.799804688 819 173.5 c 0
150 173.200195312 m 0
 150.700195312 173.299804688 158.549804688 173.349609375 167.5 173.299804688 c 0
 182.549804688 173.150390625 184.299804688 173.049804688 190.799804688 171.849609375 c 0
 232.799804688 164.049804688 280.75 140.299804688 328 103.799804688 c 0
 365 75.25 398.849609375 39.7998046875 421.349609375 6 c 0
 437.849609375 -18.75 450.700195312 -47.0498046875 459.799804688 -78.650390625 c 0
 465.150390625 -97.400390625 467.599609375 -110.549804688 468.75 -126.950195312 c 0
 469.150390625 -132.900390625 469.599609375 -138.450195312 469.75 -139.299804688 c 2
 470 -140.849609375 l 1
 447.900390625 -141.150390625 l 2
 406.650390625 -141.700195312 370.150390625 -145.150390625 323.5 -152.75 c 0
 287.650390625 -158.650390625 260.700195312 -164.549804688 225 -174.349609375 c 0
 196 -182.25 192.25 -183.150390625 190.25 -182.5 c 0
 187 -181.450195312 183.400390625 -176.650390625 170.75 -156.5 c 0
 155.150390625 -131.75 141.599609375 -112.099609375 119.25 -82 c 0
 85.7001953125 -36.7998046875 77.599609375 -24.7998046875 69.2001953125 -8 c 0
 55.5 19.4501953125 50.349609375 41.849609375 51.599609375 69 c 0
 53 100.049804688 67.0498046875 129.349609375 89.7001953125 148.349609375 c 0
 104.549804688 160.849609375 125.549804688 170.099609375 144.25 172.450195312 c 0
 146.75 172.75 149.299804688 173.099609375 150 173.200195312 c 0
EndSplineSet
EndChar

StartChar: m
Encoding: 109 109 15
Width: 1000
Flags: H
LayerCount: 2
Fore
SplineSet
442.700195312 466.599609375 m 0
 443.799804688 467.400390625 444.900390625 467.950195312 445.200195312 467.849609375 c 0
 447.650390625 467.049804688 458.599609375 444.900390625 482.299804688 392.75 c 2
 499.349609375 355.25 l 1
 504.049804688 355.299804688 l 2
 506.650390625 355.349609375 513.900390625 355.650390625 520.150390625 355.950195312 c 0
 543.599609375 357.099609375 579.400390625 356.5 598 354.700195312 c 0
 617.799804688 352.799804688 647.200195312 344.549804688 671.150390625 334.200195312 c 0
 700.950195312 321.25 727.200195312 304.5 752.5 282.150390625 c 0
 760.75 274.900390625 779.700195312 255.549804688 787.349609375 246.650390625 c 0
 811.200195312 218.900390625 829.099609375 191.549804688 846.700195312 156.049804688 c 0
 900.599609375 47.2998046875 946.650390625 -143.400390625 962.700195312 -324.25 c 0
 966.099609375 -362.150390625 968 -406.25 968 -447.099609375 c 2
 968 -465.950195312 l 1
 965.900390625 -466.200195312 l 2
 964.700195312 -466.400390625 819.200195312 -466.549804688 642.5 -466.650390625 c 0
 316.200195312 -466.75 305.549804688 -466.700195312 296.450195312 -465 c 0
 294.950195312 -464.700195312 293.5 -464.150390625 293.150390625 -463.700195312 c 0
 292.099609375 -462.25 291.75 -455.349609375 291.75 -434 c 0
 291.75 -406.950195312 292.450195312 -402.049804688 298.900390625 -383 c 0
 305.450195312 -363.599609375 313.450195312 -349.099609375 326.549804688 -332.75 c 0
 338.299804688 -318.049804688 348.950195312 -306.650390625 383 -272.25 c 0
 407.900390625 -247.099609375 417.200195312 -237.400390625 425.049804688 -228.5 c 0
 441.099609375 -210.200195312 449.900390625 -197.299804688 460.75 -176.299804688 c 0
 482.299804688 -134.599609375 492.200195312 -96.0498046875 493.299804688 -49.5 c 0
 493.900390625 -25.75 491.549804688 1.400390625 488.450195312 6.5 c 0
 487.650390625 7.7998046875 487.299804688 7.9501953125 486.150390625 7.7001953125 c 0
 483.950195312 7.2001953125 478.950195312 4.349609375 473.900390625 0.7001953125 c 0
 454.400390625 -13.4501953125 424.900390625 -30.849609375 381.5 -53.900390625 c 0
 323.950195312 -84.400390625 304.700195312 -96.7001953125 287.25 -114.200195312 c 0
 273.099609375 -128.400390625 264.25 -141.650390625 246.200195312 -175.599609375 c 0
 225.900390625 -213.75 220.099609375 -222.849609375 208.75 -234.299804688 c 0
 199.950195312 -243.200195312 191.150390625 -249.200195312 182.299804688 -252.450195312 c 0
 176.200195312 -254.650390625 172.799804688 -255.150390625 166.400390625 -254.900390625 c 0
 160 -254.599609375 157 -253.700195312 152.049804688 -250.5 c 0
 144.700195312 -245.75 140.849609375 -239.150390625 139 -228.150390625 c 0
 138.349609375 -224.049804688 137.25 -222.299804688 134.849609375 -221.549804688 c 0
 134 -221.299804688 129.900390625 -220.799804688 125.75 -220.5 c 0
 101.75 -218.700195312 82.150390625 -212.099609375 65.349609375 -200.150390625 c 0
 59.7998046875 -196.25 49.5 -185.799804688 45.400390625 -180 c 0
 37.7998046875 -169.25 31.400390625 -154.099609375 29.25 -141.549804688 c 0
 24.5 -114.450195312 31.599609375 -78 48.25 -43.75 c 0
 53.849609375 -32.2001953125 64.4501953125 -15 89.099609375 22.75 c 0
 126.099609375 79.400390625 134.349609375 94.5 144 122.799804688 c 0
 150.599609375 142.200195312 150.450195312 141.25 151 179.5 c 0
 151.5 217.650390625 152.049804688 222.549804688 156.700195312 232 c 0
 160.799804688 240.349609375 165.349609375 245.650390625 189.799804688 270.5 c 0
 200.799804688 281.650390625 212.099609375 293.549804688 215 296.950195312 c 0
 228 312.150390625 234.900390625 323.150390625 237 332 c 0
 238.049804688 336.450195312 237.5 346.150390625 232.5 408.5 c 0
 229.599609375 444.599609375 228.75 457.900390625 229.200195312 460.650390625 c 0
 229.549804688 462.849609375 230.25 464 231.200195312 464 c 0
 232.599609375 464 250.700195312 453.5 294.549804688 427.200195312 c 0
 325.950195312 408.400390625 349.700195312 394.549804688 357.599609375 390.5 c 2
 362.900390625 387.75 l 1
 365.299804688 389.650390625 l 2
 370 393.299804688 382.299804688 405.349609375 395.950195312 419.75 c 0
 423.950195312 449.099609375 437.799804688 463.049804688 442.700195312 466.599609375 c 0
582.75 343.5 m 0
 576.5 344.049804688 552 344.5 546.75 344.200195312 c 0
 513.599609375 342.25 493.950195312 338.099609375 489 332.099609375 c 0
 482.599609375 324.349609375 485.299804688 312.200195312 494.5 307.5 c 0
 497.549804688 305.950195312 500.450195312 305.799804688 508.75 306.950195312 c 0
 539.700195312 311.150390625 548.5 311.799804688 566.75 311.349609375 c 0
 579.549804688 311 586.900390625 310.450195312 595.75 309.200195312 c 0
 645.549804688 302.200195312 690.349609375 281.200195312 729.900390625 246.299804688 c 0
 737.700195312 239.400390625 751.549804688 225.200195312 757.950195312 217.5 c 0
 812.549804688 152 851.25 47.599609375 885.950195312 -128 c 0
 902.700195312 -212.849609375 913.400390625 -293.799804688 919.75 -383.5 c 0
 922.650390625 -424.900390625 923.049804688 -430 923.799804688 -435 c 0
 925.099609375 -443.700195312 927.799804688 -448.150390625 933.400390625 -450.650390625 c 0
 936.700195312 -452.099609375 941.599609375 -452 945.099609375 -450.400390625 c 0
 948.549804688 -448.799804688 953.150390625 -444.549804688 954.599609375 -441.599609375 c 0
 955.650390625 -439.400390625 955.75 -438.700195312 955.650390625 -431 c 0
 955.549804688 -418 952.799804688 -378.400390625 949.200195312 -337.75 c 0
 941.200195312 -246.75 928.25 -163.450195312 907.799804688 -71 c 0
 885.849609375 28.2001953125 863.950195312 96.599609375 835.549804688 154.75 c 0
 817.5 191.650390625 800.700195312 217.599609375 778.5 242.75 c 0
 724.849609375 303.549804688 660.349609375 336.799804688 582.75 343.5 c 0
285.25 224 m 0
 274.299804688 227.400390625 260.549804688 224.400390625 250.049804688 216.25 c 0
 243.349609375 211.099609375 239.200195312 205.549804688 225.150390625 183 c 0
 209.650390625 158.099609375 198.5 138.650390625 198.5 136.599609375 c 0
 198.5 133.25 207.150390625 135.75 222.849609375 143.700195312 c 0
 232.099609375 148.349609375 241.049804688 154.049804688 247.25 159.25 c 0
 256.349609375 166.799804688 267.599609375 178.75 275.599609375 189.299804688 c 0
 283.849609375 200.200195312 291.5 213.049804688 292.299804688 217.349609375 c 0
 292.799804688 219.799804688 289.849609375 222.549804688 285.25 224 c 0
100.25 -77.75 m 0
 85.349609375 -73.900390625 71.849609375 -86.150390625 66 -108.799804688 c 0
 63.7001953125 -117.650390625 62.900390625 -124.950195312 62.7998046875 -137 c 0
 62.75 -146.549804688 62.849609375 -147.950195312 63.650390625 -149.150390625 c 0
 64.2001953125 -150 64.9501953125 -150.5 65.7001953125 -150.5 c 0
 68.7998046875 -150.5 98.849609375 -129.75 107.599609375 -121.549804688 c 0
 116.700195312 -113.049804688 120.349609375 -105.5 119 -98.099609375 c 0
 117.150390625 -88.5498046875 109.450195312 -80.150390625 100.25 -77.75 c 0
EndSplineSet
EndChar

StartChar: o
Encoding: 111 111 16
Width: 1000
Flags: H
LayerCount: 2
Fore
SplineSet
478.5 374.450195312 m 0
 485.799804688 375.200195312 502.150390625 374.700195312 509.5 373.549804688 c 0
 522.400390625 371.5 532.549804688 368.25 544.75 362.299804688 c 0
 583.200195312 343.5 609.650390625 305.599609375 614.75 262 c 0
 615.599609375 254.849609375 615.75 239.349609375 615 232.75 c 0
 612.549804688 211.049804688 605.650390625 191.549804688 594.099609375 174.099609375 c 0
 592.599609375 171.799804688 591.599609375 169.75 591.799804688 169.549804688 c 0
 592.049804688 169.349609375 594.349609375 167.400390625 596.900390625 165.299804688 c 0
 603 160.150390625 612.150390625 151.049804688 617.799804688 144.450195312 c 0
 644.700195312 113.049804688 661.349609375 75.349609375 666.349609375 34.4501953125 c 0
 667.400390625 25.650390625 667.549804688 2.9501953125 666.549804688 -4.75 c 0
 664.099609375 -24.5 659.299804688 -42.349609375 652.25 -58.099609375 c 0
 650.75 -61.5 649.5 -64.25 649.5 -64.2998046875 c 0
 649.5 -64.349609375 653.349609375 -67.5498046875 658.049804688 -71.5 c 0
 671.849609375 -83 688.799804688 -100.049804688 700.799804688 -114.5 c 0
 728.900390625 -148.349609375 750.5 -188.700195312 762.200195312 -229.299804688 c 0
 775.650390625 -276 777.099609375 -322.299804688 766.599609375 -368.799804688 c 2
 765.25 -374.75 l 1
 500 -374.75 l 1
 234.75 -374.75 l 1
 233.650390625 -369.75 l 2
 230.25 -354.5 227.799804688 -335.299804688 226.900390625 -317.099609375 c 0
 225.75 -293.200195312 228.200195312 -265.200195312 233.549804688 -241.5 c 0
 245.650390625 -187.900390625 271.299804688 -139.849609375 309.900390625 -98.349609375 c 0
 318.400390625 -89.25 333.099609375 -75.5 341.200195312 -69.099609375 c 1
 342.650390625 -68 l 1
 339.349609375 -60.5 l 2
 328.799804688 -36.7998046875 323.950195312 -13.400390625 323.950195312 13.5 c 0
 323.950195312 45.2998046875 330.900390625 74.0498046875 345.700195312 103.5 c 0
 355.849609375 123.650390625 367.400390625 139.5 383.950195312 156 c 2
 393.75 165.75 l 1
 390.900390625 169.75 l 2
 381.25 183.150390625 373.450195312 199.650390625 369.799804688 214.5 c 0
 358.650390625 259.650390625 371.25 306 403.450195312 338.450195312 c 0
 413.349609375 348.400390625 424.200195312 356.150390625 437.25 362.549804688 c 0
 450.049804688 368.799804688 464.799804688 373.049804688 478.5 374.450195312 c 0
EndSplineSet
EndChar

StartChar: p
Encoding: 112 112 17
Width: 1000
Flags: H
LayerCount: 2
Fore
SplineSet
490.5 392.700195312 m 0
 510.450195312 395.349609375 537.049804688 390.049804688 557 379.400390625 c 0
 580.049804688 367.150390625 598.25 347.049804688 608.900390625 322 c 0
 613.799804688 310.599609375 616 301.700195312 617 289.599609375 c 0
 618.5 271.950195312 614.200195312 250.799804688 604.700195312 229.25 c 0
 603.5 226.5 602.5 224.049804688 602.5 223.75 c 0
 602.5 223.450195312 604 222.299804688 605.900390625 221.25 c 0
 633.450195312 205.099609375 655.150390625 182.400390625 667.950195312 156.25 c 0
 688.5 114.450195312 687.799804688 64.4501953125 666 11.25 c 0
 662.5 2.7998046875 653.799804688 -14.400390625 648.549804688 -23.150390625 c 0
 646.299804688 -26.9501953125 644.5 -30.150390625 644.599609375 -30.2001953125 c 0
 644.650390625 -30.2998046875 647.450195312 -32.150390625 650.75 -34.349609375 c 0
 667.5 -45.5 681.849609375 -57.400390625 698.900390625 -74.2001953125 c 0
 724.200195312 -99.150390625 743.650390625 -124.349609375 760.650390625 -154.299804688 c 0
 790.700195312 -207.25 804.150390625 -263.900390625 798.75 -315.25 c 0
 796.299804688 -338.599609375 790.75 -359.25 781.150390625 -380.549804688 c 2
 777.450195312 -388.799804688 l 1
 772.099609375 -390.5 l 2
 766.75 -392.150390625 766.700195312 -392.150390625 751.75 -392.650390625 c 0
 730.25 -393.400390625 276.150390625 -393.400390625 250.75 -392.650390625 c 2
 231.75 -392.099609375 l 1
 226.25 -390.150390625 l 1
 220.75 -388.25 l 1
 217.849609375 -381.25 l 2
 204.400390625 -349.049804688 198.349609375 -312.849609375 200.5 -277.5 c 0
 203.5 -228.599609375 220.849609375 -179.25 251.25 -133.25 c 0
 276.700195312 -94.7001953125 310.700195312 -59.7998046875 347.849609375 -34.0498046875 c 2
 353.950195312 -29.7998046875 l 1
 352.25 -27.5498046875 l 2
 334.349609375 -3.849609375 322.150390625 23.150390625 317.049804688 50 c 0
 314.25 64.75 313.5 84.599609375 315.200195312 98.5 c 0
 318.349609375 124.450195312 326.950195312 147.900390625 341.299804688 169.599609375 c 0
 347.200195312 178.5 353.200195312 185.700195312 362.5 195.049804688 c 0
 372.400390625 205.049804688 381.200195312 212.349609375 390.700195312 218.5 c 0
 394.549804688 221 396.400390625 222.5 396.25 223 c 0
 396.150390625 223.400390625 395.150390625 225.799804688 394.049804688 228.349609375 c 0
 389.549804688 238.599609375 385.900390625 251.349609375 384.150390625 263.25 c 0
 383.049804688 270.700195312 382.900390625 291.349609375 383.900390625 298.25 c 0
 385 305.849609375 386 311.099609375 387 314.25 c 0
 400.5 358.650390625 435.950195312 385.450195312 490.5 392.700195312 c 0
508.599609375 361.75 m 0
 502.349609375 362.5 501.200195312 362.549804688 498.25 362.150390625 c 0
 485.650390625 360.549804688 477.25 358.75 468.099609375 355.75 c 0
 442.900390625 347.400390625 426.049804688 331.599609375 418.099609375 309 c 0
 413.099609375 294.75 413.099609375 270.799804688 418.099609375 253.75 c 0
 421.400390625 242.400390625 424.700195312 235.349609375 433.150390625 221.150390625 c 0
 436.650390625 215.349609375 439.5 210.450195312 439.5 210.299804688 c 0
 439.5 210.200195312 435.049804688 207.799804688 429.650390625 204.950195312 c 0
 418 198.950195312 411.599609375 195.150390625 404.75 190.299804688 c 0
 372.400390625 167.400390625 352.450195312 135.849609375 346.650390625 98.5 c 0
 345.549804688 91.2998046875 345.400390625 71.25 346.400390625 64 c 0
 349.650390625 41.150390625 357.150390625 21.349609375 370.25 1.25 c 0
 377.099609375 -9.25 380.650390625 -13.25 392.75 -24.5 c 0
 399.099609375 -30.349609375 404.650390625 -35.5 405.150390625 -36 c 0
 406.049804688 -36.849609375 405.349609375 -37.25 388.450195312 -46.4501953125 c 0
 370.099609375 -56.4501953125 367.5 -58.0498046875 355.5 -67.2001953125 c 0
 307.849609375 -103.299804688 269.799804688 -152.25 249 -204.25 c 0
 239.950195312 -226.849609375 234.450195312 -249.25 232.200195312 -272.599609375 c 0
 231.099609375 -284.349609375 231.450195312 -306.900390625 232.950195312 -317.75 c 0
 234.700195312 -330.700195312 237.950195312 -344.799804688 241.650390625 -355.75 c 0
 243.25 -360.549804688 243.400390625 -360.75 245.049804688 -361.099609375 c 0
 246 -361.299804688 289.299804688 -361.75 341.25 -362.049804688 c 0
 434.299804688 -362.599609375 682.950195312 -362.349609375 732.349609375 -361.650390625 c 2
 755.5 -361.349609375 l 1
 756.950195312 -357.549804688 l 2
 761.900390625 -344.549804688 765.200195312 -331.150390625 767.349609375 -315.5 c 0
 768.75 -305.099609375 768.599609375 -278.25 767.099609375 -267.200195312 c 0
 762.849609375 -235.849609375 753.400390625 -206.950195312 737.549804688 -177.150390625 c 0
 722.200195312 -148.200195312 702.650390625 -122 678.299804688 -97.75 c 0
 666.900390625 -86.400390625 656.849609375 -77.5498046875 645.400390625 -68.9501953125 c 0
 632.049804688 -58.900390625 624.150390625 -53.900390625 605.75 -43.75 c 0
 599.450195312 -40.25 594.049804688 -37.25 593.849609375 -37 c 0
 593.599609375 -36.7998046875 598.799804688 -31.650390625 605.400390625 -25.5 c 2
 617.349609375 -14.400390625 l 1
 621.25 -7.9501953125 l 2
 629.700195312 6.2001953125 637.200195312 22.25 642.25 37 c 0
 655.400390625 75.7998046875 654.650390625 112.599609375 640 142.25 c 0
 633.900390625 154.650390625 627.049804688 163.950195312 616.700195312 174 c 0
 604.099609375 186.200195312 591.950195312 194.200195312 571 204.049804688 c 0
 565.650390625 206.549804688 561.049804688 208.799804688 560.849609375 209 c 0
 560.599609375 209.200195312 563 214.5 566.150390625 220.799804688 c 0
 577.099609375 242.650390625 581.75 254.549804688 584.599609375 267.700195312 c 0
 585.5 271.849609375 585.700195312 274.450195312 585.700195312 282 c 0
 585.75 295.200195312 584.349609375 301.200195312 578.25 313.75 c 0
 564.650390625 341.75 541.150390625 357.950195312 508.599609375 361.75 c 0
EndSplineSet
EndChar

StartChar: q
Encoding: 113 113 18
Width: 1000
Flags: H
LayerCount: 2
Fore
SplineSet
493.5 481.200195312 m 0
 496.900390625 481.599609375 508.299804688 481.049804688 512.299804688 480.25 c 0
 520.200195312 478.75 528.900390625 474.950195312 537.549804688 469.200195312 c 0
 542.25 466.099609375 551 457.400390625 554.349609375 452.450195312 c 0
 557.599609375 447.700195312 562.5 437.950195312 564.200195312 433 c 0
 567.400390625 423.450195312 567.200195312 407.599609375 563.75 395.75 c 0
 559 379.400390625 549.549804688 367.650390625 532.5 356.75 c 0
 530.450195312 355.450195312 528.700195312 354.349609375 528.650390625 354.299804688 c 0
 528.5 354.200195312 549.400390625 233.5 562.049804688 161.25 c 0
 571.450195312 107.599609375 582.75 44.9501953125 584.549804688 36.5498046875 c 0
 585.099609375 33.900390625 585.150390625 33.849609375 585.75 35.0498046875 c 0
 587.150390625 37.75 608.099609375 97.349609375 632 166.5 c 0
 648.5 214.25 684.400390625 318.5 684.599609375 319.299804688 c 0
 684.700195312 319.599609375 682.349609375 321.900390625 679.349609375 324.450195312 c 0
 664.75 337.049804688 655.5 356.799804688 655.5 375.5 c 0
 655.5 399.799804688 670.150390625 422.650390625 693.400390625 434.650390625 c 0
 703.25 439.700195312 710.950195312 441.549804688 722.25 441.549804688 c 0
 740.049804688 441.549804688 755.700195312 434.849609375 769.049804688 421.549804688 c 0
 775.099609375 415.450195312 778.299804688 410.849609375 782.75 401.75 c 0
 787.900390625 391.299804688 788.25 389.549804688 788.25 375 c 0
 788.25 360.700195312 787.900390625 358.950195312 783.200195312 349.099609375 c 0
 776.200195312 334.299804688 766.349609375 323.650390625 752.599609375 315.900390625 c 0
 750 314.450195312 747.25 312.650390625 746.5 311.950195312 c 0
 743.950195312 309.650390625 743.950195312 308.799804688 745.25 284.299804688 c 0
 748.5 224.950195312 760.450195312 16.2001953125 760.799804688 12.599609375 c 2
 761.099609375 9.400390625 l 1
 787.099609375 62.849609375 l 2
 849.5 191.049804688 868.299804688 230.700195312 872.799804688 243.5 c 2
 873.950195312 246.700195312 l 1
 872.099609375 249.25 l 2
 854.5 273.349609375 849.650390625 293.799804688 856.549804688 315.400390625 c 0
 863.349609375 336.599609375 877.549804688 351.799804688 896.599609375 358.150390625 c 0
 911.150390625 363 929.799804688 363.049804688 944.349609375 358.25 c 0
 960.25 353 972.400390625 342.25 980 326.75 c 0
 985.75 315.049804688 987.75 305.950195312 987.349609375 293.75 c 0
 987 283.549804688 985.200195312 276.450195312 980.599609375 267.25 c 0
 971.75 249.400390625 961.599609375 241.200195312 938.900390625 233.5 c 0
 933.700195312 231.75 929.5 230.099609375 929.5 229.849609375 c 0
 929.5 229.200195312 910.5 77.7001953125 904.75 32.5 c 0
 896.549804688 -32.349609375 889.900390625 -81.75 887.150390625 -98.9501953125 c 2
 885.849609375 -107.200195312 l 1
 880.549804688 -113.700195312 l 2
 875 -120.599609375 855.299804688 -144.75 827.75 -178.5 c 2
 811.200195312 -198.75 l 1
 793.799804688 -238.75 l 2
 784.200195312 -260.75 776.25 -279.099609375 776.150390625 -279.5 c 0
 776.049804688 -279.950195312 780.25 -290.150390625 785.5 -302.200195312 c 0
 801.799804688 -339.650390625 809 -357.099609375 812.25 -366.950195312 c 0
 814.349609375 -373.349609375 813.450195312 -377 808.450195312 -382 c 0
 800.450195312 -390 775.450195312 -402.849609375 749.5 -412.25 c 0
 727.200195312 -420.349609375 698.849609375 -427.349609375 673 -431.200195312 c 0
 662.5 -432.799804688 655.549804688 -433.349609375 638.75 -434 c 0
 607.349609375 -435.25 393.200195312 -436 369.549804688 -435 c 0
 312.950195312 -432.549804688 254.5 -417.849609375 212.150390625 -395.450195312 c 0
 198.200195312 -388.049804688 190.450195312 -382.25 188 -377.450195312 c 0
 186.25 -374.099609375 186.200195312 -371.650390625 187.75 -366.950195312 c 0
 191 -357.099609375 198.200195312 -339.650390625 214.5 -302.200195312 c 0
 219.75 -290.150390625 223.950195312 -279.950195312 223.849609375 -279.5 c 0
 223.75 -279.099609375 215.799804688 -260.75 206.200195312 -238.75 c 2
 188.799804688 -198.75 l 1
 172.25 -178.5 l 2
 144.700195312 -144.75 125 -120.599609375 119.450195312 -113.700195312 c 2
 114.150390625 -107.200195312 l 1
 112.849609375 -98.9501953125 l 2
 108.650390625 -72.650390625 99.650390625 -3.349609375 80.25 151.599609375 c 0
 74.900390625 194.400390625 70.5 229.650390625 70.5 229.900390625 c 0
 70.5 230.200195312 66.400390625 231.75 61.400390625 233.450195312 c 0
 38.4501953125 241.150390625 28.2998046875 249.349609375 19.400390625 267.25 c 0
 14.75 276.5 13 283.5 12.650390625 294 c 0
 12.349609375 302.900390625 13 307.900390625 15.5498046875 315.849609375 c 0
 23.4501953125 340.599609375 41.4501953125 356.700195312 65.5 360.650390625 c 0
 86.099609375 364.049804688 106.299804688 359.900390625 120.349609375 349.400390625 c 0
 129.900390625 342.25 137.400390625 331.75 142.25 318.799804688 c 0
 150.549804688 296.450195312 146.599609375 275.5 129.400390625 251.400390625 c 2
 125.950195312 246.599609375 l 1
 127.200195312 243.400390625 l 1
 132.950195312 228.099609375 151.200195312 189.650390625 212.900390625 62.849609375 c 2
 238.900390625 9.400390625 l 1
 239.200195312 12.599609375 l 2
 239.450195312 15.2998046875 242.450195312 66.849609375 251.5 226.5 c 0
 255.700195312 300.5 256 306.75 255.450195312 308.75 c 0
 254.75 311.25 253.150390625 312.650390625 247.400390625 315.900390625 c 0
 227.950195312 326.849609375 214.950195312 345.299804688 211.75 366.5 c 0
 208.049804688 390.75 219.549804688 415.5 241.349609375 430.099609375 c 0
 253.400390625 438.200195312 264.049804688 441.549804688 277.75 441.549804688 c 0
 291.599609375 441.549804688 302.450195312 438.099609375 315.049804688 429.700195312 c 0
 320.099609375 426.299804688 327.75 418.849609375 331.400390625 413.75 c 0
 335.150390625 408.450195312 339.950195312 399.150390625 342.099609375 392.950195312 c 2
 343.75 388.25 l 1
 343.75 375 l 1
 343.75 361.75 l 1
 342.099609375 357 l 2
 337.700195312 344.450195312 329.650390625 332.25 320.650390625 324.450195312 c 0
 317.650390625 321.900390625 315.299804688 319.599609375 315.400390625 319.299804688 c 0
 315.599609375 318.549804688 351.099609375 215.400390625 368 166.5 c 0
 391.75 97.7001953125 413.150390625 36.9501953125 414.400390625 34.7001953125 c 0
 414.799804688 34 415 34.349609375 415.450195312 36.5498046875 c 0
 417.200195312 44.5498046875 426.5 96.2001953125 435.75 148.75 c 0
 446.200195312 208.25 471.5 354.150390625 471.349609375 354.25 c 0
 471.299804688 354.299804688 468.799804688 356 465.75 358 c 0
 453.599609375 366 446.75 373.099609375 441.299804688 383.200195312 c 0
 431.200195312 401.849609375 431 426.25 440.900390625 445.099609375 c 0
 447.25 457.349609375 458.599609375 468.049804688 472.5 475 c 0
 479.200195312 478.299804688 485.599609375 480.200195312 493.5 481.200195312 c 0
507.25 445.75 m 0
 503.650390625 446.650390625 497.25 446.650390625 493.349609375 445.700195312 c 0
 483.349609375 443.299804688 474.150390625 435.299804688 470.400390625 425.75 c 0
 469.099609375 422.349609375 468.799804688 420.900390625 468.599609375 416.25 c 0
 468.450195312 412.200195312 468.599609375 409.900390625 469.200195312 407.5 c 0
 472 396.200195312 481.599609375 386.700195312 493.25 383.75 c 0
 497.049804688 382.799804688 504 382.799804688 507.75 383.75 c 0
 518.299804688 386.5 528.349609375 396.950195312 531.049804688 408 c 0
 532 411.849609375 531.849609375 418.599609375 530.799804688 422.25 c 0
 527.5 433.450195312 517.950195312 443 507.25 445.75 c 0
284.150390625 406.25 m 0
 274.150390625 408.400390625 263.400390625 404.900390625 255.450195312 397 c 0
 242.950195312 384.549804688 242.950195312 365.450195312 255.450195312 353 c 0
 265.299804688 343.200195312 279.5 340.400390625 290.650390625 346.049804688 c 0
 299.5 350.5 307.049804688 359.950195312 308.950195312 368.900390625 c 0
 309.700195312 372.549804688 309.650390625 378.150390625 308.75 381.900390625 c 0
 306.099609375 393.150390625 295.200195312 403.900390625 284.150390625 406.25 c 0
728.650390625 406.25 m 0
 715.599609375 409.049804688 700.700195312 401.799804688 694.349609375 389.599609375 c 0
 691.349609375 383.799804688 690.75 381.400390625 690.75 375 c 0
 690.75 370.700195312 691 368.549804688 691.700195312 366.5 c 0
 698.099609375 347.650390625 718.450195312 337.950195312 734.75 346 c 0
 748.799804688 352.900390625 756.700195312 368.150390625 753.25 381.75 c 0
 750.299804688 393.299804688 739.650390625 403.950195312 728.650390625 406.25 c 0
89.5 325.950195312 m 0
 85.7998046875 327 78.349609375 327.599609375 75 327.150390625 c 0
 67 326.099609375 60.5498046875 323.049804688 55.7998046875 317.950195312 c 0
 49.349609375 311.150390625 46.5 301.599609375 48 291.75 c 0
 49.599609375 281.200195312 54.7001953125 273.950195312 63.75 269.450195312 c 0
 69.25 266.75 73.849609375 265.849609375 80.75 266.150390625 c 0
 90.150390625 266.599609375 96.2001953125 268.900390625 101.799804688 274.150390625 c 0
 107.849609375 279.799804688 110.450195312 285.650390625 110.849609375 294.75 c 0
 111.299804688 304.849609375 108.650390625 312.400390625 102.549804688 318.450195312 c 0
 98.75 322.25 94.849609375 324.5 89.5 325.950195312 c 0
929.950195312 326.25 m 0
 926 327.150390625 918.549804688 327.549804688 915.25 327.049804688 c 0
 901.700195312 324.849609375 892.299804688 316.400390625 889.700195312 304 c 0
 888.650390625 299 889 290.400390625 890.450195312 286.349609375 c 0
 895.25 272.700195312 906.849609375 265.349609375 922.200195312 266.150390625 c 0
 931.650390625 266.650390625 938.450195312 269.400390625 944.049804688 275.049804688 c 0
 949.650390625 280.650390625 952.200195312 287.299804688 952.200195312 296.5 c 0
 952.200195312 302.650390625 951.549804688 305.900390625 949.150390625 310.900390625 c 0
 945.700195312 318.25 938.099609375 324.299804688 929.950195312 326.25 c 0
500.900390625 303.650390625 m 0
 500.650390625 305.200195312 500.200195312 306.5 499.950195312 306.5 c 0
 499.700195312 306.5 499.5 306.349609375 499.5 306.200195312 c 0
 499.5 306.049804688 497.950195312 297.450195312 496 287.099609375 c 0
 490.849609375 259.049804688 484.950195312 225.700195312 469.950195312 139.75 c 0
 451.549804688 33.900390625 443.700195312 -10.349609375 442.75 -14.099609375 c 0
 442.450195312 -15.349609375 442.549804688 -15.5 443.599609375 -15.5 c 0
 445.049804688 -15.5 453.599609375 -11.400390625 460.75 -7.25 c 0
 468.049804688 -3.0498046875 474.849609375 1.650390625 482.5 7.7001953125 c 0
 486.200195312 10.650390625 491.049804688 13.9501953125 493.25 15.0498046875 c 0
 497 16.9501953125 497.5 17.0498046875 500.75 16.900390625 c 0
 505.549804688 16.7001953125 508.25 15.25 516.75 8.4501953125 c 0
 524.049804688 2.599609375 530.25 -1.7001953125 539 -7 c 0
 546.049804688 -11.2998046875 554.25 -15.5 555.5 -15.5 c 0
 556.400390625 -15.5 556.5 -15.25 556.299804688 -13.849609375 c 0
 556.150390625 -13 554.849609375 -5.25 553.5 3.25 c 0
 544.599609375 58.150390625 516.75 217.200195312 500.900390625 303.650390625 c 0
294.450195312 270.25 m 0
 292.549804688 275.200195312 290.799804688 279.400390625 290.549804688 279.650390625 c 0
 290.099609375 280.099609375 290.049804688 279.349609375 284.5 181 c 0
 277.900390625 63.5498046875 275.150390625 15.2001953125 273.75 -6.849609375 c 0
 272.349609375 -28.4501953125 272.200195312 -35.5 273.049804688 -35.5 c 0
 273.950195312 -35.5 286.299804688 -29.599609375 292.75 -26.099609375 c 0
 300.549804688 -21.849609375 304.900390625 -19.25 312.450195312 -14.150390625 c 0
 318.700195312 -9.9501953125 322.049804688 -8.5 325.599609375 -8.5 c 0
 328.799804688 -8.5 334.5 -9.900390625 342.349609375 -12.5498046875 c 0
 360.200195312 -18.7001953125 369.25 -21.150390625 380.049804688 -22.7001953125 c 0
 386.75 -23.7001953125 394.450195312 -23.75 395.75 -22.849609375 c 0
 396.599609375 -22.2001953125 395 -17.400390625 367.25 63.0498046875 c 0
 318.5 204.349609375 305.200195312 242.25 294.450195312 270.25 c 0
711.25 256.5 m 0
 710.549804688 268.450195312 709.900390625 278.700195312 709.849609375 279.25 c 0
 709.599609375 280.700195312 708.299804688 277.549804688 702 260.75 c 0
 690.650390625 230.400390625 677.950195312 194.099609375 635.25 70.2998046875 c 0
 605.099609375 -17.0498046875 603.400390625 -22.2001953125 604.25 -22.849609375 c 0
 605.549804688 -23.75 613.25 -23.7001953125 619.950195312 -22.7001953125 c 0
 629.400390625 -21.349609375 638.5 -19 652.75 -14.25 c 0
 668.25 -9.0498046875 671.650390625 -8.25 675.950195312 -8.650390625 c 0
 679.450195312 -8.9501953125 680.5 -9.4501953125 688.5 -14.75 c 0
 700.650390625 -22.849609375 725.049804688 -36 726.700195312 -35.349609375 c 0
 727.650390625 -34.9501953125 727.799804688 -29.099609375 727 -18.5 c 0
 726 -5.25 722.900390625 48.849609375 715.5 181 c 0
 713.849609375 210.549804688 711.950195312 244.549804688 711.25 256.5 c 0
147.400390625 118 m 0
 120.799804688 172.200195312 112.049804688 189.5 112.049804688 188 c 0
 111.950195312 185.299804688 117.799804688 137.25 132.700195312 17.75 c 0
 137.75 -22.9501953125 142.099609375 -57.900390625 142.299804688 -59.900390625 c 0
 142.450195312 -61.900390625 142.849609375 -63.650390625 143.099609375 -63.7998046875 c 0
 143.799804688 -64.25 147.349609375 -61.9501953125 153.799804688 -56.900390625 c 0
 163.650390625 -49.2998046875 169.099609375 -45.4501953125 172.25 -43.9501953125 c 0
 176.150390625 -42.099609375 180 -42.0498046875 192.25 -43.7998046875 c 0
 203.5 -45.349609375 220.150390625 -46 223.25 -44.900390625 c 0
 224.900390625 -44.349609375 225.25 -44 225.150390625 -43 c 0
 225.049804688 -41.25 197.450195312 15.900390625 147.400390625 118 c 0
886 169.700195312 m 0
 887.099609375 179.349609375 888 187.599609375 887.900390625 188.150390625 c 0
 887.799804688 188.650390625 884.200195312 181.900390625 879.799804688 173.150390625 c 0
 858.700195312 130.900390625 778.900390625 -32.75 774.900390625 -42 c 0
 774 -44.099609375 774 -44.25 774.799804688 -44.849609375 c 0
 775.950195312 -45.7001953125 780.349609375 -45.650390625 792.25 -44.75 c 0
 827.799804688 -42 827.25 -41.9501953125 840.450195312 -52.4501953125 c 0
 853.799804688 -63.150390625 856.049804688 -64.75 856.549804688 -63.9501953125 c 0
 856.799804688 -63.5498046875 857 -62.9501953125 857 -62.599609375 c 0
 857 -62.25 857.900390625 -55.150390625 859 -46.849609375 c 0
 864.700195312 -3.2998046875 881.299804688 129.849609375 886 169.700195312 c 0
507.599609375 -28.400390625 m 0
 503.950195312 -25.9501953125 500.700195312 -23.849609375 500.349609375 -23.75 c 0
 500 -23.650390625 498.049804688 -24.650390625 496 -26.0498046875 c 0
 475.5 -39.650390625 460.400390625 -47 442.25 -52.25 c 0
 423.799804688 -57.5498046875 410.900390625 -59.25 391.849609375 -58.849609375 c 0
 374.049804688 -58.5 365.25 -56.849609375 342.150390625 -49.4501953125 c 2
 329.549804688 -45.400390625 l 1
 320.299804688 -50.7001953125 l 2
 299.150390625 -62.849609375 282.150390625 -69.75 259.75 -75.25 c 0
 233.599609375 -81.7001953125 212.75 -82.900390625 190.5 -79.2998046875 c 0
 186.5 -78.650390625 183.049804688 -78.25 182.75 -78.5 c 0
 174.049804688 -84.900390625 157.450195312 -98.650390625 156.099609375 -100.549804688 c 0
 155.200195312 -101.849609375 154.349609375 -100.599609375 170.049804688 -120.299804688 c 0
 192.849609375 -148.799804688 208.900390625 -168.5 209.450195312 -168.5 c 0
 209.650390625 -168.5 217.200195312 -166 226.25 -163 c 0
 309.400390625 -135.150390625 385.150390625 -121.200195312 471.25 -117.950195312 c 0
 488.200195312 -117.299804688 527.650390625 -117.599609375 542.75 -118.5 c 0
 624.599609375 -123.25 693.349609375 -136.349609375 770.150390625 -161.700195312 c 0
 785 -166.599609375 790.599609375 -167.950195312 791.849609375 -166.900390625 c 0
 794.099609375 -165.049804688 839.5 -109.150390625 843.75 -103 c 2
 845.200195312 -100.900390625 l 1
 843.5 -99.4501953125 l 2
 840.849609375 -97.2001953125 823.150390625 -83 819.75 -80.400390625 c 2
 816.75 -78.099609375 l 1
 809.5 -79.2998046875 l 2
 787.200195312 -82.900390625 766.200195312 -81.7001953125 740 -75.2001953125 c 0
 717.799804688 -69.650390625 700.599609375 -62.7001953125 679.849609375 -50.7998046875 c 2
 670.5 -45.400390625 l 1
 660.150390625 -48.75 l 2
 644.049804688 -53.9501953125 634.849609375 -56.150390625 620.5 -58.099609375 c 0
 617.5 -58.5 610.700195312 -58.75 602 -58.7001953125 c 0
 590.650390625 -58.7001953125 587 -58.5 581.150390625 -57.599609375 c 0
 554.5 -53.599609375 531.950195312 -44.650390625 507.599609375 -28.400390625 c 0
522.25 -153.25 m 0
 491.400390625 -152.599609375 484.049804688 -152.650390625 464.5 -153.5 c 0
 393.849609375 -156.549804688 321.849609375 -169.450195312 247.5 -192.400390625 c 0
 225.900390625 -199.049804688 226.950195312 -198.700195312 227.200195312 -199.75 c 0
 227.799804688 -202 251.549804688 -255.700195312 252.099609375 -256.099609375 c 0
 253.049804688 -256.700195312 255 -256.150390625 263 -253.150390625 c 0
 273.900390625 -249 307.25 -238 320.200195312 -234.25 c 0
 414.200195312 -207.150390625 509.349609375 -201.5 604.950195312 -217.299804688 c 0
 647.799804688 -224.349609375 694.099609375 -236.950195312 737.25 -253.25 c 0
 745.049804688 -256.150390625 746.950195312 -256.700195312 747.900390625 -256.099609375 c 0
 748.450195312 -255.700195312 772.200195312 -202 772.799804688 -199.700195312 c 0
 773 -198.849609375 772.799804688 -198.549804688 771.900390625 -198.400390625 c 0
 771.25 -198.25 764.900390625 -196.299804688 757.75 -194 c 0
 720.150390625 -182.150390625 682.599609375 -172.549804688 650.900390625 -166.799804688 c 0
 608.450195312 -159.049804688 560.950195312 -154.049804688 522.25 -153.25 c 0
543.5 -246.049804688 m 0
 527.150390625 -245.349609375 497.900390625 -245.099609375 474.5 -245.5 c 0
 454.549804688 -245.849609375 452.25 -245.950195312 436.5 -247.299804688 c 0
 407.900390625 -249.75 366.25 -257.549804688 335.25 -266.299804688 c 0
 313.700195312 -272.400390625 286.099609375 -281.299804688 274.5 -285.900390625 c 0
 259.349609375 -291.900390625 256.400390625 -294.150390625 251.900390625 -303.5 c 0
 248.75 -309.950195312 236.5 -338.549804688 236.5 -339.450195312 c 0
 236.5 -340.400390625 238.150390625 -340.049804688 247.049804688 -337.200195312 c 0
 275.799804688 -328 322.599609375 -316.5 356.75 -310.25 c 0
 404.150390625 -301.599609375 456.099609375 -297.849609375 516 -298.75 c 0
 564.25 -299.450195312 586.549804688 -301.25 628 -307.799804688 c 0
 664.25 -313.5 719.200195312 -326.400390625 751.5 -336.75 c 0
 761.299804688 -339.900390625 763.5 -340.400390625 763.5 -339.5 c 0
 763.5 -338.599609375 751.349609375 -310.200195312 748.099609375 -303.5 c 0
 743.349609375 -293.650390625 739.900390625 -291.200195312 721.450195312 -284.349609375 c 0
 700.900390625 -276.700195312 665.549804688 -266 643.900390625 -260.799804688 c 0
 634.299804688 -258.5 610.799804688 -253.900390625 597.799804688 -251.75 c 0
 577.599609375 -248.400390625 563.049804688 -246.849609375 543.5 -246.049804688 c 0
557.25 -335.450195312 m 0
 547.799804688 -335 474.650390625 -334.450195312 462.75 -334.799804688 c 0
 448.650390625 -335.200195312 430.549804688 -336.150390625 423.5 -336.799804688 c 0
 375.349609375 -341.299804688 301.799804688 -355.799804688 263.25 -368.299804688 c 0
 247.549804688 -373.450195312 245.75 -374.150390625 247.049804688 -374.650390625 c 0
 252.349609375 -376.700195312 275.900390625 -384.349609375 282.75 -386.150390625 c 0
 306.799804688 -392.650390625 331.450195312 -396.700195312 359.75 -398.799804688 c 0
 369.650390625 -399.5 383.200195312 -399.599609375 494.25 -399.349609375 c 0
 611.5 -399.099609375 637.450195312 -398.799804688 655.5 -397.5 c 0
 669.900390625 -396.450195312 692.150390625 -392.700195312 709.099609375 -388.450195312 c 0
 721.25 -385.400390625 754.5 -374.599609375 753.450195312 -374 c 0
 751.799804688 -373.099609375 732.400390625 -366.799804688 723.450195312 -364.299804688 c 0
 686.25 -353.799804688 633.549804688 -343.5 590.349609375 -338.299804688 c 0
 578.25 -336.799804688 570.599609375 -336.150390625 557.25 -335.450195312 c 0
EndSplineSet
EndChar

StartChar: r
Encoding: 114 114 19
Width: 1000
Flags: H
LayerCount: 2
Fore
SplineSet
213.099609375 376.049804688 m 0
 215.599609375 376.950195312 218.599609375 376.950195312 273.5 376.849609375 c 2
 331.25 376.75 l 1
 333.900390625 375.549804688 l 2
 337.150390625 374.099609375 341.049804688 369.950195312 342.299804688 366.650390625 c 0
 343.099609375 364.5 343.200195312 361.849609375 343.400390625 338.900390625 c 2
 343.549804688 313.5 l 1
 374.299804688 313.5 l 1
 405 313.5 l 1
 405 338.900390625 l 2
 405 367.650390625 404.950195312 367.150390625 408.799804688 371.450195312 c 0
 410.099609375 372.900390625 412.25 374.549804688 413.900390625 375.349609375 c 2
 416.75 376.75 l 1
 499 376.75 l 1
 581.25 376.75 l 1
 583.900390625 375.549804688 l 2
 587.150390625 374.099609375 591.049804688 369.950195312 592.299804688 366.650390625 c 0
 593.099609375 364.5 593.200195312 361.849609375 593.400390625 338.900390625 c 2
 593.549804688 313.5 l 1
 624.299804688 313.5 l 1
 655 313.5 l 1
 655 338.900390625 l 2
 655 367.650390625 654.950195312 367.150390625 658.799804688 371.450195312 c 0
 660.099609375 372.900390625 662.25 374.549804688 663.900390625 375.349609375 c 2
 666.75 376.75 l 1
 725.25 376.75 l 1
 783.75 376.75 l 1
 786.599609375 375.349609375 l 2
 789.700195312 373.849609375 792.349609375 371.200195312 794.099609375 367.900390625 c 2
 795.25 365.75 l 1
 795.25 290.75 l 1
 795.25 215.75 l 1
 793.900390625 213.25 l 2
 793.200195312 211.900390625 791.400390625 209.599609375 789.900390625 208.200195312 c 0
 787.700195312 206.099609375 756.400390625 179.400390625 711.150390625 141.049804688 c 2
 702.549804688 133.75 l 1
 702.549804688 -7.2998046875 l 1
 702.5 -148.400390625 l 1
 747.400390625 -194.200195312 l 2
 783 -230.549804688 792.549804688 -240.599609375 793.75 -242.849609375 c 2
 795.25 -245.700195312 l 1
 795.400390625 -278.549804688 l 1
 795.5 -311.450195312 l 1
 813.400390625 -311.599609375 l 2
 831 -311.75 831.299804688 -311.75 833.900390625 -312.950195312 c 0
 837.299804688 -314.5 841.099609375 -318.599609375 842.349609375 -322.099609375 c 0
 843.200195312 -324.599609375 843.25 -327.299804688 843.25 -366 c 0
 843.25 -397.349609375 843.099609375 -407.75 842.650390625 -409.299804688 c 0
 841.200195312 -414 837.099609375 -418.150390625 832.349609375 -419.799804688 c 0
 830.549804688 -420.400390625 785.299804688 -420.5 498.25 -420.400390625 c 2
 166.25 -420.25 l 1
 163.75 -419 l 2
 160.349609375 -417.349609375 157.299804688 -414.049804688 156.049804688 -410.700195312 c 0
 155 -408 155 -407.150390625 155 -366.049804688 c 0
 155 -318.900390625 154.799804688 -321.5 158.799804688 -317.049804688 c 0
 160.099609375 -315.599609375 162.25 -313.950195312 163.900390625 -313.150390625 c 2
 166.75 -311.75 l 1
 184.599609375 -311.599609375 l 1
 202.5 -311.450195312 l 1
 202.599609375 -278.549804688 l 1
 202.75 -245.700195312 l 1
 204.25 -242.849609375 l 2
 205.450195312 -240.599609375 215.099609375 -230.450195312 250.650390625 -194.200195312 c 2
 295.5 -148.450195312 l 1
 295.5 -7.349609375 l 1
 295.450195312 133.75 l 1
 253.400390625 169.5 l 2
 230.25 189.150390625 210 206.450195312 208.400390625 207.950195312 c 0
 206.75 209.450195312 204.849609375 211.799804688 204.099609375 213.200195312 c 2
 202.75 215.75 l 1
 202.599609375 289.650390625 l 2
 202.549804688 339.049804688 202.650390625 364.25 203 365.5 c 0
 203.650390625 368 206.299804688 371.799804688 208.599609375 373.650390625 c 0
 209.599609375 374.450195312 211.650390625 375.549804688 213.099609375 376.049804688 c 0
311.599609375 319.400390625 m 1
 311.450195312 345 l 1
 272.75 345 l 1
 234 345 l 1
 234 290.5 l 1
 234 236 l 1
 499 236 l 1
 764 236 l 1
 764 290.5 l 1
 764 345 l 1
 725.25 345 l 1
 686.549804688 345 l 1
 686.400390625 319.400390625 l 1
 686.25 293.75 l 1
 685.049804688 291.099609375 l 2
 683.5 287.700195312 679.400390625 283.900390625 675.900390625 282.650390625 c 0
 673.400390625 281.799804688 670.5 281.75 624 281.75 c 0
 577.5 281.75 574.599609375 281.799804688 572.099609375 282.650390625 c 0
 568.599609375 283.900390625 564.5 287.700195312 562.950195312 291.099609375 c 2
 561.75 293.75 l 1
 561.599609375 319.400390625 l 1
 561.450195312 345 l 1
 499 345 l 1
 436.549804688 345 l 1
 436.400390625 319.400390625 l 1
 436.25 293.75 l 1
 435.049804688 291.099609375 l 2
 433.5 287.700195312 429.400390625 283.900390625 425.900390625 282.650390625 c 0
 423.400390625 281.799804688 420.5 281.75 374 281.75 c 0
 327.5 281.75 324.599609375 281.799804688 322.099609375 282.650390625 c 0
 318.599609375 283.900390625 314.5 287.700195312 312.950195312 291.099609375 c 2
 311.75 293.75 l 1
 311.599609375 319.400390625 l 1
736 203.799804688 m 0
 736.599609375 204.400390625 700.349609375 204.5 499 204.5 c 0
 361.349609375 204.5 261.5 204.299804688 261.799804688 204.049804688 c 0
 266.799804688 199.349609375 317.400390625 156.900390625 318.150390625 156.75 c 0
 318.75 156.599609375 400.599609375 156.549804688 500 156.599609375 c 2
 680.75 156.75 l 1
 708 179.950195312 l 2
 723 192.700195312 735.599609375 203.450195312 736 203.799804688 c 0
670.5 -7 m 1
 670.5 125 l 1
 499 125 l 1
 327.5 125 l 1
 327.5 -7 l 1
 327.5 -139 l 1
 499 -139 l 1
 670.5 -139 l 1
 670.5 -7 l 1
710.700195312 -202.150390625 m 1
 679.75 -170.5 l 1
 499 -170.5 l 1
 318.25 -170.5 l 1
 287.349609375 -202.150390625 l 1
 256.400390625 -233.75 l 1
 377.700195312 -233.900390625 l 2
 444.400390625 -233.950195312 553.599609375 -233.950195312 620.299804688 -233.900390625 c 2
 741.599609375 -233.75 l 1
 710.700195312 -202.150390625 l 1
764 -288.75 m 1
 764 -266 l 1
 499 -266 l 1
 234 -266 l 1
 234 -288.75 l 1
 234 -311.5 l 1
 499 -311.5 l 1
 764 -311.5 l 1
 764 -288.75 l 1
811.5 -366.25 m 1
 811.5 -343.5 l 1
 499 -343.5 l 1
 186.5 -343.5 l 1
 186.5 -366.25 l 1
 186.5 -389 l 1
 499 -389 l 1
 811.5 -389 l 1
 811.5 -366.25 l 1
EndSplineSet
EndChar

StartChar: t
Encoding: 116 116 20
Width: 1000
Flags: H
LayerCount: 2
Fore
SplineSet
214.5 292.099609375 m 1
 214.5 359 l 1
 271 359 l 1
 327.5 359 l 1
 327.5 329.25 l 1
 327.5 299.5 l 1
 379 299.5 l 1
 430.5 299.5 l 1
 430.5 329.25 l 1
 430.5 359 l 1
 500 359 l 1
 569.5 359 l 1
 569.5 329.25 l 1
 569.5 299.5 l 1
 621 299.5 l 1
 672.5 299.5 l 1
 672.5 329.25 l 1
 672.5 359 l 1
 729 359 l 1
 785.5 359 l 1
 785.5 292.099609375 l 1
 785.5 225.150390625 l 1
 740.650390625 191.200195312 l 2
 715.950195312 172.549804688 694.150390625 156 692.150390625 154.5 c 2
 688.5 151.799804688 l 1
 688.5 3.5 l 1
 688.549804688 -144.75 l 1
 729.950195312 -188.75 l 1
 771.349609375 -232.75 l 1
 771.650390625 -255.200195312 l 2
 771.849609375 -267.549804688 772 -286.650390625 772 -297.599609375 c 2
 772 -317.5 l 1
 796.75 -317.5 l 1
 821.5 -317.5 l 1
 821.5 -354.25 l 1
 821.5 -391 l 1
 500 -391 l 1
 178.5 -391 l 1
 178.5 -354.25 l 1
 178.5 -317.5 l 1
 203.25 -317.5 l 1
 228 -317.5 l 1
 228 -275.099609375 l 1
 228.049804688 -232.75 l 1
 269.75 -188.400390625 l 1
 311.5 -144 l 1
 311.5 3.9501953125 l 1
 311.5 151.900390625 l 1
 263 188.549804688 l 1
 214.5 225.200195312 l 1
 214.5 292.099609375 l 1
767.75 238.400390625 m 2
 764.400390625 242 l 1
 500 242 l 1
 235.599609375 242 l 1
 232.25 238.400390625 l 2
 227.900390625 233.849609375 226.299804688 230.450195312 226.599609375 226.599609375 c 0
 226.900390625 222.700195312 228.150390625 220.400390625 232.200195312 216.150390625 c 2
 235.650390625 212.5 l 1
 500 212.5 l 1
 764.349609375 212.5 l 1
 767.799804688 216.150390625 l 2
 771.849609375 220.400390625 773.099609375 222.700195312 773.400390625 226.599609375 c 0
 773.700195312 230.450195312 772.099609375 233.849609375 767.75 238.400390625 c 2
668.700195312 162.900390625 m 2
 665.400390625 166.5 l 1
 500 166.5 l 1
 334.599609375 166.5 l 1
 331.299804688 162.900390625 l 2
 326 157.099609375 324.75 153.400390625 326.200195312 148.299804688 c 0
 326.900390625 145.900390625 327.700195312 144.75 331.099609375 141.200195312 c 2
 335.150390625 137 l 1
 499.950195312 137 l 1
 664.799804688 137 l 1
 668.349609375 140.650390625 l 2
 672.900390625 145.25 674.25 147.799804688 674.25 151.75 c 0
 674.25 155.650390625 672.950195312 158.25 668.700195312 162.900390625 c 2
668.349609375 -132.599609375 m 2
 664.799804688 -129 l 1
 500 -129 l 1
 335.200195312 -129 l 1
 331.650390625 -132.599609375 l 2
 327.150390625 -137.200195312 325.799804688 -139.75 325.799804688 -143.75 c 0
 325.75 -147.700195312 327.200195312 -150.650390625 331.400390625 -155.099609375 c 2
 334.599609375 -158.5 l 1
 500 -158.5 l 1
 665.400390625 -158.5 l 1
 668.650390625 -154.950195312 l 2
 672.900390625 -150.450195312 674.25 -147.700195312 674.200195312 -143.75 c 0
 674.200195312 -139.75 672.849609375 -137.200195312 668.349609375 -132.599609375 c 2
734 -219.450195312 m 0
 718.150390625 -218.799804688 293.150390625 -218.400390625 271.75 -219 c 0
 256.799804688 -219.450195312 250.349609375 -220 248.099609375 -221.200195312 c 0
 244.75 -222.900390625 241.599609375 -228 241.150390625 -232.25 c 0
 240.75 -236.25 242.049804688 -239.599609375 245.450195312 -243.049804688 c 2
 248.25 -245.900390625 l 1
 252.75 -246.200195312 l 2
 266.349609375 -247.200195312 315.650390625 -247.549804688 483.25 -247.799804688 c 0
 665.200195312 -248.099609375 733.049804688 -247.75 744.75 -246.5 c 0
 751.349609375 -245.799804688 753.150390625 -244.950195312 755.75 -241.450195312 c 0
 760.400390625 -235.099609375 759.900390625 -228.349609375 754.299804688 -222.75 c 0
 751.650390625 -220.099609375 751.700195312 -220.150390625 734 -219.450195312 c 0
717 -302.5 m 0
 684.299804688 -301.849609375 349.950195312 -301.450195312 300 -302 c 0
 265.200195312 -302.349609375 253.450195312 -302.849609375 249.549804688 -304 c 0
 247.299804688 -304.650390625 244.25 -307.599609375 242.599609375 -310.75 c 0
 240.799804688 -314.150390625 240.75 -319.200195312 242.400390625 -322.400390625 c 0
 244.200195312 -325.799804688 246.849609375 -328.400390625 249.099609375 -329.049804688 c 0
 253.450195312 -330.200195312 278.5 -330.450195312 430.25 -331.049804688 c 0
 549.650390625 -331.5 605.200195312 -331.5 662.25 -331.049804688 c 0
 733.200195312 -330.5 746.049804688 -330.200195312 750.5 -329 c 0
 752.650390625 -328.400390625 755.799804688 -325.25 757.549804688 -321.900390625 c 0
 759.299804688 -318.599609375 759.200195312 -313.599609375 757.299804688 -310.200195312 c 0
 756.549804688 -308.75 755.049804688 -306.799804688 754.049804688 -305.799804688 c 0
 752.299804688 -304.049804688 751.900390625 -303.950195312 747.700195312 -303.5 c 0
 745.200195312 -303.25 731.400390625 -302.799804688 717 -302.5 c 0
EndSplineSet
EndChar

StartChar: v
Encoding: 118 118 21
Width: 1000
Flags: H
LayerCount: 2
Fore
SplineSet
491.75 396.25 m 0
 499.549804688 397.700195312 509.599609375 396.950195312 517.299804688 394.299804688 c 0
 535.150390625 388.25 548.349609375 372.299804688 551.049804688 353.549804688 c 0
 551.799804688 348.150390625 551.349609375 339.450195312 550.049804688 334.400390625 c 0
 544.849609375 314.450195312 528.900390625 299.900390625 508.599609375 296.5 c 0
 506.549804688 296.150390625 505.099609375 295.75 505.349609375 295.5 c 0
 505.549804688 295.299804688 510.349609375 291.950195312 516 288 c 0
 555.849609375 260.150390625 600.049804688 227.299804688 630 203.349609375 c 0
 657.950195312 180.900390625 679.099609375 161.650390625 688.75 149.75 c 0
 693.5 143.950195312 699.299804688 133.900390625 706.75 118.75 c 0
 719.25 93.2998046875 726.099609375 72.25 729.549804688 49 c 0
 731.049804688 39.0498046875 731.349609375 21.900390625 730.299804688 12.5 c 0
 727.349609375 -13 718.150390625 -34.599609375 701.650390625 -54.75 c 0
 696.099609375 -61.5498046875 684.549804688 -72.7998046875 677.25 -78.650390625 c 0
 671.549804688 -83.2001953125 657.700195312 -92.7001953125 653.099609375 -95.2998046875 c 2
 650.450195312 -96.75 l 1
 650.75 -99 l 2
 651.150390625 -101.849609375 656.099609375 -121.400390625 664.200195312 -152.099609375 c 0
 674.400390625 -190.650390625 678.5 -207.900390625 678.5 -211.900390625 c 0
 678.5 -213.799804688 678.5 -213.799804688 671.900390625 -217.849609375 c 0
 629.400390625 -243.849609375 581.549804688 -259.049804688 536.75 -260.849609375 c 0
 532.200195312 -261 528.5 -261.299804688 528.5 -261.5 c 0
 528.5 -261.650390625 529.549804688 -263.450195312 530.799804688 -265.5 c 0
 543.5 -286.150390625 571.299804688 -302.450195312 608.450195312 -311 c 0
 643.400390625 -319.049804688 690.799804688 -320.599609375 740.5 -315.200195312 c 0
 790.299804688 -309.849609375 836.849609375 -324.400390625 880 -358.799804688 c 0
 888.450195312 -365.549804688 905.25 -382.049804688 904.849609375 -383.200195312 c 0
 904.700195312 -383.599609375 892.599609375 -396.700195312 877.950195312 -412.25 c 0
 860.950195312 -430.349609375 851.200195312 -440.349609375 850.799804688 -440.099609375 c 0
 850.5 -439.900390625 848.099609375 -438.150390625 845.5 -436.200195312 c 0
 816.049804688 -414.150390625 777.950195312 -397.599609375 741.950195312 -391.299804688 c 0
 726.299804688 -388.549804688 721.799804688 -388.25 702 -388.5 c 0
 671.900390625 -388.849609375 647.75 -388.700195312 639 -388.049804688 c 0
 597.799804688 -385 563.200195312 -376.799804688 532.950195312 -362.950195312 c 0
 522.549804688 -358.200195312 513.75 -353.049804688 502.75 -345.299804688 c 0
 502.299804688 -344.950195312 500.5 -345.849609375 496.700195312 -348.349609375 c 0
 466.200195312 -368.049804688 425.25 -382.25 384.5 -387.200195312 c 0
 368 -389.25 345.450195312 -389.650390625 327 -388.25 c 0
 287.450195312 -385.299804688 251.799804688 -390.450195312 218.5 -403.849609375 c 0
 197.349609375 -412.349609375 176.099609375 -425.549804688 161.75 -439.049804688 c 2
 158.25 -442.349609375 l 1
 130.900390625 -416.549804688 l 2
 115.900390625 -402.349609375 102.200195312 -389.450195312 100.5 -387.799804688 c 2
 97.4501953125 -384.849609375 l 1
 98.849609375 -383.400390625 l 2
 99.599609375 -382.549804688 102.950195312 -379.650390625 106.200195312 -376.849609375 c 0
 142.299804688 -346.549804688 189.75 -324 234.75 -315.75 c 0
 257.799804688 -311.549804688 283.950195312 -310.400390625 305.5 -312.75 c 0
 321.400390625 -314.450195312 328.099609375 -315 339.349609375 -315.5 c 0
 382 -317.450195312 420.049804688 -309.599609375 447.099609375 -293.200195312 c 0
 457.650390625 -286.799804688 468.099609375 -277.599609375 473.450195312 -270 c 2
 476.049804688 -266.25 l 1
 474.400390625 -265.900390625 l 2
 473.5 -265.700195312 469.049804688 -264.849609375 464.5 -264 c 0
 459.950195312 -263.150390625 451.849609375 -261.450195312 446.5 -260.200195312 c 0
 401.049804688 -249.700195312 361.900390625 -235.099609375 332.549804688 -217.799804688 c 2
 325.849609375 -213.849609375 l 1
 326.150390625 -210.450195312 l 2
 326.700195312 -203.75 336.799804688 -161.75 349.200195312 -114.400390625 c 0
 351.549804688 -105.400390625 353.5 -97.75 353.5 -97.400390625 c 0
 353.5 -97 350.75 -94.900390625 347.400390625 -92.650390625 c 0
 327.25 -79.349609375 308.200195312 -60.400390625 295.25 -40.7998046875 c 0
 259.75 13.099609375 264.400390625 75.2001953125 308.799804688 140.400390625 c 0
 319.200195312 155.599609375 326.200195312 163.700195312 340.25 176.650390625 c 0
 367.950195312 202.150390625 425.599609375 245.549804688 489.799804688 289.25 c 2
 499.349609375 295.75 l 1
 495.049804688 296.299804688 l 2
 488.799804688 297.099609375 484.900390625 298.25 479.25 300.950195312 c 0
 464.799804688 307.849609375 454.650390625 320.700195312 451.450195312 336.25 c 0
 450.200195312 342.25 450.200195312 350.75 451.450195312 356.799804688 c 0
 455.549804688 376.75 471.75 392.549804688 491.75 396.25 c 0
516.099609375 130.150390625 m 1
 516 155 l 1
 501 155 l 1
 486 155 l 1
 486 130 l 1
 486 105 l 1
 461.25 105 l 1
 436.5 105 l 1
 436.5 90.25 l 1
 436.5 75.5 l 1
 461.25 75.5 l 1
 486 75.5 l 1
 486 50.5 l 1
 486 25.5 l 1
 501 25.5 l 1
 516 25.5 l 1
 516 50.5 l 1
 516 75.5 l 1
 539.75 75.5 l 1
 563.5 75.5 l 1
 563.5 90.25 l 1
 563.5 105 l 1
 539.900390625 105.099609375 l 1
 516.25 105.25 l 1
 516.099609375 130.150390625 l 1
528.549804688 -53.25 m 0
 518 -52.2998046875 496.950195312 -51.9501953125 486.75 -52.5 c 0
 444.450195312 -54.900390625 404.049804688 -66.0498046875 376.599609375 -83 c 2
 372.450195312 -85.5498046875 l 1
 373.549804688 -87.400390625 l 2
 377.5 -94.099609375 387 -109 387.25 -109 c 0
 387.349609375 -109 388.650390625 -108.299804688 390.099609375 -107.450195312 c 0
 412.200195312 -94.400390625 443.849609375 -86.0498046875 481 -83.5 c 0
 490.400390625 -82.849609375 513.799804688 -82.849609375 522.75 -83.5 c 0
 560.5 -86.2001953125 592.150390625 -94.5498046875 611.599609375 -106.950195312 c 0
 613.700195312 -108.299804688 614.900390625 -108.799804688 615.299804688 -108.450195312 c 0
 615.599609375 -108.200195312 618.5 -102.75 621.75 -96.400390625 c 2
 627.599609375 -84.849609375 l 1
 626.450195312 -83.900390625 l 2
 623.849609375 -81.849609375 616.299804688 -77.400390625 610.549804688 -74.5 c 0
 587.799804688 -63.099609375 560.599609375 -56.0498046875 528.549804688 -53.25 c 0
516.25 -150 m 0
 465.900390625 -147.049804688 413.299804688 -158.799804688 371.849609375 -182.299804688 c 0
 359.950195312 -189.049804688 339.450195312 -203.950195312 340.400390625 -205.150390625 c 0
 343.950195312 -210 357.75 -226.150390625 358.5 -226.400390625 c 0
 358.75 -226.5 361 -224.799804688 363.599609375 -222.650390625 c 0
 387.599609375 -202.450195312 420.200195312 -189.450195312 459.25 -184.5 c 0
 482.650390625 -181.549804688 510.700195312 -181.900390625 536 -185.549804688 c 0
 576.099609375 -191.25 614.700195312 -205.650390625 638.650390625 -223.799804688 c 0
 640.200195312 -225 641.700195312 -226 641.900390625 -226 c 0
 642.150390625 -226 642.900390625 -225.400390625 643.599609375 -224.599609375 c 0
 645.150390625 -223 658.5 -204.400390625 658.5 -203.900390625 c 0
 658.5 -203.700195312 656.549804688 -201.900390625 654.200195312 -199.900390625 c 0
 619.799804688 -170.700195312 571.549804688 -153.25 516.25 -150 c 0
EndSplineSet
EndChar

StartChar: w
Encoding: 119 119 22
Width: 1000
Flags: H
LayerCount: 2
Fore
SplineSet
493.599609375 467.5 m 0
 501.400390625 468.599609375 512.799804688 466.900390625 520.099609375 463.599609375 c 0
 528.5 459.799804688 536.549804688 452.849609375 541.700195312 444.900390625 c 0
 547.900390625 435.400390625 548.700195312 432.049804688 548.349609375 417 c 0
 548.099609375 405.349609375 547.799804688 403.549804688 544.900390625 397.75 c 0
 538.950195312 385.900390625 529.549804688 377.349609375 516.549804688 371.900390625 c 0
 508.849609375 368.700195312 508.900390625 368.75 509.75 363.75 c 0
 518.099609375 314.900390625 522.75 288.349609375 533.799804688 225 c 0
 553.450195312 112.599609375 568.700195312 26.25 575.549804688 -11.25 c 0
 577.200195312 -20.2998046875 578.700195312 -28.5 578.849609375 -29.349609375 c 0
 579 -30.25 579.299804688 -31 579.450195312 -31 c 0
 579.849609375 -31 579.700195312 -31.400390625 589.5 -3.75 c 0
 604.849609375 39.5 625.799804688 99.849609375 679.75 256.200195312 c 0
 703.549804688 325.049804688 705.549804688 331.200195312 704.700195312 331.650390625 c 0
 704.25 331.900390625 701.099609375 333.950195312 697.799804688 336.150390625 c 0
 685.75 344.200195312 677.049804688 355.150390625 674.450195312 365.5 c 0
 673.5 369.299804688 673.5 388.700195312 674.450195312 392.5 c 0
 676.150390625 399.349609375 681.049804688 407.200195312 687.700195312 413.799804688 c 0
 695 421 702.900390625 425.25 713.049804688 427.299804688 c 0
 719.200195312 428.549804688 729.75 428.099609375 735.700195312 426.299804688 c 0
 749.549804688 422.150390625 760.599609375 412.75 767.450195312 399.200195312 c 0
 770.25 393.700195312 770.700195312 390.900390625 770.650390625 379.25 c 0
 770.650390625 367.299804688 770.150390625 364.200195312 767.200195312 358.349609375 c 0
 764.349609375 352.650390625 762.049804688 349.5 757.299804688 344.700195312 c 0
 750.25 337.650390625 744 333.900390625 734.549804688 331 c 0
 725.599609375 328.25 725.799804688 328.599609375 726.5 314.799804688 c 0
 730.5 237.450195312 746.700195312 -51.599609375 747.150390625 -54 c 0
 747.25 -54.400390625 748.799804688 -51.7001953125 750.599609375 -48 c 0
 752.400390625 -44.2998046875 772.25 -3.4501953125 794.75 42.75 c 0
 877.650390625 213.150390625 896 251.950195312 896 257.049804688 c 0
 896 258 895.25 258.75 892.650390625 260.5 c 0
 883.349609375 266.599609375 876.150390625 276.950195312 872.900390625 288.900390625 c 0
 871.400390625 294.450195312 871.400390625 306.150390625 872.900390625 311.599609375 c 0
 876.599609375 325.049804688 882.650390625 333.700195312 893.400390625 340.75 c 0
 903.650390625 347.450195312 906.599609375 348.150390625 922.5 347.849609375 c 0
 934.650390625 347.599609375 935.650390625 347.450195312 941.549804688 344.5 c 0
 958 336.200195312 967.349609375 322.900390625 969.599609375 304.650390625 c 0
 970.75 295.349609375 968.299804688 284.450195312 963.200195312 275.950195312 c 0
 958.900390625 268.75 951.5 262.049804688 943.650390625 258.049804688 c 0
 936.950195312 254.700195312 932.25 253.400390625 921.75 252 c 0
 917.650390625 251.450195312 914.150390625 250.799804688 913.950195312 250.599609375 c 0
 913.799804688 250.400390625 904.049804688 173.099609375 892.299804688 78.75 c 0
 880.549804688 -15.5498046875 870.849609375 -93.25 870.700195312 -93.849609375 c 0
 870.599609375 -94.4501953125 863.700195312 -103.200195312 855.349609375 -113.349609375 c 0
 813.299804688 -164.5 798.049804688 -183.900390625 794.700195312 -190.549804688 c 0
 787.950195312 -204 758 -273.599609375 758 -275.900390625 c 0
 758 -276.950195312 764.650390625 -293.200195312 775.25 -318 c 0
 785.650390625 -342.349609375 792.099609375 -358.25 793.799804688 -363.650390625 c 0
 794.849609375 -367.099609375 794.700195312 -367.450195312 791.200195312 -370.099609375 c 0
 781.700195312 -377.400390625 748.5 -391.25 722.150390625 -399 c 0
 713.75 -401.450195312 694 -406.049804688 684.5 -407.700195312 c 0
 669.549804688 -410.349609375 653.950195312 -411.599609375 624.25 -412.599609375 c 0
 596.400390625 -413.5 372.450195312 -413.5 359.5 -412.599609375 c 0
 312.299804688 -409.25 271.549804688 -399.849609375 236.5 -384.25 c 0
 223 -378.25 206.349609375 -369.049804688 205.650390625 -367.200195312 c 0
 205 -365.450195312 210.549804688 -351.099609375 225.25 -316.799804688 c 0
 235.25 -293.400390625 242 -276.950195312 242 -275.900390625 c 0
 242 -273.599609375 212.049804688 -204 205.299804688 -190.549804688 c 0
 201.950195312 -183.900390625 186.700195312 -164.5 144.650390625 -113.349609375 c 0
 136.299804688 -103.200195312 129.400390625 -94.4501953125 129.299804688 -93.849609375 c 0
 129.150390625 -93.25 119.450195312 -15.5498046875 107.700195312 78.75 c 0
 95.9501953125 173.099609375 86.2001953125 250.400390625 86.0498046875 250.599609375 c 0
 85.849609375 250.799804688 82.2998046875 251.450195312 78.150390625 252 c 0
 74 252.549804688 68.599609375 253.549804688 66.150390625 254.25 c 0
 48.150390625 259.400390625 35.2001953125 272.599609375 31.2001953125 289.799804688 c 0
 29.7998046875 295.799804688 30 305.25 31.650390625 311.599609375 c 0
 33.25 317.700195312 35.7998046875 323.549804688 38.7001953125 327.950195312 c 0
 43.7998046875 335.599609375 54.349609375 343.5 64 346.799804688 c 0
 66.400390625 347.650390625 68.2998046875 347.75 79.5 347.75 c 0
 94.0498046875 347.75 95.099609375 347.549804688 102.75 343.150390625 c 0
 116.049804688 335.5 123 326.5 127.099609375 311.599609375 c 0
 128.599609375 306.150390625 128.599609375 294.450195312 127.099609375 288.900390625 c 0
 123.849609375 276.950195312 116.650390625 266.599609375 107.400390625 260.5 c 0
 104.799804688 258.799804688 104 258 104 257.099609375 c 0
 104 255.599609375 107.349609375 247.049804688 111.900390625 237 c 0
 124.299804688 209.450195312 144.900390625 166.700195312 218.75 15 c 0
 234.099609375 -16.5 248 -45.0498046875 249.650390625 -48.5 c 0
 251.349609375 -51.9501953125 252.75 -54.400390625 252.849609375 -54 c 0
 253.299804688 -51.7001953125 269.200195312 232.349609375 273.25 310.049804688 c 0
 274.049804688 325.849609375 273.950195312 327.25 271.799804688 328.650390625 c 0
 271.200195312 329.049804688 268.349609375 330.099609375 265.450195312 331 c 0
 250.849609375 335.5 239.400390625 345.099609375 232.650390625 358.5 c 0
 229.900390625 363.950195312 229.299804688 367.849609375 229.299804688 379.5 c 0
 229.299804688 390.849609375 229.799804688 393.75 232.549804688 399.200195312 c 0
 239.400390625 412.75 250.450195312 422.150390625 264.299804688 426.299804688 c 0
 270.25 428.099609375 280.75 428.549804688 286.950195312 427.299804688 c 0
 297.099609375 425.25 305 421 312.299804688 413.799804688 c 0
 319.049804688 407.099609375 324.049804688 399 325.450195312 392.5 c 0
 326.349609375 388.349609375 326.700195312 375.950195312 326.049804688 369.849609375 c 0
 325.400390625 363.400390625 324 359.700195312 319.75 353.200195312 c 0
 315.849609375 347.200195312 309.549804688 341.099609375 302.200195312 336.150390625 c 0
 298.900390625 333.950195312 295.75 331.900390625 295.299804688 331.650390625 c 0
 294.450195312 331.200195312 296.299804688 325.599609375 318 262.700195312 c 0
 372.75 104.049804688 393.950195312 43 409.25 -0.25 c 0
 420.450195312 -31.900390625 420.150390625 -31 420.549804688 -31 c 0
 420.700195312 -31 421 -30.25 421.150390625 -29.349609375 c 0
 421.299804688 -28.5 422.799804688 -20.2998046875 424.450195312 -11.25 c 0
 435.700195312 50.2998046875 478.799804688 296.099609375 490.25 363.75 c 0
 490.700195312 366.650390625 490.75 367.950195312 490.349609375 368.400390625 c 0
 489.650390625 369.299804688 487.200195312 370.5 481.950195312 372.650390625 c 0
 470.900390625 377.049804688 461.5 385.650390625 455.900390625 396.349609375 c 0
 452.150390625 403.450195312 451.900390625 404.799804688 451.650390625 417 c 0
 451.299804688 432.049804688 452.099609375 435.400390625 458.299804688 444.900390625 c 0
 466.299804688 457.200195312 479.200195312 465.450195312 493.599609375 467.5 c 0
544.5 -119 m 0
 529.900390625 -118.299804688 483.549804688 -118 465.799804688 -118.5 c 0
 437.900390625 -119.299804688 427.849609375 -120.200195312 400.5 -124.299804688 c 0
 345.650390625 -132.5 296.299804688 -145.049804688 248.5 -162.849609375 c 0
 222.950195312 -172.400390625 216.5 -176.900390625 216.5 -185.25 c 0
 216.5 -190.25 220.75 -196.450195312 226.150390625 -199.25 c 2
 228.75 -200.650390625 l 1
 233.5 -199.25 l 2
 236.099609375 -198.5 243.900390625 -195.900390625 250.75 -193.400390625 c 0
 288.849609375 -179.650390625 301.900390625 -175.549804688 329.25 -168.5 c 0
 357 -161.349609375 393.599609375 -154.400390625 419.5 -151.25 c 0
 437.5 -149.099609375 464.950195312 -148 500.25 -148 c 0
 554.75 -148 577.650390625 -149.799804688 619 -157.25 c 0
 662 -165 697.400390625 -174.599609375 740.75 -190.349609375 c 0
 761.25 -197.799804688 765.75 -199.099609375 771.049804688 -199.099609375 c 0
 774.950195312 -199.099609375 776.599609375 -198.349609375 779.049804688 -195.650390625 c 0
 782.849609375 -191.450195312 784.450195312 -185.299804688 782.849609375 -181.349609375 c 0
 780.150390625 -174.900390625 773.200195312 -170.799804688 751.400390625 -162.799804688 c 0
 714.5 -149.299804688 677.25 -138.849609375 636 -130.450195312 c 0
 604.549804688 -124.099609375 576.75 -120.599609375 544.5 -119 c 0
544.5 -208.5 m 0
 537.75 -207.950195312 478.599609375 -207.450195312 469.75 -207.799804688 c 0
 440.5 -209.049804688 421.799804688 -211.549804688 388.5 -218.799804688 c 0
 354.299804688 -226.25 306.150390625 -242.450195312 278.200195312 -256 c 0
 260.849609375 -264.349609375 256 -268.900390625 256 -276.700195312 c 0
 256 -282.150390625 259.549804688 -286.799804688 265.450195312 -289.049804688 c 0
 270.900390625 -291.099609375 271.200195312 -291.049804688 292.5 -281.849609375 c 0
 320.450195312 -269.849609375 331.599609375 -265.5 350.150390625 -259.549804688 c 0
 380.5 -249.75 417.799804688 -241.650390625 443.299804688 -239.25 c 0
 460.099609375 -237.700195312 472.150390625 -237.299804688 500 -237.299804688 c 0
 545.400390625 -237.299804688 563.200195312 -238.799804688 595.25 -245.349609375 c 0
 631.950195312 -252.799804688 663.599609375 -262.950195312 703.5 -280 c 0
 727.349609375 -290.150390625 729.349609375 -290.75 734.349609375 -289.200195312 c 0
 738 -288.049804688 742.450195312 -283.849609375 743.400390625 -280.700195312 c 0
 745.200195312 -274.599609375 742.849609375 -268.849609375 736.650390625 -264.200195312 c 0
 722.549804688 -253.549804688 664.25 -231.650390625 623.25 -221.5 c 0
 596.299804688 -214.799804688 569.049804688 -210.299804688 544.5 -208.5 c 0
516.75 -298 m 0
 507.150390625 -297.75 498.450195312 -297.549804688 497.5 -297.599609375 c 0
 496.549804688 -297.700195312 492.25 -297.799804688 488 -297.849609375 c 0
 445.700195312 -298.5 398.5 -303.950195312 354.349609375 -313.25 c 0
 303.799804688 -323.900390625 234.25 -346.349609375 222.049804688 -356 c 0
 212.5 -363.549804688 214.599609375 -371.25 228.049804688 -378 c 0
 234.049804688 -381 235.5 -381.099609375 240 -378.950195312 c 0
 252.900390625 -372.799804688 306.049804688 -355.200195312 332.75 -348.25 c 0
 357.400390625 -341.799804688 385.549804688 -336.349609375 409.75 -333.299804688 c 0
 426.75 -331.150390625 444.150390625 -329.799804688 467.25 -328.950195312 c 0
 484.700195312 -328.299804688 537.549804688 -328.650390625 551 -329.5 c 0
 599.950195312 -332.549804688 652.849609375 -342.700195312 704.849609375 -359.049804688 c 0
 721.950195312 -364.400390625 737.349609375 -369.900390625 757.25 -377.75 c 2
 765.700195312 -381.099609375 l 1
 768 -380 l 2
 773.450195312 -377.400390625 780 -373.349609375 781.400390625 -371.75 c 0
 783.200195312 -369.75 783.75 -367.450195312 783.25 -364.150390625 c 0
 782.799804688 -360.950195312 781.950195312 -359.5 779.25 -357.099609375 c 0
 774 -352.5 760.049804688 -346.599609375 730.75 -336.650390625 c 0
 674.349609375 -317.549804688 618 -305.450195312 562.25 -300.549804688 c 0
 545.099609375 -299 536.099609375 -298.5 516.75 -298 c 0
EndSplineSet
EndChar

StartChar: D
Encoding: 68 68 23
Width: 1000
Flags: H
LayerCount: 2
Fore
SplineSet
74.0498046875 424.150390625 m 1
 148.099609375 500 l 1
 158.150390625 500 l 1
 168.150390625 500 l 1
 159.200195312 490.849609375 l 2
 154.299804688 485.849609375 119.099609375 449.849609375 81.0498046875 410.849609375 c 2
 11.900390625 340 l 1
 5.9501953125 340 l 1
 0 340 l 1
 0 344.150390625 l 1
 0 348.299804688 l 1
 74.0498046875 424.150390625 l 1
308.75 499.200195312 m 2
 313.450195312 499.549804688 317.799804688 499.900390625 318.5 499.900390625 c 0
 319.599609375 499.950195312 319.299804688 499.5 316.200195312 496.599609375 c 0
 314.25 494.75 285.799804688 467.150390625 253 435.25 c 2
 193.349609375 377.25 l 1
 250.049804688 377.099609375 l 1
 306.75 376.950195312 l 1
 368 438.5 l 1
 429.25 500.049804688 l 1
 439.049804688 499.900390625 l 1
 448.900390625 499.75 l 1
 387.900390625 438.400390625 l 1
 326.900390625 377 l 1
 386.849609375 377 l 1
 446.849609375 377 l 1
 508.200195312 438.5 l 1
 569.599609375 500 l 1
 579.450195312 499.900390625 l 1
 589.25 499.75 l 1
 528.150390625 438.5 l 1
 467.049804688 377.25 l 1
 526.900390625 377.099609375 l 1
 586.75 377 l 1
 648.25 438.5 l 1
 709.75 500 l 1
 719.75 500 l 1
 729.75 500 l 1
 668.25 438.5 l 1
 606.75 377 l 1
 666.75 377 l 1
 726.75 377 l 1
 788.25 438.5 l 1
 849.75 500 l 1
 859.75 500 l 1
 869.75 500 l 1
 808.25 438.5 l 1
 746.75 377 l 1
 789 376.900390625 l 1
 831.25 376.75 l 1
 833.900390625 375.549804688 l 2
 837.200195312 374.049804688 841.099609375 369.900390625 842.200195312 366.650390625 c 0
 842.650390625 365.349609375 843.150390625 361.900390625 843.349609375 359.099609375 c 2
 843.650390625 353.900390625 l 1
 916.700195312 426.950195312 l 1
 989.75 500 l 1
 994.900390625 500 l 1
 1000 500 l 1
 1000 495.099609375 l 1
 1000 490.25 l 1
 921.75 412 l 1
 843.5 333.75 l 1
 843.5 309.25 l 2
 843.5 283.950195312 843.25 279.900390625 841.450195312 276.400390625 c 0
 840.099609375 273.700195312 837.150390625 270.900390625 834.200195312 269.450195312 c 0
 831.75 268.25 831.650390625 268.25 813.650390625 268.099609375 c 2
 795.549804688 267.950195312 l 1
 795.400390625 234.849609375 l 1
 795.25 201.75 l 1
 793.900390625 199.25 l 2
 792.950195312 197.450195312 779.849609375 183.75 747.549804688 150.75 c 2
 702.5 104.75 l 1
 702.5 88.75 l 1
 702.5 72.75 l 1
 846.150390625 216.400390625 l 1
 989.75 360 l 1
 994.900390625 360 l 1
 1000 360 l 1
 1000 355.099609375 l 1
 1000 350.25 l 1
 851.25 201.5 l 1
 702.5 52.75 l 1
 702.5 -7.25 l 1
 702.5 -67.25 l 1
 846.150390625 76.400390625 l 1
 989.75 220 l 1
 994.900390625 220 l 1
 1000 220 l 1
 1000 215.099609375 l 1
 1000 210.25 l 1
 851.25 61.5 l 1
 702.5 -87.25 l 1
 702.5 -132.299804688 l 1
 702.5 -177.299804688 l 1
 710.599609375 -184.200195312 l 1
 718.75 -191.049804688 l 1
 854.200195312 -55.5 l 1
 989.650390625 80 l 1
 994.849609375 80 l 1
 1000 80 l 1
 1000 75.150390625 l 1
 1000 70.25 l 1
 864.950195312 -64.7998046875 l 2
 790.650390625 -139.099609375 729.950195312 -200.099609375 730.049804688 -200.400390625 c 0
 730.150390625 -200.650390625 743.400390625 -212.049804688 759.5 -225.700195312 c 0
 775.599609375 -239.400390625 789.900390625 -251.799804688 791.299804688 -253.299804688 c 2
 793.900390625 -256.049804688 l 1
 891.549804688 -158 l 1
 989.25 -60 l 1
 994.650390625 -60 l 1
 1000 -60 l 1
 1000 -64.7001953125 l 1
 1000 -69.349609375 l 1
 897.75 -171.900390625 l 1
 795.5 -274.400390625 l 1
 795.5 -335.549804688 l 1
 795.5 -396.700195312 l 1
 797.099609375 -395.200195312 l 2
 798 -394.400390625 811.200195312 -381.700195312 826.450195312 -367 c 0
 841.75 -352.25 884.5 -311.099609375 921.5 -275.549804688 c 0
 958.5 -239.950195312 991.299804688 -208.349609375 994.400390625 -205.299804688 c 2
 1000 -199.75 l 1
 1000 -208.799804688 l 1
 1000 -217.799804688 l 1
 855.5 -358.900390625 l 1
 711 -500 l 1
 705.5 -500 l 1
 700 -500 l 1
 700 -494.549804688 l 1
 700 -489.049804688 l 1
 728.150390625 -461.950195312 l 2
 743.599609375 -447.049804688 759.450195312 -431.650390625 763.400390625 -427.799804688 c 2
 770.5 -420.75 l 1
 718.400390625 -420.5 l 1
 666.25 -420.25 l 1
 663.75 -419 l 2
 662.400390625 -418.349609375 660.299804688 -416.799804688 659.099609375 -415.549804688 c 2
 656.900390625 -413.349609375 l 1
 613.900390625 -456.650390625 l 1
 570.900390625 -500 l 1
 560.900390625 -500 l 1
 550.900390625 -500 l 1
 602.950195312 -447.599609375 l 1
 655 -395.25 l 1
 654.849609375 -376.25 l 1
 654.75 -357.25 l 1
 624.150390625 -357.099609375 l 1
 593.549804688 -357 l 1
 593.400390625 -382.349609375 l 2
 593.25 -404.400390625 593.150390625 -408.049804688 592.400390625 -409.900390625 c 0
 591.200195312 -413.049804688 589.099609375 -415.900390625 586.650390625 -417.549804688 c 0
 582.25 -420.599609375 583.650390625 -420.5 545 -420.5 c 2
 509.650390625 -420.5 l 1
 470.049804688 -460.25 l 1
 430.450195312 -500 l 1
 420.599609375 -499.900390625 l 1
 410.75 -499.75 l 1
 450.200195312 -460.150390625 l 1
 489.650390625 -420.5 l 1
 452.950195312 -420.400390625 l 1
 416.25 -420.25 l 1
 413.75 -419 l 2
 410.349609375 -417.349609375 407.299804688 -414.049804688 406.049804688 -410.700195312 c 0
 405.099609375 -408.25 405 -406.849609375 405 -397 c 0
 405 -390.950195312 404.849609375 -386 404.599609375 -386 c 0
 404.400390625 -386 378.599609375 -411.650390625 347.25 -443 c 2
 290.25 -500 l 1
 280.25 -500 l 1
 270.25 -500 l 1
 337.650390625 -432.599609375 l 1
 405.049804688 -365.200195312 l 1
 404.900390625 -361.200195312 l 1
 404.75 -357.25 l 1
 374.150390625 -357.099609375 l 1
 343.549804688 -357 l 1
 343.400390625 -382.349609375 l 2
 343.25 -404.400390625 343.150390625 -408.049804688 342.400390625 -409.900390625 c 0
 341.200195312 -413.049804688 339.099609375 -415.900390625 336.650390625 -417.549804688 c 0
 332.150390625 -420.650390625 335.049804688 -420.5 280.049804688 -420.5 c 2
 229.75 -420.5 l 1
 190 -460.25 l 1
 150.25 -500 l 1
 140.25 -500 l 1
 130.25 -500 l 1
 170.75 -459.450195312 l 2
 197.349609375 -432.799804688 211 -418.799804688 210.549804688 -418.599609375 c 0
 209 -418.049804688 205.349609375 -414.150390625 204.099609375 -411.75 c 2
 202.75 -409.25 l 1
 202.5 -358.599609375 l 1
 202.25 -308 l 1
 106.25 -404 l 1
 10.25 -500 l 1
 5.150390625 -500 l 1
 0 -500 l 1
 0 -495.099609375 l 1
 0 -490.25 l 1
 101.25 -389 l 1
 202.5 -287.75 l 1
 202.5 -274.5 l 2
 202.5 -267.200195312 202.75 -260.450195312 203 -259.5 c 0
 204.200195312 -255.099609375 205.5 -253.900390625 250.950195312 -215.25 c 2
 295.5 -177.299804688 l 1
 295.5 -126.049804688 l 1
 295.5 -74.75 l 1
 152.849609375 -217.400390625 l 1
 10.25 -360 l 1
 5.099609375 -360 l 1
 0 -360 l 1
 0 -355.099609375 l 1
 0 -350.25 l 1
 147.75 -202.5 l 1
 295.5 -54.75 l 1
 295.5 5.25 l 1
 295.5 65.25 l 1
 152.849609375 -77.400390625 l 1
 10.25 -220 l 1
 5.099609375 -220 l 1
 0 -220 l 1
 0 -215.099609375 l 1
 0 -210.25 l 1
 147.75 -62.5 l 1
 295.5 85.25 l 1
 295.5 95 l 1
 295.5 104.75 l 1
 270.650390625 130.150390625 l 1
 245.799804688 155.599609375 l 1
 128.049804688 37.7998046875 l 1
 10.2998046875 -80 l 1
 5.150390625 -80 l 1
 0 -80 l 1
 0 -75.099609375 l 1
 0 -70.25 l 1
 117.75 47.5 l 2
 182.5 112.25 235.5 165.450195312 235.5 165.650390625 c 0
 235.5 165.900390625 228.799804688 172.950195312 220.549804688 181.349609375 c 0
 210.75 191.299804688 205.150390625 197.450195312 204.200195312 199.150390625 c 2
 202.75 201.75 l 1
 202.5 226.950195312 l 1
 202.25 252.150390625 l 1
 106.5 156.099609375 l 1
 10.75 60 l 1
 5.400390625 60 l 1
 0 60 l 1
 0 64.650390625 l 1
 0 69.349609375 l 1
 98.75 168.400390625 l 2
 153.049804688 222.849609375 197.5 267.549804688 197.5 267.700195312 c 0
 197.5 267.849609375 190.450195312 268 181.900390625 268.099609375 c 0
 166.5 268.25 166.200195312 268.25 163.799804688 269.450195312 c 0
 160.650390625 271 157.700195312 273.950195312 156.299804688 276.950195312 c 0
 155.25 279.200195312 155.25 279.849609375 155 309.5 c 2
 154.75 339.75 l 1
 82.900390625 269.849609375 l 1
 11.0498046875 200 l 1
 5.5 200 l 1
 0 200 l 1
 0 205.5 l 1
 0 210.950195312 l 1
 77.349609375 285.599609375 l 1
 154.75 360.25 l 1
 155.049804688 363.099609375 l 2
 155.849609375 370.450195312 161.900390625 376.200195312 169.599609375 376.849609375 c 2
 172.549804688 377.150390625 l 1
 234.150390625 435.650390625 l 2
 268.049804688 467.799804688 296.75 495.099609375 298 496.299804688 c 2
 300.299804688 498.5 l 1
 308.75 499.200195312 l 2
811.5 322.25 m 1
 811.5 345 l 1
 499 345 l 1
 186.5 345 l 1
 186.5 322.25 l 1
 186.5 299.5 l 1
 499 299.5 l 1
 811.5 299.5 l 1
 811.5 322.25 l 1
764 240.400390625 m 1
 764 268 l 1
 499 268 l 1
 234 268 l 1
 234 240.400390625 l 1
 234.049804688 212.75 l 1
 257.900390625 188.450195312 l 2
 323.700195312 121.5 324.450195312 120.700195312 325.900390625 117.650390625 c 2
 327.25 114.75 l 1
 327.25 -36.75 l 1
 327.25 -188.25 l 1
 326.099609375 -190.799804688 l 2
 325.450195312 -192.25 323.700195312 -194.549804688 322.099609375 -196.099609375 c 0
 320.549804688 -197.650390625 306.25 -209.950195312 290.349609375 -223.450195312 c 2
 261.450195312 -248 l 1
 499 -248 l 1
 736.5 -248 l 1
 734.650390625 -246.349609375 l 2
 733.599609375 -245.400390625 720.599609375 -234.349609375 705.75 -221.75 c 0
 690.900390625 -209.150390625 677.549804688 -197.700195312 676.099609375 -196.299804688 c 0
 674.650390625 -194.900390625 672.849609375 -192.5 672.099609375 -191 c 2
 670.75 -188.25 l 1
 670.75 -36.75 l 1
 670.75 114.75 l 1
 672.099609375 117.650390625 l 2
 673.549804688 120.700195312 673.400390625 120.549804688 740.150390625 188.5 c 2
 763.950195312 212.75 l 1
 764 240.400390625 l 1
764 -334.5 m 1
 764 -280 l 1
 499 -280 l 1
 234 -280 l 1
 234 -334.5 l 1
 234 -389 l 1
 272.75 -389 l 1
 311.450195312 -389 l 1
 311.599609375 -363.099609375 l 1
 311.75 -337.25 l 1
 313.150390625 -334.400390625 l 2
 314.849609375 -330.900390625 318.200195312 -327.849609375 321.799804688 -326.5 c 0
 324.5 -325.5 325.5 -325.5 374 -325.5 c 0
 422.5 -325.5 423.5 -325.5 426.200195312 -326.5 c 0
 429.799804688 -327.849609375 433.150390625 -330.900390625 434.849609375 -334.400390625 c 2
 436.25 -337.25 l 1
 436.400390625 -363.099609375 l 1
 436.549804688 -389 l 1
 499 -389 l 1
 561.450195312 -389 l 1
 561.599609375 -363.099609375 l 1
 561.75 -337.25 l 1
 563.150390625 -334.400390625 l 2
 564.849609375 -330.900390625 568.200195312 -327.849609375 571.799804688 -326.5 c 0
 574.5 -325.5 575.5 -325.5 624 -325.5 c 0
 672.5 -325.5 673.5 -325.5 676.200195312 -326.5 c 0
 679.799804688 -327.849609375 683.150390625 -330.900390625 684.849609375 -334.400390625 c 2
 686.25 -337.25 l 1
 686.400390625 -363.099609375 l 1
 686.549804688 -389 l 1
 725.25 -389 l 1
 764 -389 l 1
 764 -334.5 l 1
918.700195312 -411.099609375 m 2
 988.099609375 -340 l 1
 994.049804688 -340 l 1
 1000 -340 l 1
 1000 -344.150390625 l 1
 1000 -348.299804688 l 1
 925.950195312 -424.150390625 l 1
 851.900390625 -500 l 1
 841.849609375 -500 l 1
 831.849609375 -500 l 1
 840.549804688 -491.099609375 l 2
 845.349609375 -486.25 880.5 -450.25 918.700195312 -411.099609375 c 2
EndSplineSet
EndChar

StartChar: F
Encoding: 70 70 24
Width: 1000
Flags: H
LayerCount: 2
Fore
SplineSet
74.0498046875 424.150390625 m 1
 148.099609375 500 l 1
 158.150390625 500 l 1
 168.150390625 500 l 1
 159.200195312 490.849609375 l 2
 154.299804688 485.849609375 119.099609375 449.849609375 81.0498046875 410.849609375 c 2
 11.900390625 340 l 1
 5.9501953125 340 l 1
 0 340 l 1
 0 344.150390625 l 1
 0 348.299804688 l 1
 74.0498046875 424.150390625 l 1
308.75 499.200195312 m 2
 313.450195312 499.549804688 317.799804688 499.900390625 318.5 499.950195312 c 0
 319.650390625 500 319.5 499.799804688 317.25 497.549804688 c 0
 315.849609375 496.25 246.400390625 428.75 162.900390625 347.549804688 c 2
 11 200 l 1
 5.5 200 l 1
 0 200 l 1
 0 205.5 l 1
 0 210.950195312 l 1
 77.400390625 285.599609375 l 2
 119.950195312 326.650390625 186.25 390.150390625 224.75 426.700195312 c 0
 263.25 463.25 296 494.349609375 297.5 495.799804688 c 2
 300.299804688 498.5 l 1
 308.75 499.200195312 l 2
359.049804688 429.5 m 1
 429.150390625 500 l 1
 439.200195312 500 l 1
 449.25 500 l 1
 419.75 470.400390625 l 2
 403.5 454.099609375 371.900390625 422.349609375 349.5 399.900390625 c 2
 308.75 359 l 1
 368.799804688 359 l 1
 428.799804688 359 l 1
 499.200195312 429.5 l 1
 569.650390625 500 l 1
 579.450195312 499.900390625 l 1
 589.25 499.75 l 1
 519.150390625 429.5 l 1
 449.049804688 359.25 l 1
 508.900390625 359.099609375 l 1
 568.75 359 l 1
 639.25 429.5 l 1
 709.75 500 l 1
 719.75 500 l 1
 729.75 500 l 1
 659.25 429.5 l 1
 588.75 359 l 1
 648.75 359 l 1
 708.75 359 l 1
 779.25 429.5 l 1
 849.75 500 l 1
 859.75 500 l 1
 869.75 500 l 1
 799.25 429.5 l 1
 728.75 359 l 1
 775.150390625 359 l 1
 821.5 359 l 1
 821.5 345.400390625 l 1
 821.5 331.75 l 1
 905.650390625 415.900390625 l 1
 989.75 500 l 1
 994.900390625 500 l 1
 1000 500 l 1
 1000 495.099609375 l 1
 1000 490.25 l 1
 910.75 401 l 1
 821.5 311.75 l 1
 821.5 298.650390625 l 1
 821.5 285.5 l 1
 808.400390625 285.5 l 1
 795.25 285.5 l 1
 783.650390625 273.900390625 l 1
 772 262.25 l 1
 772 231.700195312 l 1
 772 201.150390625 l 1
 730.25 156.700195312 l 1
 688.5 112.25 l 1
 688.5 85.5 l 1
 688.5 58.75 l 1
 839.150390625 209.400390625 l 1
 989.75 360 l 1
 994.900390625 360 l 1
 1000 360 l 1
 1000 355.099609375 l 1
 1000 350.25 l 1
 844.25 194.5 l 1
 688.5 38.75 l 1
 688.5 -21.25 l 1
 688.5 -81.25 l 1
 839.150390625 69.400390625 l 1
 989.75 220 l 1
 994.900390625 220 l 1
 1000 220 l 1
 1000 215.099609375 l 1
 1000 210.25 l 1
 844.25 54.5 l 1
 688.5 -101.25 l 1
 688.549804688 -142.5 l 1
 688.549804688 -183.75 l 1
 698.849609375 -191.5 l 2
 704.5 -195.75 709.400390625 -199.299804688 709.700195312 -199.400390625 c 0
 710 -199.450195312 773.150390625 -136.650390625 849.950195312 -59.75 c 2
 989.700195312 80 l 1
 994.849609375 80 l 1
 1000 80 l 1
 1000 75.150390625 l 1
 1000 70.25 l 1
 860.700195312 -69.0498046875 l 1
 721.349609375 -208.400390625 l 1
 724.049804688 -210.450195312 l 2
 725.549804688 -211.599609375 739.900390625 -222.5 756 -234.650390625 c 2
 785.25 -256.75 l 1
 785.5 -260.450195312 l 1
 785.75 -264.150390625 l 1
 887.5 -162.099609375 l 1
 989.299804688 -60 l 1
 994.650390625 -60 l 1
 1000 -60 l 1
 1000 -64.7001953125 l 1
 1000 -69.349609375 l 1
 892.75 -176.900390625 l 1
 785.5 -284.450195312 l 1
 785.5 -337.700195312 l 1
 785.5 -391 l 1
 732.400390625 -391 l 1
 679.25 -390.950195312 l 1
 625 -445.5 l 1
 570.75 -500.049804688 l 1
 560.950195312 -499.900390625 l 1
 551.099609375 -499.75 l 1
 611.799804688 -438.75 l 1
 672.450195312 -377.75 l 1
 672.5 -354.599609375 l 1
 672.5 -331.5 l 1
 635.650390625 -331.5 l 1
 598.75 -331.5 l 1
 584.150390625 -346.099609375 l 1
 569.5 -360.75 l 1
 569.5 -375.849609375 l 1
 569.5 -391 l 1
 554.349609375 -391 l 1
 539.150390625 -391 l 1
 484.799804688 -445.5 l 1
 430.400390625 -500 l 1
 420.549804688 -499.900390625 l 1
 410.75 -499.75 l 1
 464.950195312 -445.349609375 l 1
 519.200195312 -391 l 1
 474.849609375 -391 l 1
 430.5 -391 l 1
 430.5 -375.400390625 l 1
 430.5 -359.75 l 1
 360.349609375 -429.900390625 l 1
 290.25 -500 l 1
 280.25 -500 l 1
 270.25 -500 l 1
 350.400390625 -419.849609375 l 1
 430.5 -339.75 l 1
 430.5 -335.599609375 l 1
 430.5 -331.5 l 1
 379 -331.5 l 1
 327.5 -331.5 l 1
 327.5 -361.25 l 1
 327.5 -391 l 1
 293.349609375 -391 l 1
 259.25 -391 l 1
 204.75 -445.5 l 1
 150.25 -500 l 1
 140.25 -500 l 1
 130.25 -500 l 1
 184.75 -445.5 l 1
 239.25 -391 l 1
 226.849609375 -391 l 1
 214.5 -391 l 1
 214.5 -343.400390625 l 1
 214.5 -295.75 l 1
 112.349609375 -397.900390625 l 1
 10.25 -500 l 1
 5.099609375 -500 l 1
 0 -500 l 1
 0 -495.099609375 l 1
 0 -490.25 l 1
 107.25 -383 l 1
 214.5 -275.75 l 1
 214.599609375 -266.25 l 1
 214.75 -256.75 l 1
 253.25 -227.599609375 l 1
 291.75 -198.5 l 1
 301.599609375 -188.650390625 l 1
 311.5 -178.75 l 1
 311.5 -118.75 l 1
 311.5 -58.75 l 1
 160.849609375 -209.400390625 l 1
 10.25 -360 l 1
 5.099609375 -360 l 1
 0 -360 l 1
 0 -355.099609375 l 1
 0 -350.25 l 1
 155.75 -194.5 l 1
 311.5 -38.75 l 1
 311.5 21.25 l 1
 311.5 81.25 l 1
 160.849609375 -69.400390625 l 1
 10.25 -220 l 1
 5.099609375 -220 l 1
 0 -220 l 1
 0 -215.099609375 l 1
 0 -210.25 l 1
 155.75 -54.5 l 1
 311.5 101.25 l 1
 311.5 107.049804688 l 1
 311.5 112.900390625 l 1
 285.5 140.549804688 l 2
 271.150390625 155.799804688 259.299804688 168.299804688 259.099609375 168.400390625 c 0
 258.900390625 168.450195312 202.849609375 112.599609375 134.5 44.25 c 2
 10.2998046875 -80 l 1
 5.150390625 -80 l 1
 0 -80 l 1
 0 -75.099609375 l 1
 0 -70.25 l 1
 124.5 54.25 l 2
 193 122.700195312 249 178.900390625 249 179.049804688 c 0
 249 179.200195312 244.400390625 184.25 238.75 190.25 c 2
 228.5 201.200195312 l 1
 228.450195312 212.200195312 l 2
 228.400390625 218.299804688 228.200195312 235.5 228.049804688 250.450195312 c 2
 227.75 277.650390625 l 1
 119.200195312 168.849609375 l 1
 10.7001953125 60 l 1
 5.349609375 60 l 1
 0 60 l 1
 0 64.7001953125 l 1
 0 69.349609375 l 1
 107.650390625 177.299804688 l 1
 215.25 285.25 l 1
 196.900390625 285.400390625 l 1
 178.5 285.5 l 1
 178.5 322.25 l 1
 178.5 359 l 1
 233.700195312 359 l 1
 288.900390625 359 l 1
 359.049804688 429.5 l 1
368.75 299 m 0
 369.400390625 300.049804688 264.75 299.200195312 254.75 298.049804688 c 0
 248.650390625 297.349609375 246.799804688 296.5 244.400390625 293.25 c 0
 240.049804688 287.5 239.950195312 281.950195312 244 276.299804688 c 0
 246.900390625 272.25 247.5 272.049804688 256.5 271.450195312 c 0
 267.299804688 270.799804688 339.599609375 270 340.25 270.549804688 c 0
 340.900390625 271.200195312 360.650390625 271.150390625 360.25 270.5 c 0
 359.799804688 269.75 728.349609375 270.200195312 738.950195312 270.950195312 c 0
 750.349609375 271.700195312 751.75 272.099609375 754.599609375 275.099609375 c 0
 760.400390625 281.200195312 760.400390625 288.599609375 754.549804688 294.549804688 c 0
 751.900390625 297.200195312 751.549804688 297.400390625 748.75 297.700195312 c 0
 738.849609375 298.75 668.849609375 299.450195312 668.25 298.5 c 0
 668.049804688 298.200195312 664.150390625 298 658.150390625 298 c 0
 649.700195312 298 648.450195312 298.099609375 648.700195312 298.75 c 0
 648.950195312 299.400390625 642.099609375 299.5 589 299.5 c 0
 549.599609375 299.5 528.950195312 299.349609375 528.75 299 c 0
 528.549804688 298.700195312 524.549804688 298.5 518.450195312 298.5 c 0
 511.900390625 298.5 508.549804688 298.650390625 508.75 299 c 0
 508.950195312 299.349609375 488.950195312 299.5 449.049804688 299.5 c 0
 409.599609375 299.5 388.950195312 299.349609375 388.75 299 c 0
 388.549804688 298.700195312 384.549804688 298.5 378.450195312 298.5 c 0
 371.900390625 298.5 368.549804688 298.650390625 368.75 299 c 0
773.75 284 m 2
 775.200195312 285.5 l 1
 773.599609375 285.5 l 2
 772.150390625 285.5 772 285.349609375 772 284 c 0
 772 283.200195312 772.049804688 282.5 772.150390625 282.5 c 0
 772.25 282.5 772.950195312 283.200195312 773.75 284 c 2
285.049804688 215.349609375 m 0
 285.5 215.849609375 285.349609375 216 284.450195312 215.900390625 c 0
 283.799804688 215.849609375 277.5 215.700195312 270.5 215.5 c 0
 251.25 214.950195312 248.549804688 214.5 245.549804688 211.25 c 0
 242.349609375 207.799804688 241.299804688 205.299804688 241.25 201.25 c 0
 241.25 197.049804688 242.5 194.200195312 245.799804688 190.950195312 c 0
 247.900390625 188.900390625 247.950195312 188.849609375 253 188.349609375 c 0
 256.700195312 188 258.200195312 188 258.650390625 188.450195312 c 0
 259.049804688 188.849609375 259 189 258.450195312 189 c 0
 256.099609375 189 249.099609375 190.150390625 247.450195312 190.849609375 c 0
 245 191.799804688 243.900390625 193.349609375 242.549804688 197.700195312 c 0
 241.549804688 200.950195312 241.549804688 201.349609375 242.25 203.700195312 c 0
 242.650390625 205.099609375 243.599609375 207.400390625 244.400390625 208.75 c 0
 245.549804688 210.900390625 246.099609375 211.349609375 248.25 212.099609375 c 0
 251.700195312 213.25 259.75 213.950195312 273.150390625 214.349609375 c 0
 281.700195312 214.599609375 284.650390625 214.799804688 285.049804688 215.349609375 c 0
425.25 215.5 m 0
 425.049804688 215.150390625 404.400390625 215 364.849609375 215 c 0
 325.849609375 215 305 215.200195312 305.5 215.5 c 0
 306.549804688 216.200195312 425.650390625 216.200195312 425.25 215.5 c 0
565.25 215.5 m 0
 565.049804688 215.150390625 544.5 215 505.200195312 215 c 0
 465.75 215 445.5 215.150390625 445.5 215.5 c 0
 445.5 215.849609375 465.849609375 216 505.549804688 216 c 0
 545.400390625 216 565.450195312 215.849609375 565.25 215.5 c 0
693.25 215.549804688 m 0
 700.25 215.349609375 680.200195312 215.150390625 645.400390625 215.099609375 c 0
 605.75 215.049804688 585.5 215.150390625 585.5 215.5 c 0
 585.5 216.049804688 673.349609375 216.099609375 693.25 215.549804688 c 0
750.450195312 214.150390625 m 0
 749.5 214.349609375 743.25 214.549804688 736.5 214.700195312 c 0
 725.650390625 214.900390625 725.099609375 214.849609375 731.5 214.450195312 c 0
 746.650390625 213.5 750.900390625 213.099609375 752.400390625 212.299804688 c 0
 754.099609375 211.400390625 756.549804688 208.150390625 757.400390625 205.549804688 c 0
 758.900390625 201.25 757.400390625 195.950195312 753.700195312 192.400390625 c 0
 750.049804688 188.950195312 750.650390625 189 722.900390625 188.549804688 c 0
 704.450195312 188.200195312 697.75 187.950195312 697.299804688 187.5 c 0
 696.599609375 186.75 736.150390625 187.200195312 744.5 188 c 0
 751.099609375 188.650390625 753.200195312 189.650390625 755.849609375 193.25 c 0
 759.25 197.799804688 759.799804688 202.950195312 757.450195312 207.549804688 c 0
 755.950195312 210.549804688 752.5 213.799804688 750.450195312 214.150390625 c 0
336.75 187.700195312 m 0
 366.75 187.549804688 392.5 187.200195312 394 187 c 0
 397 186.599609375 318.599609375 186.849609375 293.650390625 187.299804688 c 0
 283.599609375 187.5 278.099609375 187.799804688 278.299804688 188.099609375 c 0
 278.5 188.349609375 279.450195312 188.450195312 280.450195312 188.299804688 c 0
 281.450195312 188.150390625 306.799804688 187.900390625 336.75 187.700195312 c 0
677 187.25 m 0
 676.450195312 186.599609375 669.099609375 186.5 616.349609375 186.5 c 0
 583.349609375 186.5 556.5 186.650390625 556.700195312 186.900390625 c 0
 556.900390625 187.099609375 576.150390625 187.349609375 599.400390625 187.5 c 0
 622.700195312 187.650390625 649.799804688 187.799804688 659.700195312 187.900390625 c 0
 675.599609375 188 677.549804688 187.900390625 677 187.25 c 0
536.75 187 m 0
 536.549804688 186.650390625 516.099609375 186.549804688 476.599609375 186.599609375 c 2
 416.75 186.75 l 1
 461.5 187 l 2
 486.099609375 187.150390625 513.200195312 187.299804688 521.650390625 187.400390625 c 0
 531.849609375 187.450195312 536.950195312 187.349609375 536.75 187 c 0
668.349609375 123.400390625 m 0
 666.400390625 125.349609375 664.5 127 664.099609375 127 c 0
 663.75 127 664.900390625 125.349609375 666.75 123.400390625 c 0
 671.799804688 117.950195312 673.150390625 115.75 673.400390625 112.700195312 c 0
 673.700195312 109.25 672.5 106.849609375 668.200195312 102.150390625 c 2
 664.900390625 98.5 l 1
 637 98.5 l 2
 621.650390625 98.5 608.75 98.349609375 608.299804688 98.2001953125 c 0
 607.849609375 98.0498046875 607.5 97.7001953125 607.5 97.4501953125 c 0
 607.5 97.2001953125 619.700195312 97 636.200195312 97 c 2
 664.849609375 97 l 1
 668.5 100.799804688 l 2
 672.849609375 105.400390625 674.200195312 108.099609375 674.200195312 112.25 c 0
 674.200195312 116.200195312 672.900390625 118.700195312 668.349609375 123.400390625 c 0
332.799804688 123.75 m 0
 333.799804688 125 334.5 126 334.400390625 126 c 0
 333.950195312 126 328.150390625 119.75 327.549804688 118.599609375 c 0
 326.450195312 116.549804688 327.299804688 116.900390625 329.200195312 119.25 c 0
 330.200195312 120.5 331.799804688 122.5 332.799804688 123.75 c 0
333.75 100 m 2
 335.200195312 98.5 l 1
 391.650390625 98.5 l 2
 441.799804688 98.5 448.049804688 98.400390625 447.5 97.75 c 0
 446.950195312 97.099609375 440.049804688 97 391.099609375 97 c 2
 335.299804688 97 l 1
 333.400390625 98.849609375 l 2
 332.349609375 99.849609375 331.5 100.900390625 331.5 101.099609375 c 0
 331.5 101.900390625 332.349609375 101.5 333.75 100 c 2
587.5 97.75 m 0
 586.950195312 97.099609375 579.650390625 97 527.200195312 97 c 0
 491.349609375 97 467.5 97.2001953125 467.5 97.4501953125 c 0
 467.5 97.7001953125 467.799804688 98.0498046875 468.150390625 98.150390625 c 0
 468.450195312 98.2998046875 495.599609375 98.4501953125 528.450195312 98.4501953125 c 0
 581.450195312 98.5 588.049804688 98.400390625 587.5 97.75 c 0
431.400390625 -168.849609375 m 0
 415 -168.950195312 388 -168.950195312 371.400390625 -168.849609375 c 0
 354.799804688 -168.799804688 368.25 -168.75 401.25 -168.75 c 0
 434.25 -168.75 447.799804688 -168.799804688 431.400390625 -168.849609375 c 0
571.400390625 -168.849609375 m 0
 555 -168.950195312 528 -168.950195312 511.400390625 -168.849609375 c 0
 494.799804688 -168.799804688 508.25 -168.75 541.25 -168.75 c 0
 574.25 -168.75 587.799804688 -168.799804688 571.400390625 -168.849609375 c 0
668.349609375 -172.099609375 m 2
 664.849609375 -168.5 l 1
 643.049804688 -168.599609375 l 1
 621.25 -168.75 l 1
 642.849609375 -168.849609375 l 1
 664.450195312 -169 l 1
 667.5 -172.400390625 l 2
 671.150390625 -176.450195312 673.5 -180.849609375 673.5 -183.75 c 0
 673.5 -186.5 671.700195312 -189.950195312 668 -194.25 c 2
 665.049804688 -197.75 l 1
 628.400390625 -198 l 1
 591.75 -198.25 l 1
 628.299804688 -198.400390625 l 1
 664.849609375 -198.5 l 1
 668.349609375 -194.849609375 l 2
 672.950195312 -190.099609375 674.200195312 -187.700195312 674.200195312 -183.5 c 0
 674.200195312 -179.299804688 672.950195312 -176.900390625 668.349609375 -172.099609375 c 2
329.25 -190.849609375 m 0
 328.450195312 -189.799804688 327.450195312 -187.799804688 327 -186.450195312 c 0
 326.049804688 -183.75 325.400390625 -183.599609375 326 -186.25 c 0
 326.599609375 -188.950195312 328.650390625 -191.950195312 332.099609375 -195.400390625 c 2
 335.299804688 -198.5 l 1
 383.75 -198.349609375 l 1
 432.25 -198.25 l 1
 383.700195312 -198.099609375 l 1
 335.200195312 -198 l 1
 332.950195312 -195.349609375 l 2
 331.700195312 -193.950195312 330.049804688 -191.900390625 329.25 -190.849609375 c 0
541.900390625 -198.349609375 m 0
 525.5 -198.450195312 498.5 -198.450195312 481.900390625 -198.349609375 c 0
 465.299804688 -198.299804688 478.75 -198.25 511.75 -198.25 c 0
 544.75 -198.25 558.299804688 -198.299804688 541.900390625 -198.349609375 c 0
245.75 -244.5 m 0
 245.950195312 -244.200195312 244.200195312 -244 240.799804688 -244 c 2
 235.599609375 -244 l 1
 232.25 -247.599609375 l 2
 228.299804688 -251.849609375 226.5 -255.299804688 226.5 -258.5 c 0
 226.5 -261.25 226.950195312 -263.099609375 227.549804688 -262.75 c 0
 227.75 -262.599609375 228.400390625 -263.299804688 228.950195312 -264.349609375 c 0
 229.450195312 -265.400390625 231.400390625 -268 233.25 -270.099609375 c 2
 236.650390625 -274 l 1
 500.25 -274 l 1
 763.849609375 -274 l 1
 767.599609375 -270.099609375 l 2
 772.099609375 -265.5 773.049804688 -263.75 773.400390625 -259.700195312 c 0
 773.700195312 -255.599609375 772.25 -252.5 767.75 -247.599609375 c 2
 764.400390625 -244 l 1
 725.25 -244 l 2
 699.650390625 -244 685.950195312 -244.150390625 685.75 -244.5 c 0
 685.549804688 -244.799804688 681.549804688 -245 675.450195312 -245 c 0
 668.900390625 -245 665.549804688 -244.849609375 665.75 -244.5 c 0
 665.950195312 -244.150390625 645.950195312 -244 606.049804688 -244 c 0
 566.599609375 -244 545.950195312 -244.150390625 545.75 -244.5 c 0
 545.549804688 -244.799804688 541.549804688 -245 535.450195312 -245 c 0
 528.900390625 -245 525.549804688 -244.849609375 525.75 -244.5 c 0
 525.950195312 -244.150390625 505.950195312 -244 466.049804688 -244 c 0
 426.599609375 -244 405.950195312 -244.150390625 405.75 -244.5 c 0
 405.549804688 -244.799804688 401.549804688 -245 395.450195312 -245 c 0
 388.900390625 -245 385.549804688 -244.849609375 385.75 -244.5 c 0
 385.950195312 -244.150390625 365.950195312 -244 326.049804688 -244 c 0
 286.599609375 -244 265.950195312 -244.150390625 265.75 -244.5 c 0
 265.549804688 -244.799804688 261.549804688 -245 255.450195312 -245 c 0
 248.900390625 -245 245.549804688 -244.849609375 245.75 -244.5 c 0
574.25 -336 m 2
 578.75 -331.5 l 1
 574.099609375 -331.5 l 1
 569.5 -331.5 l 1
 569.5 -336 l 2
 569.5 -338.450195312 569.549804688 -340.5 569.650390625 -340.5 c 0
 569.700195312 -340.5 571.799804688 -338.450195312 574.25 -336 c 2
933 -264.349609375 m 0
 969.700195312 -229 999.799804688 -200.049804688 999.900390625 -200.049804688 c 0
 999.950195312 -200 1000 -204 1000 -208.900390625 c 2
 1000 -217.799804688 l 1
 855.5 -358.900390625 l 1
 711 -500 l 1
 705.5 -500 l 1
 700 -500 l 1
 700 -494.5 l 1
 700 -489 l 1
 783.150390625 -408.849609375 l 2
 828.849609375 -364.75 896.299804688 -299.75 933 -264.349609375 c 0
918.700195312 -411.099609375 m 2
 988.099609375 -340 l 1
 994.049804688 -340 l 1
 1000 -340 l 1
 1000 -344.150390625 l 1
 1000 -348.299804688 l 1
 925.950195312 -424.150390625 l 1
 851.900390625 -500 l 1
 841.849609375 -500 l 1
 831.849609375 -500 l 1
 840.549804688 -491.099609375 l 2
 845.349609375 -486.25 880.5 -450.25 918.700195312 -411.099609375 c 2
EndSplineSet
EndChar

StartChar: K
Encoding: 75 75 25
Width: 1000
Flags: H
LayerCount: 2
Fore
SplineSet
74.0498046875 424.150390625 m 1
 148.099609375 500 l 1
 158.150390625 500 l 1
 168.150390625 500 l 1
 159.200195312 490.849609375 l 2
 154.299804688 485.849609375 119.099609375 449.849609375 81.0498046875 410.849609375 c 2
 11.900390625 340 l 1
 5.9501953125 340 l 1
 0 340 l 1
 0 344.150390625 l 1
 0 348.299804688 l 1
 74.0498046875 424.150390625 l 1
308.75 499.200195312 m 2
 313.450195312 499.549804688 317.799804688 499.900390625 318.5 499.950195312 c 0
 319.650390625 500 319.5 499.799804688 317.25 497.549804688 c 0
 315.849609375 496.25 246.400390625 428.75 162.900390625 347.549804688 c 2
 11 200 l 1
 5.5 200 l 1
 0 200 l 1
 0 205.5 l 1
 0 210.950195312 l 1
 77.400390625 285.599609375 l 2
 119.950195312 326.650390625 186.25 390.150390625 224.75 426.700195312 c 0
 263.25 463.25 296 494.349609375 297.5 495.799804688 c 2
 300.299804688 498.5 l 1
 308.75 499.200195312 l 2
280.349609375 350.549804688 m 1
 429.25 500 l 1
 439.200195312 500 l 1
 449.099609375 500 l 1
 390.599609375 441.150390625 l 2
 358.400390625 408.75 323.700195312 373.950195312 313.5 363.75 c 0
 303.299804688 353.599609375 265.400390625 315.549804688 229.349609375 279.299804688 c 0
 178 227.650390625 164.099609375 213.400390625 165.25 213.650390625 c 0
 166.099609375 213.799804688 169.25 214.549804688 172.25 215.200195312 c 0
 200.450195312 221.650390625 233.099609375 219.099609375 268.400390625 207.75 c 2
 275.299804688 205.5 l 1
 361.150390625 291.400390625 l 1
 447 377.25 l 1
 440.599609375 377.549804688 l 2
 437.099609375 377.75 431.700195312 377.900390625 428.650390625 377.950195312 c 2
 423 378 l 1
 423 392 l 1
 423 406 l 1
 426.900390625 406 l 2
 429 406 441.200195312 406.349609375 454 406.75 c 2
 477.25 407.549804688 l 1
 481.900390625 412.150390625 l 1
 486.549804688 416.799804688 l 1
 487.299804688 432.549804688 l 2
 487.700195312 441.200195312 488.150390625 448.549804688 488.25 448.900390625 c 0
 488.450195312 449.400390625 491.450195312 449.5 502.099609375 449.400390625 c 2
 515.75 449.25 l 1
 516 447.799804688 l 2
 516.25 446.450195312 517.599609375 447.700195312 542.849609375 473.200195312 c 2
 569.450195312 500 l 1
 579.349609375 499.900390625 l 1
 589.25 499.75 l 1
 553.25 463.549804688 l 1
 517.25 427.349609375 l 1
 517.400390625 417.799804688 l 2
 517.5 412.549804688 517.700195312 408.150390625 517.849609375 408 c 0
 517.950195312 407.849609375 526.450195312 407.5 536.650390625 407.200195312 c 0
 546.900390625 406.849609375 560.599609375 406.450195312 567.150390625 406.25 c 2
 579 405.849609375 l 1
 579 391.950195312 l 1
 579 378 l 1
 577.900390625 378 l 2
 574.549804688 378.049804688 523.25 376.400390625 520.650390625 376.200195312 c 2
 517.5 375.900390625 l 1
 517.5 342.75 l 2
 517.5 318.849609375 517.650390625 309.450195312 518.049804688 309.200195312 c 0
 518.400390625 309 557.299804688 347.549804688 614.200195312 404.450195312 c 2
 709.75 500 l 1
 719.75 500 l 1
 729.75 500 l 1
 630.849609375 401.099609375 l 1
 531.950195312 302.200195312 l 1
 533.849609375 301.299804688 l 2
 540.75 298.049804688 550.799804688 291.299804688 557.650390625 285.299804688 c 0
 567.599609375 276.599609375 579.799804688 258.200195312 585.75 242.799804688 c 2
 587.650390625 237.900390625 l 1
 718.700195312 368.950195312 l 1
 849.75 500 l 1
 859.75 500 l 1
 869.75 500 l 1
 730.900390625 361.150390625 l 1
 592 222.25 l 1
 592.950195312 217 l 2
 594.599609375 207.799804688 595.200195312 200.549804688 595.150390625 188.75 c 0
 595.099609375 173.400390625 593.049804688 155.049804688 589.799804688 141 c 0
 588.5 135.400390625 586.5 123.349609375 586.5 121.099609375 c 2
 586.5 118.950195312 l 1
 588.049804688 119.849609375 l 2
 590.599609375 121.349609375 598.200195312 127.25 608.75 135.900390625 c 0
 626.75 150.650390625 642.25 161.900390625 658 171.700195312 c 2
 666.75 177.099609375 l 1
 828.25 338.549804688 l 1
 989.75 500 l 1
 994.900390625 500 l 1
 1000 500 l 1
 1000 495.099609375 l 1
 1000 490.25 l 1
 854.25 344.5 l 2
 774.099609375 264.349609375 708.599609375 198.75 708.700195312 198.650390625 c 0
 708.75 198.549804688 711.599609375 199.650390625 715.049804688 201.049804688 c 0
 733.549804688 208.650390625 756.799804688 214.900390625 774.849609375 217.25 c 0
 795.650390625 219.900390625 814.099609375 218.950195312 834.299804688 214.150390625 c 2
 842.049804688 212.299804688 l 1
 915.900390625 286.150390625 l 1
 989.75 360 l 1
 994.900390625 360 l 1
 1000 360 l 1
 1000 355.150390625 l 1
 1000 350.25 l 1
 928.5 278.75 l 1
 856.950195312 207.200195312 l 1
 859.849609375 206.049804688 l 2
 868.900390625 202.349609375 882.450195312 194.299804688 890.549804688 187.75 c 0
 901.349609375 179.049804688 911.5 168.349609375 918.650390625 158.25 c 0
 920.599609375 155.5 922.25 153.150390625 922.349609375 153 c 0
 922.450195312 152.900390625 937.650390625 167.900390625 956.150390625 186.400390625 c 2
 989.75 220 l 1
 994.900390625 220 l 1
 1000 220 l 1
 1000 215.150390625 l 1
 1000 210.25 l 1
 964.950195312 175.200195312 l 1
 929.849609375 140.099609375 l 1
 932.349609375 134.450195312 l 2
 936.25 125.700195312 938.400390625 119.5 940.5 111.299804688 c 0
 944.200195312 96.650390625 945.25 87.2998046875 944.849609375 72.5 c 0
 944.450195312 58.150390625 942.5 47.2001953125 937.5 31.75 c 2
 935.549804688 25.75 l 1
 962.5 52.900390625 l 1
 989.400390625 80 l 1
 994.700195312 80 l 1
 1000 80 l 1
 1000 75.150390625 l 1
 1000 70.25 l 1
 955.549804688 25.75 l 2
 912.650390625 -17.25 911 -19 906.450195312 -25.5 c 0
 902.099609375 -31.75 897.049804688 -38.5498046875 878.200195312 -63.5 c 0
 855.5 -93.5498046875 840 -117.200195312 819.849609375 -152.25 c 2
 813.549804688 -163.25 l 1
 810.549804688 -197.75 l 2
 807.049804688 -237.299804688 806.599609375 -242.700195312 806.75 -242.900390625 c 0
 806.849609375 -243 847.900390625 -201.849609375 898.049804688 -151.5 c 2
 989.25 -60 l 1
 994.650390625 -60 l 1
 1000 -60 l 1
 1000 -64.650390625 l 1
 1000 -69.349609375 l 1
 902.650390625 -166.950195312 l 1
 805.349609375 -264.549804688 l 1
 805.650390625 -272.400390625 l 2
 805.799804688 -276.849609375 807.400390625 -292.700195312 809.299804688 -309 c 0
 813.099609375 -341.849609375 813.5 -349.549804688 811.650390625 -353.549804688 c 0
 809.200195312 -358.900390625 805.849609375 -361.349609375 789.599609375 -369.450195312 c 0
 752.900390625 -387.799804688 711.299804688 -401.049804688 667 -408.5 c 2
 660.75 -409.549804688 l 1
 615.849609375 -454.75 l 1
 570.900390625 -500 l 1
 560.900390625 -500 l 1
 550.900390625 -500 l 1
 593.950195312 -456.650390625 l 2
 617.599609375 -432.799804688 636.900390625 -413.200195312 636.799804688 -413.099609375 c 0
 636.700195312 -413 633.700195312 -413.25 630.150390625 -413.700195312 c 0
 603.799804688 -416.849609375 570.200195312 -418.5 531 -418.5 c 2
 511.75 -418.450195312 l 1
 471.099609375 -459.25 l 1
 430.450195312 -500 l 1
 420.599609375 -499.900390625 l 1
 410.75 -499.75 l 1
 451.200195312 -459.150390625 l 1
 491.650390625 -418.5 l 1
 471.450195312 -418.5 l 2
 436.900390625 -418.5 410.25 -417.5 387.049804688 -415.450195312 c 2
 375.799804688 -414.450195312 l 1
 333.049804688 -457.200195312 l 1
 290.25 -500 l 1
 280.25 -500 l 1
 270.25 -500 l 1
 314.200195312 -456.049804688 l 1
 358.099609375 -412.150390625 l 1
 355.200195312 -411.799804688 l 2
 350.849609375 -411.25 332.75 -408.25 325 -406.75 c 0
 306.349609375 -403.099609375 281.200195312 -396.549804688 265.700195312 -391.349609375 c 2
 260.650390625 -389.599609375 l 1
 205.450195312 -444.799804688 l 1
 150.25 -500 l 1
 140.25 -500 l 1
 130.25 -500 l 1
 188 -442.25 l 2
 219.75 -410.5 245.599609375 -384.450195312 245.5 -384.349609375 c 0
 245.349609375 -384.200195312 242.200195312 -382.900390625 238.5 -381.349609375 c 0
 223.700195312 -375.349609375 203.5 -365.599609375 197.549804688 -361.5 c 0
 193.900390625 -359.049804688 190.900390625 -355.650390625 190.049804688 -353.150390625 c 0
 188.650390625 -348.799804688 189.150390625 -335.950195312 191.299804688 -320.75 c 0
 191.599609375 -318.849609375 187 -323.349609375 100.950195312 -409.349609375 c 2
 10.25 -500 l 1
 5.099609375 -500 l 1
 0 -500 l 1
 0 -495.150390625 l 1
 0 -490.25 l 1
 97 -393.25 l 1
 194.049804688 -296.200195312 l 1
 194.75 -290 l 2
 196 -278.650390625 196.599609375 -265.450195312 196.299804688 -258 c 0
 195.900390625 -249.599609375 194.75 -235.650390625 192 -204.5 c 0
 190.900390625 -192.25 190 -181.799804688 190 -181.25 c 0
 190 -180.599609375 160.700195312 -209.549804688 100.099609375 -270.150390625 c 2
 10.25 -360 l 1
 5.099609375 -360 l 1
 0 -360 l 1
 0 -355.099609375 l 1
 0 -350.25 l 1
 93.75 -256.5 l 2
 145.299804688 -204.950195312 187.5 -162.5 187.5 -162.200195312 c 0
 187.5 -161.599609375 172.049804688 -134.849609375 166 -125 c 0
 161.400390625 -117.450195312 150.099609375 -100.25 145.150390625 -93.0498046875 c 2
 141.849609375 -88.400390625 l 1
 76.0498046875 -154.200195312 l 1
 10.25 -220 l 1
 5.099609375 -220 l 1
 0 -220 l 1
 0 -215.150390625 l 1
 0 -210.25 l 1
 66.7998046875 -143.450195312 l 1
 133.650390625 -76.599609375 l 1
 120.700195312 -59.5498046875 l 2
 103.299804688 -36.599609375 94.150390625 -24.0498046875 88.2001953125 -15.0498046875 c 0
 85.5 -10.900390625 83.099609375 -7.5498046875 82.9501953125 -7.5 c 0
 82.7998046875 -7.5 66.400390625 -23.7998046875 46.5498046875 -43.75 c 2
 10.5 -80 l 1
 5.25 -80 l 1
 0 -80 l 1
 0 -75.150390625 l 1
 0 -70.25 l 1
 37.849609375 -32.400390625 l 1
 75.7001953125 5.4501953125 l 1
 72.650390625 11.849609375 l 2
 68.9501953125 19.5498046875 66.150390625 26.5498046875 63.25 35.25 c 0
 58.75 48.849609375 57.5 58.150390625 57.5 77.75 c 0
 57.5 92.25 58.150390625 99.349609375 60.25 108.25 c 0
 60.5498046875 109.400390625 55 104.150390625 35.7001953125 84.900390625 c 2
 10.75 60 l 1
 5.349609375 60 l 1
 0 60 l 1
 0 64.5498046875 l 1
 0 69.099609375 l 1
 37 106.400390625 l 2
 73.2998046875 143.049804688 74.0498046875 143.849609375 77.150390625 149.049804688 c 0
 88.5 168.150390625 107.349609375 186.950195312 126.299804688 198.099609375 c 2
 131.450195312 201.099609375 l 1
 280.349609375 350.549804688 l 1
483.299804688 376.200195312 m 2
 481.900390625 376.349609375 477.549804688 376.549804688 473.599609375 376.599609375 c 2
 466.450195312 376.75 l 1
 378.099609375 288.349609375 l 1
 289.799804688 199.950195312 l 1
 298.049804688 196.299804688 l 2
 317.700195312 187.599609375 335.950195312 177.349609375 356.900390625 163.200195312 c 0
 361.950195312 159.799804688 366.200195312 157 366.400390625 157 c 0
 366.599609375 157 375.799804688 166.049804688 386.849609375 177.099609375 c 2
 407 197.25 l 1
 407 200 l 2
 407 201.549804688 407.349609375 205.599609375 407.75 209 c 0
 410.700195312 232.75 419.150390625 254.150390625 432.799804688 272.549804688 c 0
 443.099609375 286.349609375 452.599609375 293.549804688 474.849609375 304.299804688 c 2
 487.150390625 310.25 l 1
 486.799804688 336.75 l 2
 486.650390625 351.349609375 486.349609375 366.099609375 486.200195312 369.599609375 c 2
 485.849609375 375.950195312 l 1
 483.299804688 376.200195312 l 2
507.799804688 273.450195312 m 0
 499.349609375 274.950195312 489.200195312 273.200195312 480.450195312 268.700195312 c 0
 475.049804688 265.900390625 471.799804688 263.5 466.849609375 258.599609375 c 0
 454.299804688 246.25 446.200195312 229.349609375 443.25 209.25 c 0
 440.950195312 193.950195312 442.299804688 166.950195312 446.25 147.5 c 0
 449.900390625 129.549804688 456.950195312 107.349609375 483.099609375 31.5 c 0
 491.049804688 8.4501953125 496.200195312 -5.7001953125 498.549804688 -10.900390625 c 0
 500.200195312 -14.5498046875 501.049804688 -14.75 502.799804688 -12.099609375 c 0
 504.299804688 -9.900390625 505 -8.0498046875 521.349609375 39 c 0
 530.599609375 65.5498046875 545.25 108.900390625 547.549804688 116.450195312 c 0
 556.450195312 145.799804688 560.549804688 171.400390625 559.849609375 192.75 c 0
 559.049804688 216.150390625 554.400390625 232.400390625 543.950195312 248 c 0
 540.299804688 253.5 531.25 262.799804688 526.75 265.75 c 0
 520.849609375 269.599609375 514.099609375 272.349609375 507.799804688 273.450195312 c 0
217.849609375 182.450195312 m 0
 211.950195312 182.950195312 195 183.049804688 190.25 182.650390625 c 0
 171.549804688 181.049804688 154.400390625 175.299804688 140.599609375 166.099609375 c 0
 117.299804688 150.549804688 100.900390625 127.700195312 95.0498046875 102.5 c 0
 92.650390625 92.25 91.7998046875 76.5498046875 93 64.4501953125 c 0
 95.75 37.099609375 105.700195312 17.75 140.400390625 -27.900390625 c 0
 168.75 -65.25 184.950195312 -88.9501953125 204.700195312 -122.099609375 c 0
 213 -136.049804688 214.5 -138 217.099609375 -138 c 0
 218.049804688 -138 229.400390625 -135.650390625 242.299804688 -132.799804688 c 0
 293.599609375 -121.400390625 324.799804688 -116.150390625 380.75 -109.549804688 c 0
 401.349609375 -107.099609375 436.299804688 -104.549804688 468.950195312 -103.099609375 c 0
 479.150390625 -102.650390625 479 -102.700195312 479 -97.400390625 c 0
 479 -86.75 466.349609375 -28.5 460.349609375 -11.5 c 0
 449.049804688 20.5 424.849609375 56.0498046875 391.75 89.2998046875 c 0
 361.25 119.900390625 328.25 143.650390625 291.349609375 161.5 c 0
 266.150390625 173.700195312 242.5 180.450195312 217.849609375 182.450195312 c 0
814.450195312 182.200195312 m 0
 807.200195312 183.049804688 791.849609375 183.150390625 783.25 182.450195312 c 0
 758.150390625 180.299804688 733.349609375 172.950195312 707.349609375 159.950195312 c 0
 670.849609375 141.650390625 640.700195312 119.75 610.450195312 89.5498046875 c 0
 576.200195312 55.25 551.599609375 18.7998046875 540.799804688 -13.599609375 c 0
 535 -31.099609375 523.549804688 -83.9501953125 522.700195312 -97.5498046875 c 2
 522.349609375 -102.349609375 l 1
 529.049804688 -102.700195312 l 2
 542.25 -103.400390625 575.400390625 -105.549804688 584 -106.25 c 0
 611.5 -108.599609375 656.950195312 -113.75 672.25 -116.25 c 0
 674.75 -116.650390625 681.950195312 -117.799804688 688.25 -118.75 c 0
 715.450195312 -122.950195312 742.650390625 -128.299804688 762.349609375 -133.299804688 c 0
 777.549804688 -137.150390625 783.549804688 -138.25 784.950195312 -137.549804688 c 0
 787.799804688 -136 792.900390625 -128.900390625 803.599609375 -111.5 c 0
 823.200195312 -79.650390625 833.349609375 -65 862.549804688 -26.5 c 0
 901 24.2001953125 909.5 43.0498046875 909.5 77.75 c 0
 909.5 95.4501953125 906.150390625 109.700195312 898.349609375 125.25 c 0
 888.650390625 144.650390625 870.049804688 162.799804688 850 172.450195312 c 0
 839.049804688 177.75 828.75 180.549804688 814.450195312 182.200195312 c 0
407.5 170.75 m 0
 407.150390625 174.049804688 406.849609375 176.799804688 406.799804688 176.849609375 c 0
 406.75 176.900390625 400.25 170.5 392.299804688 162.549804688 c 2
 377.900390625 148.150390625 l 1
 385.099609375 142.400390625 l 2
 389.049804688 139.200195312 396.099609375 133.549804688 400.75 129.75 c 0
 405.450195312 126 410.599609375 122 412.25 120.900390625 c 2
 415.25 118.900390625 l 1
 415.400390625 120.349609375 l 2
 415.650390625 122.200195312 414.900390625 126.799804688 412.25 140.25 c 0
 409.75 152.849609375 408.299804688 162.150390625 407.5 170.75 c 0
545.5 -139.5 m 0
 529.700195312 -138.799804688 485.25 -138.5 469.75 -139 c 0
 447 -139.75 420.900390625 -141.349609375 400 -143.25 c 0
 390.25 -144.150390625 364.799804688 -146.900390625 363 -147.25 c 0
 362.299804688 -147.400390625 355.900390625 -148.299804688 348.75 -149.25 c 0
 330.849609375 -151.599609375 329.849609375 -151.75 316.25 -154.049804688 c 0
 286.25 -159.049804688 242.049804688 -168.299804688 230.5 -171.950195312 c 2
 226.25 -173.299804688 l 1
 226.349609375 -182.099609375 l 2
 226.5 -195.25 229.549804688 -232.450195312 231.049804688 -239.5 c 0
 231.349609375 -240.849609375 231.900390625 -242.200195312 232.25 -242.5 c 0
 233.200195312 -243.299804688 235.950195312 -242.700195312 250.75 -238.5 c 0
 302.299804688 -223.849609375 343.349609375 -215.25 391 -209.049804688 c 0
 429.099609375 -204.049804688 457.900390625 -202.299804688 501.25 -202.299804688 c 0
 529.75 -202.299804688 536.75 -202.5 560.25 -204 c 0
 616.299804688 -207.650390625 676.799804688 -218.049804688 736 -234.349609375 c 0
 751.700195312 -238.650390625 762.849609375 -241.299804688 767 -241.799804688 c 2
 769.900390625 -242.099609375 l 1
 770.450195312 -239.450195312 l 2
 772.5 -228.849609375 775.549804688 -194.900390625 775.700195312 -181.25 c 2
 775.75 -173.299804688 l 1
 771.25 -171.900390625 l 2
 763.900390625 -169.599609375 733.650390625 -162.849609375 712.349609375 -158.75 c 0
 659 -148.549804688 603.150390625 -142.099609375 545.5 -139.5 c 0
537.900390625 -238.25 m 0
 524.349609375 -237.599609375 485.099609375 -237.349609375 472.75 -237.849609375 c 0
 433.150390625 -239.450195312 390.299804688 -244 353 -250.549804688 c 0
 303.450195312 -259.299804688 247.25 -273.549804688 235.150390625 -280.5 c 0
 232.799804688 -281.849609375 232.450195312 -282.299804688 231.75 -284.650390625 c 0
 229.950195312 -291.049804688 227.799804688 -315.799804688 228.950195312 -317.5 c 0
 229.349609375 -318.099609375 232.700195312 -317.150390625 250.349609375 -311.349609375 c 0
 279.349609375 -301.900390625 292.650390625 -297.950195312 315.25 -292.299804688 c 0
 344 -285.099609375 368.849609375 -280.200195312 397.5 -276.049804688 c 0
 432.049804688 -271.049804688 445.650390625 -270.299804688 501 -270.299804688 c 0
 561.650390625 -270.299804688 577.650390625 -271.450195312 622.950195312 -279 c 0
 666.099609375 -286.200195312 704.849609375 -295.950195312 754.25 -312 c 0
 765.049804688 -315.5 771.799804688 -317.5 773 -317.5 c 0
 775.099609375 -317.5 771.049804688 -284.549804688 768.599609375 -281.799804688 c 0
 762.099609375 -274.5 680.200195312 -254.599609375 622.5 -246.299804688 c 0
 594.549804688 -242.25 568 -239.75 537.900390625 -238.25 c 0
535 -306 m 0
 510.450195312 -305.299804688 460.200195312 -305.700195312 445.75 -306.700195312 c 0
 443 -306.900390625 437.599609375 -307.25 433.75 -307.549804688 c 0
 393.900390625 -310.349609375 337.400390625 -321.200195312 286.75 -335.75 c 0
 268.099609375 -341.150390625 254.549804688 -346.299804688 253.799804688 -348.299804688 c 0
 253.599609375 -348.799804688 253.849609375 -349.400390625 254.349609375 -349.799804688 c 0
 260.599609375 -354.75 290 -363.900390625 318.5 -369.75 c 0
 357 -377.650390625 392.549804688 -381.400390625 439.75 -382.549804688 c 0
 467.549804688 -383.200195312 564.75 -382.849609375 581.25 -382.049804688 c 0
 634.75 -379.349609375 682.099609375 -372 720.049804688 -360.549804688 c 0
 735.650390625 -355.849609375 747.650390625 -351 748.349609375 -349.150390625 c 0
 748.799804688 -348.049804688 747.049804688 -346.849609375 742 -344.700195312 c 0
 725.099609375 -337.549804688 678.700195312 -325.200195312 642 -318.049804688 c 0
 600.349609375 -309.950195312 575.349609375 -307.150390625 535 -306 c 0
933 -264.349609375 m 0
 969.700195312 -229 999.799804688 -200.049804688 999.900390625 -200.049804688 c 0
 999.950195312 -200 1000 -204 1000 -208.900390625 c 2
 1000 -217.799804688 l 1
 855.5 -358.900390625 l 1
 711 -500 l 1
 705.5 -500 l 1
 700 -500 l 1
 700 -494.5 l 1
 700 -489 l 1
 783.150390625 -408.849609375 l 2
 828.849609375 -364.75 896.299804688 -299.75 933 -264.349609375 c 0
918.700195312 -411.099609375 m 2
 988.099609375 -340 l 1
 994.049804688 -340 l 1
 1000 -340 l 1
 1000 -344.150390625 l 1
 1000 -348.299804688 l 1
 925.950195312 -424.150390625 l 1
 851.900390625 -500 l 1
 841.849609375 -500 l 1
 831.849609375 -500 l 1
 840.549804688 -491.099609375 l 2
 845.349609375 -486.25 880.5 -450.25 918.700195312 -411.099609375 c 2
EndSplineSet
EndChar

